<?xml version="1.0" encoding="UTF-8"?>
<svg version="1.1" xmlns="http://www.w3.org/2000/svg" width="320" height="320">
<path d="M0 0 C1.33804688 1.20076172 1.33804688 1.20076172 2.703125 2.42578125 C19.06521626 17.87141658 27.27507171 38.47112629 27.99609375 60.765625 C28.25025197 81.22767195 20.25448785 101.11723328 6.14453125 115.828125 C5.43683594 116.54484375 4.72914063 117.2615625 4 118 C3.42636719 118.63421875 2.85273438 119.2684375 2.26171875 119.921875 C-11.24277153 134.48996476 -31.28916335 140.90834284 -50.62304688 141.92773438 C-70.37990436 142.58570353 -90.7989616 136.0735545 -105.4375 122.5625 C-107.33078478 120.74161557 -109.16482364 118.88125908 -111 117 C-111.73863281 116.27039063 -112.47726563 115.54078125 -113.23828125 114.7890625 C-126.83731925 100.58268882 -134.10369467 80.39040505 -134.03125 60.87109375 C-133.54108952 41.59218071 -127.15985852 22.3944161 -114 8 C-113.19949219 7.10796875 -112.39898437 6.2159375 -111.57421875 5.296875 C-99.16227451 -7.85152324 -83.6345802 -15.43345569 -66 -19 C-65.2884375 -19.144375 -64.576875 -19.28875 -63.84375 -19.4375 C-41.54862746 -22.86751885 -16.60215178 -15.1782446 0 0 Z " fill="#096AB5" transform="translate(213,99)"/>
<path d="M0 0 C0.77990295 -0.00974854 1.55980591 -0.01949707 2.36334229 -0.02954102 C34.37775752 -0.34768879 34.37775752 -0.34768879 49.70703125 4.23828125 C50.35994141 4.4202002 51.01285156 4.60211914 51.68554688 4.78955078 C88.03685313 15.0099306 118.87753235 40.69658091 137.51953125 73.23828125 C143.09909373 83.33074307 147.12442866 93.90417618 150.45703125 104.92578125 C150.75528809 105.90405884 150.75528809 105.90405884 151.05957031 106.90209961 C154.58320231 119.11242131 155.11256688 131.12382607 155.08203125 143.73828125 C155.08121552 145.00301773 155.08121552 145.00301773 155.0803833 146.29330444 C155.04271525 158.98547987 154.46398252 171.02676004 150.70703125 183.23828125 C150.38557129 184.32278564 150.38557129 184.32278564 150.05761719 185.42919922 C138.91216361 222.16701527 113.60729122 253.48352495 80.02416992 272.02758789 C57.65155659 283.87002603 35.62669598 288.66779975 10.45703125 288.80078125 C9.6203894 288.80972412 8.78374756 288.81866699 7.92175293 288.82788086 C-30.98083839 289.10642425 -65.76154443 272.53190576 -93.29296875 245.61328125 C-116.58905519 222.20660712 -133.1855847 188.31705784 -133.53125 154.9453125 C-133.54104385 154.16550018 -133.55083771 153.38568787 -133.56092834 152.58224487 C-133.88454044 120.16263641 -133.88454044 120.16263641 -129.29296875 105.23828125 C-129.07866211 104.51527832 -128.86435547 103.79227539 -128.64355469 103.04736328 C-117.45980475 66.18331418 -92.09315634 34.95536783 -58.40576172 16.37866211 C-40.43439411 6.82149661 -20.49215684 0.21211427 0 0 Z M-83.29296875 43.23828125 C-84.23785156 44.10066406 -85.18273437 44.96304688 -86.15625 45.8515625 C-112.90268189 71.38740624 -126.71289968 107.33044926 -127.60546875 143.92578125 C-126.95204396 182.93908514 -111.70077586 217.31418808 -84.14794922 244.75195312 C-58.03573768 269.86266731 -21.92018982 283.04840859 14.11328125 282.44921875 C53.28204127 281.060134 87.62175848 264.24792853 114.27685547 235.80761719 C137.64817871 210.16219797 149.53038424 175.0517099 148.953125 140.5859375 C147.14020375 101.84714757 131.01149154 67.0419353 102.44580078 40.77001953 C75.91025696 17.39400129 40.36618752 4.4365673 4.97070312 6.0859375 C-28.45042112 8.33515898 -58.58790893 20.47531588 -83.29296875 43.23828125 Z " fill="#0066B3" transform="translate(149.29296875,15.76171875)"/>
<path d="M0 0 C2.49952545 2.19489579 4.91265969 4.45458412 7.3125 6.7578125 C8.20582031 7.58796875 9.09914062 8.418125 10.01953125 9.2734375 C33.73863505 31.96416057 47.41330704 64.59249651 48.515625 97.30859375 C49.12339121 134.32813704 37.09720162 167.89153782 11.3125 194.7578125 C10.48234375 195.65113281 9.6521875 196.54445312 8.796875 197.46484375 C-13.89384807 221.18394755 -46.52218401 234.85861954 -79.23828125 235.9609375 C-116.25782454 236.56870371 -149.82122532 224.54251412 -176.6875 198.7578125 C-177.58082031 197.92765625 -178.47414062 197.0975 -179.39453125 196.2421875 C-203.11363505 173.55146443 -216.78830704 140.92312849 -217.890625 108.20703125 C-218.38550535 78.06345928 -210.82452442 49.18428893 -192.6875 24.7578125 C-192.11 23.95859375 -191.5325 23.159375 -190.9375 22.3359375 C-169.5181467 -5.91545091 -138.63326561 -23.86293897 -103.6875 -29.2421875 C-66.37667025 -34.30348267 -28.94788085 -24.15128432 0 0 Z M-172.6875 12.7578125 C-173.43773437 13.44359375 -174.18796875 14.129375 -174.9609375 14.8359375 C-198.1830198 36.83580494 -210.0404109 69.00787346 -211.03930664 100.54394531 C-211.40968119 135.89717098 -197.37121283 167.93908411 -172.875 193.0078125 C-149.45484659 216.17572431 -117.53377686 228.75684807 -84.6875 229.1328125 C-51.02383642 228.74749212 -21.00939011 215.7712465 3.3125 192.7578125 C4.1478125 191.98695313 4.983125 191.21609375 5.84375 190.421875 C25.14790661 172.01142934 35.97214184 146.70890501 40.3125 120.7578125 C40.44527344 119.99597656 40.57804688 119.23414063 40.71484375 118.44921875 C45.15478928 87.24795771 36.04648612 53.41127472 17.40209961 28.1706543 C-3.9249296 0.7024357 -33.66359696 -17.8065018 -68.37817383 -22.51953125 C-107.5389006 -27.08899025 -144.14840492 -14.20094181 -172.6875 12.7578125 Z " fill="#0066B3" transform="translate(244.6875,57.2421875)"/>
<path d="M0 0 C5.35756973 4.07690596 8.99524219 8.54380892 12.3125 14.375 C12.85197266 15.27412109 12.85197266 15.27412109 13.40234375 16.19140625 C17.74775656 25.14255614 16.12097123 38.19309576 13.3125 47.375 C11.9453125 50.16796875 11.9453125 50.16796875 10.4375 52.5625 C9.94507813 53.36042969 9.45265625 54.15835938 8.9453125 54.98046875 C5.69298662 59.750028 2.77293186 63.03036789 -2.1875 66.0625 C-3.1259375 66.64386719 -4.064375 67.22523438 -5.03125 67.82421875 C-14.40883299 73.29907235 -26.99556022 74.37573366 -37.5859375 71.62109375 C-39.75410348 70.67760856 -41.69673131 69.647001 -43.6875 68.375 C-44.76 67.715 -45.8325 67.055 -46.9375 66.375 C-55.05577096 60.47080294 -61.39646639 53.0148693 -64.25 43.15234375 C-65.82487397 33.15470634 -66.38769993 22.12051222 -60.6875 13.375 C-60.0275 12.3025 -59.3675 11.23 -58.6875 10.125 C-58.0275 9.2175 -57.3675 8.31 -56.6875 7.375 C-55.883125 6.1684375 -55.883125 6.1684375 -55.0625 4.9375 C-40.07769465 -11.2303163 -17.58863707 -11.75749217 0 0 Z " fill="#1E77BB" transform="translate(184.6875,127.625)"/>
<path d="M0 0 C4.28806873 0.47645208 6.26647487 1.65902484 9 5 C9 5.66 9 6.32 9 7 C9.66 6.67 10.32 6.34 11 6 C10.01 4.515 10.01 4.515 9 3 C9 2.01 9 1.02 9 0 C10.0725 0.33 11.145 0.66 12.25 1 C15.99731601 2.1717751 15.99731601 2.1717751 20 2 C19.67 3.32 19.34 4.64 19 6 C23.62 6.66 28.24 7.32 33 8 C33 9.32 33 10.64 33 12 C32.34 12 31.68 12 31 12 C31.04125 13.093125 31.0825 14.18625 31.125 15.3125 C31 19 31 19 29 22 C26.25 22 26.25 22 23 21 C21.16267304 18.53397119 19.87452306 15.94925362 19 13 C19.33 12.34 19.66 11.68 20 11 C19.34 11 18.68 11 18 11 C17.92572162 14.34252724 17.93453047 16.8035914 19 20 C15.91085915 19.66902062 14.9973069 18.99715301 12.8125 16.6875 C11 14 11 14 10 10 C10 13.3 10 16.6 10 20 C8.68 19.67 7.36 19.34 6 19 C6 16.03 6 13.06 6 10 C5.01 10 4.02 10 3 10 C3.495 11.485 3.495 11.485 4 13 C4.03954234 15.33299825 4.04401732 17.66708189 4 20 C0.58978257 19.21302675 -2.68885166 18.12880057 -6 17 C-7.33333333 20 -7.33333333 20 -6 23 C-6.99 23 -7.98 23 -9 23 C-9.495 22.01 -9.495 22.01 -10 21 C-11.32 21 -12.64 21 -14 21 C-13.505 22.485 -13.505 22.485 -13 24 C-12.35168213 23.93143799 -11.70336426 23.86287598 -11.03540039 23.79223633 C21.43935185 20.57214771 49.8021313 24.67578775 75.875 45.5625 C77.59560542 47.0273733 79.30533635 48.50519168 81 50 C81.62261719 50.53882813 82.24523437 51.07765625 82.88671875 51.6328125 C99.63387345 67.16979984 110.56098464 91.45363716 112.22314453 114.03100586 C113.32226838 144.21884674 106.14658694 170.44550846 85.75 193.25 C68.24106962 211.92930511 43.6875018 224.38090312 17.87109375 225.3359375 C-13.26015226 225.77248013 -38.75173661 217.23873458 -61.7421875 195.39453125 C-81.75053819 174.8477122 -90.56750094 149.12809066 -90.41967773 120.76831055 C-89.79936999 93.1735914 -78.14955997 68.65914205 -58.5234375 49.42529297 C-46.6051706 38.27483749 -32.42845852 30.87708111 -17 26 C-17.80824219 25.41734375 -18.61648437 24.8346875 -19.44921875 24.234375 C-22 22 -22 22 -22.8125 18.25 C-22.874375 17.1775 -22.93625 16.105 -23 15 C-23.66 15 -24.32 15 -25 15 C-25 14.01 -25 13.02 -25 12 C-14.80797039 8.26292248 -4.86160722 6.56745812 6 7 C4.0745356 4.7763932 4.0745356 4.7763932 1 4 C0.3125 1.9375 0.3125 1.9375 0 0 Z M26 11 C27 13 27 13 27 13 Z M-16 13 C-16.33 14.32 -16.66 15.64 -17 17 C-16.01 17.33 -15.02 17.66 -14 18 C-13.67 17.01 -13.34 16.02 -13 15 C-13.99 14.34 -14.98 13.68 -16 13 Z M25 16 C25 19 25 19 25 19 Z M-15 33 C-15.94963623 33.29801514 -15.94963623 33.29801514 -16.91845703 33.60205078 C-41.03014826 41.37156751 -61.24123782 57.72939995 -73.1796875 80.21875 C-75.20226206 84.26818878 -76.8442833 88.4304913 -78.375 92.6875 C-78.61379883 93.35160889 -78.85259766 94.01571777 -79.09863281 94.69995117 C-86.94051672 117.93337639 -84.53889852 144.3130753 -73.97265625 166.25390625 C-61.61235627 190.44681887 -40.7603123 206.70910192 -15.20703125 215.17578125 C9.76034925 221.59248927 36.34397289 218.96297217 58.76123047 205.97998047 C81.31009817 192.13010271 97.03333444 171.02480863 103.30859375 145.3046875 C103.53675781 144.21414062 103.76492187 143.12359375 104 142 C104.19078125 141.10023438 104.3815625 140.20046875 104.578125 139.2734375 C107.87052902 113.72682114 102.70983178 88.93044504 87.43359375 68.08984375 C71.15148656 47.41705597 49.48519505 33.62374199 23 30 C19.05736463 29.71977745 15.13915317 29.66516346 11.1875 29.6875 C10.13433594 29.69313965 9.08117187 29.6987793 7.99609375 29.70458984 C-0.0547295 29.82976428 -7.27997535 30.56741197 -15 33 Z " fill="#0066B3" transform="translate(149,36)"/>
<path d="M0 0 C17.87453011 14.60370429 31.36301742 34.54286943 34.75 57.7578125 C36.82328984 84.64579006 32.26250314 109.01552409 14.39453125 130.1328125 C-1.34580364 148.13659185 -22.35435492 160.41617231 -46.52246094 162.18457031 C-72.98679818 163.5207646 -96.30452009 156.62871769 -116.25 138.625 C-133.54643098 122.51317989 -144.16789638 100.87361293 -145.28125 77.140625 C-145.99440102 51.2492812 -137.92541876 28.04111842 -120.15527344 9.12719727 C-108.75850224 -2.58043096 -95.61713315 -10.29417511 -80 -15 C-78.93523437 -15.32097656 -77.87046875 -15.64195313 -76.7734375 -15.97265625 C-50.31293976 -22.76144744 -21.54713954 -16.54614561 0 0 Z M-118 17 C-133.58116906 35.76517249 -139.64963133 57.97471542 -138 82 C-136.0247656 97.5481459 -129.93220875 111.89111935 -120 124 C-119.31035156 124.85335937 -118.62070313 125.70671875 -117.91015625 126.5859375 C-104.45738639 142.39841564 -85.54962903 152.29543628 -65 155 C-40.24429448 156.68112313 -18.51138161 150.50565561 0.60302734 134.22583008 C15.9340369 120.61875984 25.26331223 102.34351969 28 82 C29.52584187 56.31155188 23.03149709 34.25320376 5.8125 14.8125 C-7.86948189 -0.00166828 -27.82468493 -9.86918037 -47.99731445 -11.12426758 C-75.18768644 -12.1470334 -99.35617901 -3.38654147 -118 17 Z " fill="#0066B3" transform="translate(215,88)"/>
<path d="M0 0 C9.49937151 4.97950926 14.47568477 12.55303342 17.90625 22.5234375 C19.47636451 32.45681504 17.73074221 41.67578003 12.22265625 50.09765625 C9.45375604 53.79547782 6.79807633 56.97142024 2.90625 59.5234375 C2.24625 59.5234375 1.58625 59.5234375 0.90625 59.5234375 C-0.08375 56.8834375 -1.07375 54.2434375 -2.09375 51.5234375 C-1.62324219 51.09933594 -1.15273437 50.67523438 -0.66796875 50.23828125 C6.09718858 43.86530696 8.04811929 39.35142179 8.40625 30.0859375 C8.22813057 22.23319413 6.56589423 18.31074374 1.2265625 12.78515625 C-5.29430172 6.71350712 -11.96244715 6.00162082 -20.6796875 6.1484375 C-27.98347506 6.95068419 -32.23082124 11.20747259 -36.8671875 16.58203125 C-40.91518956 22.98921922 -40.81787126 30.21070678 -40.09375 37.5234375 C-38.48562702 42.96497798 -35.42141376 46.86156817 -31.09375 50.5234375 C-29.60875 51.0184375 -29.60875 51.0184375 -28.09375 51.5234375 C-28.42375 50.2034375 -28.75375 48.8834375 -29.09375 47.5234375 C-21.51082889 44.54018797 -15.91602146 42.58451093 -8.1171875 45.62890625 C-7.44945312 45.92410156 -6.78171875 46.21929687 -6.09375 46.5234375 C-5.10375 46.8534375 -4.11375 47.1834375 -3.09375 47.5234375 C-3.09375 48.1834375 -3.09375 48.8434375 -3.09375 49.5234375 C-3.75375 49.5234375 -4.41375 49.5234375 -5.09375 49.5234375 C-5.09375 50.1834375 -5.09375 50.8434375 -5.09375 51.5234375 C-4.10375 52.0184375 -4.10375 52.0184375 -3.09375 52.5234375 C-2.6796875 54.58984375 -2.6796875 54.58984375 -2.46875 57.0859375 C-2.39398438 57.91222656 -2.31921875 58.73851562 -2.2421875 59.58984375 C-2.19320312 60.22792969 -2.14421875 60.86601562 -2.09375 61.5234375 C-2.75375 61.5234375 -3.41375 61.5234375 -4.09375 61.5234375 C-4.09375 59.8734375 -4.09375 58.2234375 -4.09375 56.5234375 C-4.75375 56.5234375 -5.41375 56.5234375 -6.09375 56.5234375 C-6.09375 58.8334375 -6.09375 61.1434375 -6.09375 63.5234375 C-9.55875 64.0184375 -9.55875 64.0184375 -13.09375 64.5234375 C-13.09375 62.8734375 -13.09375 61.2234375 -13.09375 59.5234375 C-11.44375 59.8534375 -9.79375 60.1834375 -8.09375 60.5234375 C-8.09375 59.5334375 -8.09375 58.5434375 -8.09375 57.5234375 C-9.41375 57.5234375 -10.73375 57.5234375 -12.09375 57.5234375 C-11.76375 56.5334375 -11.43375 55.5434375 -11.09375 54.5234375 C-14.06375 54.1934375 -17.03375 53.8634375 -20.09375 53.5234375 C-20.09375 54.1834375 -20.09375 54.8434375 -20.09375 55.5234375 C-18.44375 55.5234375 -16.79375 55.5234375 -15.09375 55.5234375 C-15.42375 58.4934375 -15.75375 61.4634375 -16.09375 64.5234375 C-18.07375 64.5234375 -20.05375 64.5234375 -22.09375 64.5234375 C-22.42375 63.2034375 -22.75375 61.8834375 -23.09375 60.5234375 C-24.08375 61.5134375 -24.08375 61.5134375 -25.09375 62.5234375 C-31.11698799 62.5234375 -35.6039392 59.21523884 -40.09375 55.5234375 C-47.1304102 48.40910997 -50.23962915 39.46236057 -50.71875 29.5859375 C-50.49823854 22.14571738 -48.05188492 16.73115989 -44.09375 10.5234375 C-43.71089844 9.90726563 -43.32804688 9.29109375 -42.93359375 8.65625 C-32.96881008 -5.13015322 -14.37262486 -6.31418714 0 0 Z " fill="#F3F7FB" transform="translate(176.09375,129.4765625)"/>
<path d="M0 0 C3.78383679 0.92493788 5.56693694 1.39371171 7.875 4.625 C8.431875 5.800625 8.431875 5.800625 9 7 C10.32 6.67 11.64 6.34 13 6 C13 6.66 13 7.32 13 8 C13.9075 7.95875 14.815 7.9175 15.75 7.875 C18.947017 7.99796219 20.31263344 8.42464719 23 10 C23.99 10.33 24.98 10.66 26 11 C25.54177532 14.46941546 25.10868317 17.67395049 24 21 C24.99 21 25.98 21 27 21 C27.66 18.03 28.32 15.06 29 12 C30.95979427 12.28168297 32.91782378 12.57566717 34.875 12.875 C35.96554688 13.03742188 37.05609375 13.19984375 38.1796875 13.3671875 C41 14 41 14 43 16 C42.63723355 18.82957829 41.90305236 21.29084291 41 24 C41.66 24 42.32 24 43 24 C43.28875 23.071875 43.5775 22.14375 43.875 21.1875 C45 18 45 18 47 15 C48.32 15 49.64 15 51 15 C51.66 16.98 52.32 18.96 53 21 C53.33 19.02 53.66 17.04 54 15 C55.875 15.3125 55.875 15.3125 58 16 C58.99 17.485 58.99 17.485 60 19 C60.33 17.68 60.66 16.36 61 15 C61.763125 15.20625 62.52625 15.4125 63.3125 15.625 C66.21885944 16.33391203 66.21885944 16.33391203 69 14 C71 14 73 14 75 14 C77.0078864 13.35747635 79.00882592 12.69258229 81 12 C82.32 12 83.64 12 85 12 C85.495 15.96 85.495 15.96 86 20 C85.34 20.33 84.68 20.66 84 21 C85.32 21 86.64 21 88 21 C87.67 22.32 87.34 23.64 87 25 C84.03 25.66 81.06 26.32 78 27 C77.62875 25.700625 77.2575 24.40125 76.875 23.0625 C76.14091173 20.85401484 76.14091173 20.85401484 75 19 C71.92202417 17.85968434 71.92202417 17.85968434 69 18 C69.495 20.475 69.495 20.475 70 23 C70.66 23 71.32 23 72 23 C72.33 22.34 72.66 21.68 73 21 C74.485 21.495 74.485 21.495 76 22 C75.505 24.475 75.505 24.475 75 27 C72.1875 27.625 72.1875 27.625 69 28 C68.01 27.34 67.02 26.68 66 26 C65.67 26.66 65.34 27.32 65 28 C60.125 27.125 60.125 27.125 59 26 C58.505 27.485 58.505 27.485 58 29 C55.69 29 53.38 29 51 29 C50.505 27.515 50.505 27.515 50 26 C47.24358584 26.49756092 47.24358584 26.49756092 45 28 C41.5625 27.8125 41.5625 27.8125 38 27 C36.5625 24.9375 36.5625 24.9375 36 23 C35.505 24.485 35.505 24.485 35 26 C33.68 26 32.36 26 31 26 C30.505 25.01 30.505 25.01 30 24 C29.113125 24.2475 28.22625 24.495 27.3125 24.75 C23.04433974 25.0721253 22.16863939 23.6683279 19 21 C17.65737935 21.29369827 16.32303717 21.6278958 15 22 C10.36923077 19.73846154 10.36923077 19.73846154 9 17 C7.68 17.33 6.36 17.66 5 18 C4.34 16.35 3.68 14.7 3 13 C2.67 13.66 2.34 14.32 2 15 C-0.92879371 14.37240135 -3.36095629 13.41377341 -6 12 C-4.43358249 7.69235185 -2.31663844 3.93828536 0 0 Z M-2 11 C-1 13 -1 13 -1 13 Z M11 11 C10.67 11.99 10.34 12.98 10 14 C10.66 14 11.32 14 12 14 C11.67 13.01 11.34 12.02 11 11 Z M20 15 C21 18 21 18 21 18 Z M36 17 C36.33 17.66 36.66 18.32 37 19 C37.66 18.67 38.32 18.34 39 18 C38.01 17.67 37.02 17.34 36 17 Z M31 18 C32 20 32 20 32 20 Z " fill="#0066B3" transform="translate(104,252)"/>
<path d="M0 0 C5.35756973 4.07690596 8.99524219 8.54380892 12.3125 14.375 C12.85197266 15.27412109 12.85197266 15.27412109 13.40234375 16.19140625 C17.74775656 25.14255614 16.12097123 38.19309576 13.3125 47.375 C11.9453125 50.16796875 11.9453125 50.16796875 10.4375 52.5625 C9.94507813 53.36042969 9.45265625 54.15835938 8.9453125 54.98046875 C5.69298662 59.750028 2.77293186 63.03036789 -2.1875 66.0625 C-3.1259375 66.64386719 -4.064375 67.22523438 -5.03125 67.82421875 C-14.40883299 73.29907235 -26.99556022 74.37573366 -37.5859375 71.62109375 C-39.75410348 70.67760856 -41.69673131 69.647001 -43.6875 68.375 C-44.76 67.715 -45.8325 67.055 -46.9375 66.375 C-55.05577096 60.47080294 -61.39646639 53.0148693 -64.25 43.15234375 C-65.82487397 33.15470634 -66.38769993 22.12051222 -60.6875 13.375 C-60.0275 12.3025 -59.3675 11.23 -58.6875 10.125 C-58.0275 9.2175 -57.3675 8.31 -56.6875 7.375 C-55.883125 6.1684375 -55.883125 6.1684375 -55.0625 4.9375 C-40.07769465 -11.2303163 -17.58863707 -11.75749217 0 0 Z M-52.9296875 8.08203125 C-60.47559081 17.9252429 -61.92398586 27.02893438 -61.02124023 39.14282227 C-59.54206799 49.03607159 -53.35500227 56.65716233 -45.78125 62.83203125 C-36.6321423 69.57437741 -26.69965653 69.4732137 -15.6875 68.375 C-6.13323644 66.55800529 0.8513613 59.72361016 6.75 52.3125 C12.28635339 41.90415563 13.60340502 30.15400717 10.24609375 18.75390625 C5.31340889 8.20306806 -2.03580061 1.78325215 -12.6875 -2.625 C-27.07204637 -7.41984879 -42.912036 -3.08827889 -52.9296875 8.08203125 Z " fill="#E5EFF7" transform="translate(184.6875,127.625)"/>
<path d="M0 0 C0.144375 1.216875 0.28875 2.43375 0.4375 3.6875 C0.82780953 6.82670377 1.32351856 9.9075134 2 13 C0.02 13 -1.96 13 -4 13 C-3.505 14.485 -3.505 14.485 -3 16 C-6.73487777 15.5020163 -8.81237635 15.12508244 -12 13 C-12 11.68 -12 10.36 -12 9 C-12.66 9.66 -13.32 10.32 -14 11 C-13.319375 11.5775 -12.63875 12.155 -11.9375 12.75 C-11.298125 13.4925 -10.65875 14.235 -10 15 C-10.19015254 17.21844626 -10.41522155 18.41522155 -12 20 C-17.52941176 20.23529412 -17.52941176 20.23529412 -20 19 C-20.66 20.32 -21.32 21.64 -22 23 C-23.98 22.67 -25.96 22.34 -28 22 C-28 22.33 -28 22.66 -28 23 C-28 24.32 -28 25.64 -28 27 C-26.35 27 -24.7 27 -23 27 C-23 27.99 -23 28.98 -23 30 C-24.91595968 30.08133791 -26.83291932 30.13934367 -28.75 30.1875 C-30.35101563 30.23970703 -30.35101563 30.23970703 -31.984375 30.29296875 C-35.30027855 29.97082786 -36.59016673 29.22851086 -39 27 C-38.505 27.61875 -38.01 28.2375 -37.5 28.875 C-36 31 -36 31 -36 33 C-34.35 33 -32.7 33 -31 33 C-31.33 33.99 -31.66 34.98 -32 36 C-34.97 36 -37.94 36 -41 36 C-39.68 37.65 -38.36 39.3 -37 41 C-39.125 41.75 -39.125 41.75 -42 42 C-45.3125 40.0625 -45.3125 40.0625 -48 38 C-47.4946875 38.40992188 -46.989375 38.81984375 -46.46875 39.2421875 C-45.8190625 39.78101563 -45.169375 40.31984375 -44.5 40.875 C-43.8503125 41.40867188 -43.200625 41.94234375 -42.53125 42.4921875 C-42.0259375 42.98976562 -41.520625 43.48734375 -41 44 C-41 44.66 -41 45.32 -41 46 C-43.1875 46.75 -43.1875 46.75 -46 47 C-48.8125 45.0625 -48.8125 45.0625 -51 43 C-51.33 43.66 -51.66 44.32 -52 45 C-51.21625 45.309375 -50.4325 45.61875 -49.625 45.9375 C-47 47 -47 47 -45 48 C-45 48.99 -45 49.98 -45 51 C-45.61875 51.061875 -46.2375 51.12375 -46.875 51.1875 C-49.27761141 51.828919 -49.27761141 51.828919 -50.25 54.5625 C-50.4975 55.366875 -50.745 56.17125 -51 57 C-53.64 57 -56.28 57 -59 57 C-59 56.34 -59 55.68 -59 55 C-59.99 54.67 -60.98 54.34 -62 54 C-61.51675181 48.84535266 -58.81389239 45.18449681 -56 41 C-56.495 41.495 -56.495 41.495 -57 42 C-58.66617115 42.04063832 -60.33388095 42.042721 -62 42 C-62 41.01 -62 40.02 -62 39 C-58.55549263 36.70366176 -56.06187717 36.45983515 -52 36 C-51.8508625 33.12800968 -51.8508625 33.12800968 -52.625 31 C-53 29 -53 29 -51 26 C-48.24921116 25.08307039 -46.64051087 24.89113917 -43.8125 24.9375 C-41.9253125 24.9684375 -41.9253125 24.9684375 -40 25 C-40 24.34 -40 23.68 -40 23 C-37.93423961 21.18152772 -35.86606524 19.48672093 -33.6875 17.8125 C-33.0495752 17.31927246 -32.41165039 16.82604492 -31.75439453 16.31787109 C-10.41153665 0 -10.41153665 0 0 0 Z M-22 14 C-21 17 -21 17 -21 17 Z M-16 15 C-16.33 15.66 -16.66 16.32 -17 17 C-16.01 16.67 -15.02 16.34 -14 16 C-14.66 15.67 -15.32 15.34 -16 15 Z M-48 28 C-47.67 28.99 -47.34 29.98 -47 31 C-46.34 30.01 -45.68 29.02 -45 28 C-45.99 28 -46.98 28 -48 28 Z " fill="#0066B3" transform="translate(120,50)"/>
<path d="M0 0 C0.66 0 1.32 0 2 0 C2.25394531 0.54269531 2.50789063 1.08539063 2.76953125 1.64453125 C3.11371094 2.35996094 3.45789063 3.07539063 3.8125 3.8125 C4.14894531 4.52019531 4.48539063 5.22789062 4.83203125 5.95703125 C6.00645471 8.01129035 7.25628016 9.41616278 9 11 C8.67 11.66 8.34 12.32 8 13 C3.05 12.01 3.05 12.01 -2 11 C-0.02 12.65 1.96 14.3 4 16 C3.67 17.32 3.34 18.64 3 20 C1.35 20 -0.3 20 -2 20 C-1.7525 20.5775 -1.505 21.155 -1.25 21.75 C-1 24 -1 24 -2.6875 26.25 C-5 28 -5 28 -9 28 C-9.66 29.98 -10.32 31.96 -11 34 C-11.66 34 -12.32 34 -13 34 C-13.495 32.02 -13.495 32.02 -14 30 C-14.66 30 -15.32 30 -16 30 C-16.33 32.64 -16.66 35.28 -17 38 C-17.99 38.33 -18.98 38.66 -20 39 C-20 39.66 -20 40.32 -20 41 C-22.90548882 43.04169485 -24.40142046 44 -28 44 C-28.33 44.99 -28.66 45.98 -29 47 C-30.32 47 -31.64 47 -33 47 C-33.61875 47.66 -34.2375 48.32 -34.875 49 C-37 51 -37 51 -39.9375 50.9375 C-43.24003225 50.64675123 -43.24003225 50.64675123 -45.5 53.5625 C-48 56 -48 56 -51.125 56.1875 C-54 55 -54 55 -56 52.25 C-57 49 -57 49 -56.3125 46.25 C-55 44 -55 44 -53 42 C-50.4375 41.8125 -50.4375 41.8125 -48 42 C-47.67 42.33 -47.34 42.66 -47 43 C-46.608125 42.195625 -46.21625 41.39125 -45.8125 40.5625 C-44 38 -44 38 -41.4375 37.125 C-39 37 -39 37 -37 38 C-37 37.01 -37 36.02 -37 35 C-32.125 34 -32.125 34 -31 34 C-31 33.01 -31 32.02 -31 31 C-28.25 29 -28.25 29 -25 27 C-23.948125 26.1028125 -23.948125 26.1028125 -22.875 25.1875 C-21 24 -21 24 -18.75 24.3125 C-18.1725 24.539375 -17.595 24.76625 -17 25 C-17.495 23.02 -17.495 23.02 -18 21 C-16.4375 19.8125 -16.4375 19.8125 -14 19 C-10.25 20.375 -10.25 20.375 -7 22 C-9.475 20.02 -9.475 20.02 -12 18 C-11.67 16.68 -11.34 15.36 -11 14 C-9.35 14 -7.7 14 -6 14 C-6.66 13.01 -7.32 12.02 -8 11 C-4.375 6.125 -4.375 6.125 -1 5 C-0.67 3.35 -0.34 1.7 0 0 Z M-41 41 C-41.33 42.65 -41.66 44.3 -42 46 C-40.68 46.33 -39.36 46.66 -38 47 C-37.67 46.01 -37.34 45.02 -37 44 C-37.66 43.01 -38.32 42.02 -39 41 C-39.66 41 -40.32 41 -41 41 Z M-47 45 C-48.98 45.66 -50.96 46.32 -53 47 C-52.34 48.65 -51.68 50.3 -51 52 C-47.60085025 50.86695008 -46.94745549 49.87481525 -45 47 C-45.66 46.34 -46.32 45.68 -47 45 Z " fill="#0066B3" transform="translate(250,218)"/>
<path d="M0 0 C3.3125 1 3.3125 1 5.3125 4 C5.291875 4.825 5.27125 5.65 5.25 6.5 C5.04582197 9.03388882 5.04582197 9.03388882 6.6875 10.5625 C7.22375 11.036875 7.76 11.51125 8.3125 12 C9.90163558 14.67643887 10.3125 15.8180056 10.3125 19 C11.4622993 20.1497993 12.6169658 21.29518308 13.796875 22.4140625 C15.62588285 24.32792123 17.15350202 26.34236732 18.6875 28.5 C19.21085937 29.2321875 19.73421875 29.964375 20.2734375 30.71875 C21.56991006 33.56514089 21.19357906 35.05615938 20.3125 38 C20.89 37.75894531 21.4675 37.51789063 22.0625 37.26953125 C24.3125 37 24.3125 37 26.3125 38.51171875 C27.3025 39.58873047 27.3025 39.58873047 28.3125 40.6875 C28.9725 41.39261719 29.6325 42.09773438 30.3125 42.82421875 C31.3025 43.90123047 31.3025 43.90123047 32.3125 45 C33.06015625 45.66128906 33.8078125 46.32257813 34.578125 47.00390625 C36.3125 49 36.3125 49 36.484375 51.140625 C36.09375 53.09375 35.703125 55.046875 35.3125 57 C36.3025 55.35 37.2925 53.7 38.3125 52 C39.6325 52.66 40.9525 53.32 42.3125 54 C40.9925 56.64 39.6725 59.28 38.3125 62 C39.3025 62.99 40.2925 63.98 41.3125 65 C40.8175 66.485 40.8175 66.485 40.3125 68 C35.79798039 66.53942013 32.73397956 64.26941381 29.3125 61 C28.961875 60.0925 28.61125 59.185 28.25 58.25 C27.940625 57.5075 27.63125 56.765 27.3125 56 C24.76474694 55.10613836 24.76474694 55.10613836 22.3125 55 C22.6425 54.01 22.9725 53.02 23.3125 52 C26.375 50.8125 26.375 50.8125 29.3125 50 C28.6525 49.34 27.9925 48.68 27.3125 48 C25.0025 49.65 22.6925 51.3 20.3125 53 C19.6525 51.68 18.9925 50.36 18.3125 49 C20.2925 47.35 22.2725 45.7 24.3125 44 C23.3225 43.505 23.3225 43.505 22.3125 43 C21.19875 44.0209375 21.19875 44.0209375 20.0625 45.0625 C17.3125 47 17.3125 47 15 46.75 C14.443125 46.5025 13.88625 46.255 13.3125 46 C13.3125 44.35 13.3125 42.7 13.3125 41 C11.8275 41.495 11.8275 41.495 10.3125 42 C10.209375 41.360625 10.10625 40.72125 10 40.0625 C9.773125 39.381875 9.54625 38.70125 9.3125 38 C7.8275 37.505 7.8275 37.505 6.3125 37 C4.23719613 34.07920195 3.3125 32.62453269 3.3125 29 C2.6525 29 1.9925 29 1.3125 29 C-1.8075 24.84 -1.8075 24.84 -1.375 21.8125 C-1.148125 21.214375 -0.92125 20.61625 -0.6875 20 C-0.6875 19.34 -0.6875 18.68 -0.6875 18 C-1.6775 18.33 -2.6675 18.66 -3.6875 19 C-4.25 17.0625 -4.25 17.0625 -4.6875 15 C-4.3575 14.67 -4.0275 14.34 -3.6875 14 C-4.326875 13.62875 -4.96625 13.2575 -5.625 12.875 C-7.6875 11 -7.6875 11 -8.75 8.125 C-8.6875 5 -8.6875 5 -6.6875 2.0625 C-3.6875 0 -3.6875 0 0 0 Z M-2.6875 4 C-3.3475 5.32 -4.0075 6.64 -4.6875 8 C-1.63836772 9.01111093 -1.63836772 9.01111093 1.3125 8 C0.9825 6.68 0.6525 5.36 0.3125 4 C-0.6775 4 -1.6675 4 -2.6875 4 Z M4.3125 15 C4.6425 15.99 4.9725 16.98 5.3125 18 C5.3125 17.01 5.3125 16.02 5.3125 15 C4.9825 15 4.6525 15 4.3125 15 Z M3.3125 21 C2.9825 21.99 2.6525 22.98 2.3125 24 C3.6325 23.34 4.9525 22.68 6.3125 22 C5.3225 21.67 4.3325 21.34 3.3125 21 Z M12.3125 28 C13.3125 30 13.3125 30 13.3125 30 Z M8.3125 31 C8.9725 32.98 9.6325 34.96 10.3125 37 C11.3025 36.67 12.2925 36.34 13.3125 36 C11.6625 34.35 10.0125 32.7 8.3125 31 Z M14.3125 31 C14.3125 31.99 14.3125 32.98 14.3125 34 C14.9725 33.67 15.6325 33.34 16.3125 33 C15.6525 32.34 14.9925 31.68 14.3125 31 Z " fill="#0066B3" transform="translate(54.6875,193)"/>
<path d="M0 0 C3.36271007 1.42511512 4.00873354 2.01402659 6.0625 5.3125 C9.3668746 10.31088943 14.58122313 11.94067499 20 14 C18.88123505 16.51722114 17.77685621 18.24956871 15.921875 20.32421875 C13.54558897 23.63266576 13.41301395 25.77790476 13.25 29.8125 C13.16492188 31.55466797 13.16492188 31.55466797 13.078125 33.33203125 C13.03945312 34.65267578 13.03945312 34.65267578 13 36 C12.07380859 35.65775391 12.07380859 35.65775391 11.12890625 35.30859375 C2.31465395 32.31684601 -4.28669151 33.21915686 -13 36 C-12.84660156 35.16597656 -12.69320312 34.33195312 -12.53515625 33.47265625 C-11.4841028 26.6291725 -11.4841028 26.6291725 -13.4921875 20.203125 C-15.38928007 17.81022085 -15.38928007 17.81022085 -17.43359375 15.70703125 C-19 14 -19 14 -19 12 C-18.29875 11.97164062 -17.5975 11.94328125 -16.875 11.9140625 C-12.14290093 11.4382808 -9.03494865 10.97217571 -5.48828125 7.640625 C-3.53408553 5.1566563 -1.71066843 2.65668278 0 0 Z " fill="#E8F1F8" transform="translate(160,139)"/>
<path d="M0 0 C2.3984375 1.44140625 2.3984375 1.44140625 3.4375 4.15625 C3.63085938 5.21972656 3.82421875 6.28320312 4.0234375 7.37890625 C4.79196914 11.48605909 5.2515219 13.66829554 8.3984375 16.44140625 C8.3984375 17.10140625 8.3984375 17.76140625 8.3984375 18.44140625 C9.3884375 17.78140625 10.3784375 17.12140625 11.3984375 16.44140625 C14.0234375 16.69140625 14.0234375 16.69140625 16.3984375 17.44140625 C17.69914363 20.04281851 17.39108799 21.85578255 17.2734375 24.75390625 C17.21472773 29.23933236 17.58097978 31.80219003 20.3984375 35.44140625 C20.3984375 36.10140625 20.3984375 36.76140625 20.3984375 37.44140625 C21.0584375 37.44140625 21.7184375 37.44140625 22.3984375 37.44140625 C22.2128125 36.65765625 22.0271875 35.87390625 21.8359375 35.06640625 C21.3984375 32.44140625 21.3984375 32.44140625 22.3984375 30.44140625 C23.0584375 30.44140625 23.7184375 30.44140625 24.3984375 30.44140625 C25.23619606 33.95999218 25.64193915 35.86469182 24.2109375 39.25390625 C23.11997387 43.53384049 24.46710422 45.58298913 26.453125 49.390625 C27.3984375 51.44140625 27.3984375 51.44140625 27.3984375 54.44140625 C26.00625 54.34859375 26.00625 54.34859375 24.5859375 54.25390625 C20.93358532 54.4687505 20.76226356 54.97013355 18.3984375 57.44140625 C16.2109375 57.12890625 16.2109375 57.12890625 14.3984375 56.44140625 C13.59890612 53.15444392 13.30184814 51.73117433 14.3984375 48.44140625 C13.0784375 48.11140625 11.7584375 47.78140625 10.3984375 47.44140625 C9.37918304 44.19832387 9.24093693 42.81443392 10.5859375 39.62890625 C11.1840625 38.90703125 11.7821875 38.18515625 12.3984375 37.44140625 C13.7184375 37.44140625 15.0384375 37.44140625 16.3984375 37.44140625 C15.7384375 36.78140625 15.0784375 36.12140625 14.3984375 35.44140625 C13.4496875 36.10140625 12.5009375 36.76140625 11.5234375 37.44140625 C8.3984375 39.44140625 8.3984375 39.44140625 6.3984375 39.44140625 C6.4396875 38.69890625 6.4809375 37.95640625 6.5234375 37.19140625 C6.39313934 34.32484672 5.76073586 32.91057203 4.3984375 30.44140625 C4.3984375 29.78140625 4.3984375 29.12140625 4.3984375 28.44140625 C3.0784375 28.77140625 1.7584375 29.10140625 0.3984375 29.44140625 C0.0684375 28.12140625 -0.2615625 26.80140625 -0.6015625 25.44140625 C4.1484375 21.44140625 4.1484375 21.44140625 6.3984375 21.44140625 C6.3984375 20.78140625 6.3984375 20.12140625 6.3984375 19.44140625 C5.84414062 19.87453125 5.28984375 20.30765625 4.71875 20.75390625 C3.99429688 21.31078125 3.26984375 21.86765625 2.5234375 22.44140625 C1.80414063 22.99828125 1.08484375 23.55515625 0.34375 24.12890625 C-1.6015625 25.44140625 -1.6015625 25.44140625 -3.6015625 25.44140625 C-3.6015625 22.80140625 -3.6015625 20.16140625 -3.6015625 17.44140625 C-4.2615625 17.44140625 -4.9215625 17.44140625 -5.6015625 17.44140625 C-5.6015625 18.43140625 -5.6015625 19.42140625 -5.6015625 20.44140625 C-6.2615625 20.44140625 -6.9215625 20.44140625 -7.6015625 20.44140625 C-8.09387019 14.04140625 -8.09387019 14.04140625 -5.6015625 11.00390625 C-4.9415625 10.48828125 -4.2815625 9.97265625 -3.6015625 9.44140625 C-7.03751416 10.96849588 -9.72068704 13.0406767 -12.6015625 15.44140625 C-13.3515625 13.19140625 -13.3515625 13.19140625 -13.6015625 10.44140625 C-11.7265625 8.37890625 -11.7265625 8.37890625 -9.6015625 6.44140625 C-9.4778125 5.76078125 -9.3540625 5.08015625 -9.2265625 4.37890625 C-8.6015625 2.44140625 -8.6015625 2.44140625 -5.8515625 0.56640625 C-2.6015625 -0.55859375 -2.6015625 -0.55859375 0 0 Z M-1.6015625 4.44140625 C-0.9415625 5.76140625 -0.2815625 7.08140625 0.3984375 8.44140625 C0.7284375 7.78140625 1.0584375 7.12140625 1.3984375 6.44140625 C1.0684375 5.78140625 0.7384375 5.12140625 0.3984375 4.44140625 C-0.2615625 4.44140625 -0.9215625 4.44140625 -1.6015625 4.44140625 Z M-0.6015625 12.44140625 C0.3984375 14.44140625 0.3984375 14.44140625 0.3984375 14.44140625 Z M12.3984375 21.44140625 C13.0584375 23.09140625 13.7184375 24.74140625 14.3984375 26.44140625 C14.7284375 25.45140625 15.0584375 24.46140625 15.3984375 23.44140625 C15.0684375 22.78140625 14.7384375 22.12140625 14.3984375 21.44140625 C13.7384375 21.44140625 13.0784375 21.44140625 12.3984375 21.44140625 Z M8.3984375 24.44140625 C7.7384375 25.10140625 7.0784375 25.76140625 6.3984375 26.44140625 C7.7184375 26.77140625 9.0384375 27.10140625 10.3984375 27.44140625 C10.0684375 26.45140625 9.7384375 25.46140625 9.3984375 24.44140625 C9.0684375 24.44140625 8.7384375 24.44140625 8.3984375 24.44140625 Z M12.3984375 41.44140625 C13.0584375 42.10140625 13.7184375 42.76140625 14.3984375 43.44140625 C14.3984375 42.78140625 14.3984375 42.12140625 14.3984375 41.44140625 C13.7384375 41.44140625 13.0784375 41.44140625 12.3984375 41.44140625 Z M15.3984375 44.44140625 C15.0684375 45.76140625 14.7384375 47.08140625 14.3984375 48.44140625 C16.3784375 47.78140625 18.3584375 47.12140625 20.3984375 46.44140625 C20.3984375 45.78140625 20.3984375 45.12140625 20.3984375 44.44140625 C18.7484375 44.44140625 17.0984375 44.44140625 15.3984375 44.44140625 Z " fill="#0066B3" transform="translate(244.6015625,70.55859375)"/>
<path d="M0 0 C1.875 1 1.875 1 3 3 C3.24131207 5.71878263 3.1347929 8.2592111 3 11 C-0.3 11 -3.6 11 -7 11 C-4.525 11.495 -4.525 11.495 -2 12 C-2.33 13.98 -2.66 15.96 -3 18 C-2.34 18 -1.68 18 -1 18 C-1 16.02 -1 14.04 -1 12 C0.32 12 1.64 12 3 12 C2.67 15.3 2.34 18.6 2 22 C-5.75 22.125 -5.75 22.125 -8 21 C-8 21.99 -8 22.98 -8 24 C-5.36 24.33 -2.72 24.66 0 25 C0.33 25.99 0.66 26.98 1 28 C0.34 28.66 -0.32 29.32 -1 30 C-3.72869407 29.96712417 -6.2966618 29.43602229 -9 29 C-9.33 29.66 -9.66 30.32 -10 31 C-7.36 31.33 -4.72 31.66 -2 32 C-0.84993909 35.37299744 -1.14800047 37.34853215 -2.3125 40.6875 C-2.57675781 41.47511719 -2.84101563 42.26273438 -3.11328125 43.07421875 C-4 45 -4 45 -6 46 C-6.35732124 47.66168903 -6.68619992 49.32954545 -7 51 C-8.05078125 53.640625 -8.05078125 53.640625 -9.3125 56.25 C-9.72113281 57.12140625 -10.12976563 57.9928125 -10.55078125 58.890625 C-12 61 -12 61 -13.87109375 61.94921875 C-16.76318545 62.01820442 -18.28905182 61.04630699 -20.75 59.5625 C-21.54921875 59.08941406 -22.3484375 58.61632812 -23.171875 58.12890625 C-23.77515625 57.75636719 -24.3784375 57.38382813 -25 57 C-24.34 55.68 -23.68 54.36 -23 53 C-18.545 54.98 -18.545 54.98 -14 57 C-13.67 55.68 -13.34 54.36 -13 53 C-16.465 51.02 -16.465 51.02 -20 49 C-19 45 -19 45 -18 41 C-16.02 40.505 -16.02 40.505 -14 40 C-14.54914063 39.21689453 -14.54914063 39.21689453 -15.109375 38.41796875 C-16.40044078 34.91283841 -15.36426378 32.84227395 -14.25 29.3125 C-12.27955308 22.77723875 -11.29729068 16.44597275 -10.86035156 9.63598633 C-10.57604153 6.25759612 -10.20340689 4.2675289 -8.12890625 1.5390625 C-5.23893983 -0.55019763 -3.48700567 -0.51934127 0 0 Z M-5 4 C-5.33 4.99 -5.66 5.98 -6 7 C-3.03 7.495 -3.03 7.495 0 8 C-0.33 6.68 -0.66 5.36 -1 4 C-2.32 4 -3.64 4 -5 4 Z " fill="#0066B3" transform="translate(277,159)"/>
<path d="M0 0 C1.25155719 0.71200793 2.48477175 1.45829585 3.6875 2.25 C4.698125 2.806875 5.70875 3.36375 6.75 3.9375 C13.38828278 9.16338219 19.86792815 15.77761857 21.6875 24.25 C22.88361021 35.6797942 22.85745649 46.53003758 15.62890625 55.92578125 C9.30756716 63.29179358 2.33013703 69.09455275 -7.54907227 70.58813477 C-19.6198663 71.46612825 -28.94392235 70.1473348 -38.640625 62.38671875 C-45.42389091 56.11847858 -50.18043046 48.46835457 -50.62109375 39.125 C-51.07785076 26.50838521 -49.39110892 17.5800702 -40.6875 7.875 C-29.76157238 -1.92348669 -13.99396615 -5.92964667 0 0 Z M-34.3125 6.25 C-34.92867187 6.63285156 -35.54484375 7.01570312 -36.1796875 7.41015625 C-42.05751651 11.65863888 -46.07707364 19.47226895 -48.3125 26.25 C-49.60286101 37.00753598 -47.6776461 46.55605387 -41.73828125 55.6640625 C-37.94796115 60.38208333 -33.13649405 64.36697719 -27.3125 66.25 C-23.99557691 65.97483146 -23.99557691 65.97483146 -21.3125 64.25 C-20.9825 65.57 -20.6525 66.89 -20.3125 68.25 C-18.3325 68.25 -16.3525 68.25 -14.3125 68.25 C-13.9825 65.28 -13.6525 62.31 -13.3125 59.25 C-14.9625 59.25 -16.6125 59.25 -18.3125 59.25 C-18.3125 58.59 -18.3125 57.93 -18.3125 57.25 C-15.3425 57.58 -12.3725 57.91 -9.3125 58.25 C-9.6425 59.24 -9.9725 60.23 -10.3125 61.25 C-8.9925 61.25 -7.6725 61.25 -6.3125 61.25 C-6.3125 62.24 -6.3125 63.23 -6.3125 64.25 C-7.9625 63.92 -9.6125 63.59 -11.3125 63.25 C-11.3125 64.9 -11.3125 66.55 -11.3125 68.25 C-9.0025 67.92 -6.6925 67.59 -4.3125 67.25 C-4.3125 64.94 -4.3125 62.63 -4.3125 60.25 C-3.6525 60.25 -2.9925 60.25 -2.3125 60.25 C-2.3125 61.9 -2.3125 63.55 -2.3125 65.25 C4.7796273 63.80262708 9.15038218 60.78218008 13.390625 54.87890625 C19.1301618 45.72629539 21.12953617 37.04850344 19.6875 26.25 C16.29176509 16.2795443 11.26149323 8.69604484 1.78125 3.7265625 C-11.24558337 -1.996391 -22.34030744 -1.38364571 -34.3125 6.25 Z " fill="#1772B9" transform="translate(174.3125,125.75)"/>
<path d="M0 0 C13.54808708 1.19366406 26.45741683 8.15995071 38 15 C38.66 14.34 39.32 13.68 40 13 C42.625 13.375 42.625 13.375 45 14 C45.144375 15.0725 45.28875 16.145 45.4375 17.25 C45.83749442 19.91662949 46.27591924 22.41399729 47 25 C46.278125 25.391875 45.55625 25.78375 44.8125 26.1875 C41.772674 28.14649898 39.47872273 30.37963597 37 33 C36.3125 30.75 36.3125 30.75 36 28 C37.4375 25.6875 37.4375 25.6875 39 24 C38.67 23.67 38.34 23.34 38 23 C37.071875 24.485 37.071875 24.485 36.125 26 C35.42375 26.99 34.7225 27.98 34 29 C33.34 29 32.68 29 32 29 C31.67 27.35 31.34 25.7 31 24 C30.01 23.67 29.02 23.34 28 23 C28 21.02 28 19.04 28 17 C28.66 16.67 29.32 16.34 30 16 C29.34 16 28.68 16 28 16 C27.01 18.31 26.02 20.62 25 23 C24.01 23 23.02 23 22 23 C20.515 19.535 20.515 19.535 19 16 C17.35 16.33 15.7 16.66 14 17 C12 14 12 14 12 10 C12.66 9.67 13.32 9.34 14 9 C13.01 8.67 12.02 8.34 11 8 C11 10.64 11 13.28 11 16 C8.69 15.67 6.38 15.34 4 15 C3.896875 14.360625 3.79375 13.72125 3.6875 13.0625 C3.460625 12.381875 3.23375 11.70125 3 11 C2.01 10.67 1.02 10.34 0 10 C-0.95929637 6.26940301 -0.84676067 3.73201925 0 0 Z M19 10 C18.67 10.66 18.34 11.32 18 12 C18.66 12 19.32 12 20 12 C19.67 11.34 19.34 10.68 19 10 Z M42 17 C43 19 43 19 43 19 Z " fill="#0066B3" transform="translate(187,46)"/>
<path d="M0 0 C0.66 0 1.32 0 2 0 C2 1.98 2 3.96 2 6 C3.65 6 5.3 6 7 6 C7.185625 6.639375 7.37125 7.27875 7.5625 7.9375 C8.94246056 10.42126213 8.94246056 10.42126213 12.625 10.75 C13.73875 10.8325 14.8525 10.915 16 11 C16 11.66 16 12.32 16 13 C14.35 13.33 12.7 13.66 11 14 C11.061875 14.78375 11.12375 15.5675 11.1875 16.375 C11.0946875 17.674375 11.0946875 17.674375 11 19 C10.01 19.66 9.02 20.32 8 21 C8.33 22.98 8.66 24.96 9 27 C6 26 6 26 4 24 C2.328451 24.30791692 0.66194453 24.64386903 -1 25 C-3.3125 24.5625 -3.3125 24.5625 -5 24 C-5.66 24.99 -6.32 25.98 -7 27 C-7.99 27 -8.98 27 -10 27 C-8.79618552 24.50638429 -7.54571278 22.31856917 -6 20 C-6.99 19.67 -7.98 19.34 -9 19 C-9.33 17.35 -9.66 15.7 -10 14 C-11.65 13.67 -13.3 13.34 -15 13 C-15 12.34 -15 11.68 -15 11 C-12.36 11.33 -9.72 11.66 -7 12 C-6.67 10.02 -6.34 8.04 -6 6 C-4.02 6 -2.04 6 0 6 C0 4.02 0 2.04 0 0 Z " fill="#237ABC" transform="translate(161,143)"/>
<path d="M0 0 C0.99 0.33 1.98 0.66 3 1 C3 1.66 3 2.32 3 3 C2.34 3 1.68 3 1 3 C1 3.66 1 4.32 1 5 C1.66 5.33 2.32 5.66 3 6 C3.4140625 8.06640625 3.4140625 8.06640625 3.625 10.5625 C3.69976562 11.38878906 3.77453125 12.21507812 3.8515625 13.06640625 C3.90054688 13.70449219 3.94953125 14.34257812 4 15 C3.34 15 2.68 15 2 15 C2 13.35 2 11.7 2 10 C1.34 10 0.68 10 0 10 C0 12.31 0 14.62 0 17 C-2.31 17.33 -4.62 17.66 -7 18 C-7 16.35 -7 14.7 -7 13 C-5.35 13.33 -3.7 13.66 -2 14 C-2 13.01 -2 12.02 -2 11 C-3.32 11 -4.64 11 -6 11 C-5.67 10.01 -5.34 9.02 -5 8 C-7.97 7.67 -10.94 7.34 -14 7 C-14 7.66 -14 8.32 -14 9 C-12.35 9 -10.7 9 -9 9 C-9.33 11.97 -9.66 14.94 -10 18 C-11.98 18 -13.96 18 -16 18 C-16.33 14.7 -16.66 11.4 -17 8 C-17.78375 7.87625 -18.5675 7.7525 -19.375 7.625 C-22 7 -22 7 -24 5 C-23.34 5 -22.68 5 -22 5 C-22.33 3.68 -22.66 2.36 -23 1 C-14.34297105 -2.40582173 -8.63867362 -3.81902753 0 0 Z " fill="#408CC5" transform="translate(170,176)"/>
<path d="M0 0 C0.99 0.33 1.98 0.66 3 1 C3 5.29 3 9.58 3 14 C1.68 14 0.36 14 -1 14 C-1 14.99 -1 15.98 -1 17 C0.65 17 2.3 17 4 17 C4.33820166 18.5823006 4.67035939 20.16589375 5 21.75 C5.185625 22.63171875 5.37125 23.5134375 5.5625 24.421875 C6 27 6 27 6 31 C2.04 31.495 2.04 31.495 -2 32 C-2.33 31.34 -2.66 30.68 -3 30 C-3 30.99 -3 31.98 -3 33 C-4.32 33 -5.64 33 -7 33 C-7.335939 31.5422647 -7.66866624 30.08378894 -8 28.625 C-8.185625 27.81289062 -8.37125 27.00078125 -8.5625 26.1640625 C-9.12730402 23.37029977 -9 20.88564806 -9 18 C-7.68 17.67 -6.36 17.34 -5 17 C-5 16.34 -5 15.68 -5 15 C-6.32 15.33 -7.64 15.66 -9 16 C-9.5625 14.0625 -9.5625 14.0625 -10 12 C-9 11 -9 11 -7.15234375 10.90234375 C-5.1015625 10.93489583 -3.05078125 10.96744792 -1 11 C-1 10.01 -1 9.02 -1 8 C-3.97 8 -6.94 8 -10 8 C-10 6.68 -10 5.36 -10 4 C-7.03 4 -4.06 4 -1 4 C-0.67 2.68 -0.34 1.36 0 0 Z M1 25 C2 29 2 29 2 29 Z " fill="#0066B3" transform="translate(50,158)"/>
<path d="M0 0 C3.5178753 5.27681295 2.47817921 11.86440188 2 18 C0.05577614 27.55148901 -6.62579017 34.51848606 -14.0625 40.4375 C-21.1866376 44.22693489 -26.89215638 45.48656148 -34.875 45.375 C-36.15503906 45.39240234 -36.15503906 45.39240234 -37.4609375 45.41015625 C-38.68296875 45.40435547 -38.68296875 45.40435547 -39.9296875 45.3984375 C-40.66429199 45.39505371 -41.39889648 45.39166992 -42.15576172 45.38818359 C-44 45 -44 45 -46 42 C-44.68 42 -43.36 42 -42 42 C-42 40.35 -42 38.7 -42 37 C-40 39 -40 39 -40 43 C-38.02 43 -36.04 43 -34 43 C-33.67 40.03 -33.34 37.06 -33 34 C-34.65 34 -36.3 34 -38 34 C-38 33.34 -38 32.68 -38 32 C-34.7 32 -31.4 32 -28 32 C-28.66 33.32 -29.32 34.64 -30 36 C-28.68 36 -27.36 36 -26 36 C-26 36.99 -26 37.98 -26 39 C-27.65 38.67 -29.3 38.34 -31 38 C-31 39.65 -31 41.3 -31 43 C-27.535 42.505 -27.535 42.505 -24 42 C-24 39.69 -24 37.38 -24 35 C-23.34 35 -22.68 35 -22 35 C-22 36.65 -22 38.3 -22 40 C-21.34 40 -20.68 40 -20 40 C-20 38.35 -20 36.7 -20 35 C-18.515 34.505 -18.515 34.505 -17 34 C-17 35.32 -17 36.64 -17 38 C-8.09817918 32.44201035 -3.4225163 25.18754624 -1 15 C-0.72433032 12.36033278 -0.51572333 9.71278937 -0.375 7.0625 C-0.33632812 6.37865234 -0.29765625 5.69480469 -0.2578125 4.99023438 C-0.16477588 3.32720487 -0.08136213 1.66364153 0 0 Z " fill="#1C76BA" transform="translate(194,151)"/>
<path d="M0 0 C0.99 0.33 1.98 0.66 3 1 C2.95359375 2.01320312 2.9071875 3.02640625 2.859375 4.0703125 C2.82183242 5.42184532 2.78543494 6.77341028 2.75 8.125 C2.71648437 8.79015625 2.68296875 9.4553125 2.6484375 10.140625 C2.54707628 15.31004735 3.93843421 17.93800129 7 22 C7 22.66 7 23.32 7 24 C7.66 24 8.32 24 9 24 C9.10853983 21.77191841 9.18583307 19.54230068 9.25 17.3125 C9.29640625 16.07113281 9.3428125 14.82976562 9.390625 13.55078125 C8.93631792 9.42112985 7.7053319 8.04083566 5 5 C5 4.01 5 3.02 5 2 C7 2 7 2 8.54296875 3.46875 C12.88947438 8.83735553 12.88947438 8.83735553 13.203125 12.13671875 C12.9375 14.1875 12.9375 14.1875 12 18 C11.66027297 19.66537516 11.32557271 21.33179998 11 23 C11.61746094 22.69964844 12.23492187 22.39929688 12.87109375 22.08984375 C19.8196893 18.96985032 24.88078856 18.1865524 32.1171875 20.75 C33.77083662 21.44068076 35.3903126 22.21228063 37 23 C37 18.71 37 14.42 37 10 C37.33 10 37.66 10 38 10 C38 14.62 38 19.24 38 24 C33.74377283 25.06405679 33.18037871 24.89963056 29.375 23.375 C24.2586682 21.68471557 21.08845493 22.35158295 16.12890625 24.23828125 C14 25 14 25 11 25 C11.33 26.32 11.66 27.64 12 29 C8.29152418 28.44454547 6.77973877 27.06788773 4.375 24.25 C3.78460938 23.57453125 3.19421875 22.8990625 2.5859375 22.203125 C-0.69891028 17.63993744 -1.25739985 13.88542408 -1.1875 8.3125 C-1.18105469 7.17425781 -1.17460937 6.03601563 -1.16796875 4.86328125 C-1 2 -1 2 0 0 Z " fill="#257BBD" transform="translate(136,152)"/>
<path d="M0 0 C0.99 0 1.98 0 3 0 C3 0.99 3 1.98 3 3 C4.093125 3.309375 5.18625 3.61875 6.3125 3.9375 C8.55407994 4.58337897 10.7869351 5.2623117 13 6 C13 6.66 13 7.32 13 8 C10.12458783 10.27358172 7.98232546 11.86293133 4.3125 12.375 C2 12 2 12 -1 10 C-1 10.66 -1 11.32 -1 12 C1.97 12.99 4.94 13.98 8 15 C7.67 15.99 7.34 16.98 7 18 C4.91587093 17.93976506 2.83255565 17.85091679 0.75 17.75 C-0.41015625 17.70359375 -1.5703125 17.6571875 -2.765625 17.609375 C-6.50265372 16.90529712 -7.71796885 15.98376955 -10 13 C-10.5625 10.5 -10.5625 10.5 -10 8 C-7.10852655 5.10852655 -4.87513102 3.96878275 -1 3 C-0.67 2.01 -0.34 1.02 0 0 Z M-4 6 C-4.66 7.32 -5.32 8.64 -6 10 C-5.01 10.495 -5.01 10.495 -4 11 C-3.67 9.35 -3.34 7.7 -3 6 C-3.33 6 -3.66 6 -4 6 Z " fill="#0066B3" transform="translate(54,109)"/>
<path d="M0 0 C8.07038123 -0.18768328 8.07038123 -0.18768328 11 1 C12.70004794 4.27866388 13.8348895 7.50466851 15 11 C13.68 10.67 12.36 10.34 11 10 C11 9.34 11 8.68 11 8 C10.34 8 9.68 8 9 8 C9 9.32 9 10.64 9 12 C7.68 11.67 6.36 11.34 5 11 C5.66 9.68 6.32 8.36 7 7 C7.66 7 8.32 7 9 7 C9 6.34 9 5.68 9 5 C8.21625 5.495 7.4325 5.99 6.625 6.5 C4 8 4 8 2 8 C2.7734375 9.1446875 2.7734375 9.1446875 3.5625 10.3125 C4.036875 11.199375 4.51125 12.08625 5 13 C4.67 13.99 4.34 14.98 4 16 C2.68 15.67 1.36 15.34 0 15 C0 14.01 0 13.02 0 12 C-1.32 12.33 -2.64 12.66 -4 13 C-2.7934375 14.1446875 -2.7934375 14.1446875 -1.5625 15.3125 C1 18 1 18 2 21 C0.68 21 -0.64 21 -2 21 C-2.33 22.32 -2.66 23.64 -3 25 C-6 24 -9 23 -12 22 C-12 21.01 -12 20.02 -12 19 C-6.25 17.875 -6.25 17.875 -4 19 C-4.95865509 16.66924071 -4.95865509 16.66924071 -8 15 C-3.64157559 10.40312076 0.74276241 6.54058858 6 3 C3.03 2.505 3.03 2.505 0 2 C0 1.34 0 0.68 0 0 Z " fill="#B3D1E8" transform="translate(114,95)"/>
<path d="M0 0 C6.77299898 -0.25939145 13.49710284 -0.12822089 20 2 C20.33 2.66 20.66 3.32 21 4 C20.34 4 19.68 4 19 4 C18.34 6.97 17.68 9.94 17 13 C16.34 13 15.68 13 15 13 C12.15549386 9.28026121 11.6772494 6.62609198 12 2 C11.01 2 10.02 2 9 2 C9.08378906 2.92683594 9.16757813 3.85367188 9.25390625 4.80859375 C9.35574219 6.00613281 9.45757812 7.20367187 9.5625 8.4375 C9.66691406 9.63246094 9.77132812 10.82742187 9.87890625 12.05859375 C9.91886719 13.02925781 9.95882812 13.99992187 10 15 C9 16 9 16 6.6875 16.3125 C3.23292134 15.91080481 2.19459651 14.60100327 0 12 C0.66 11.67 1.32 11.34 2 11 C2 11.66 2 12.32 2 13 C4.97 13.495 4.97 13.495 8 14 C7.236875 13.79375 6.47375 13.5875 5.6875 13.375 C2.14965056 11.5649375 1.43654975 9.62917831 0 6 C0 5.34 0 4.68 0 4 C0.66 4 1.32 4 2 4 C2 3.01 2 2.02 2 1 C1.34 0.67 0.68 0.34 0 0 Z " fill="#EEF5F9" transform="translate(160,87)"/>
<path d="M0 0 C0.66 0 1.32 0 2 0 C2.33 1.65 2.66 3.3 3 5 C4.98 5 6.96 5 9 5 C8.62875 5.886875 8.2575 6.77375 7.875 7.6875 C6.89215772 11.40826005 7.23937836 12.67438135 9 16 C6.03 15.505 6.03 15.505 3 15 C2.34 16.32 1.68 17.64 1 19 C0.34 19 -0.32 19 -1 19 C-1.33 17.35 -1.66 15.7 -2 14 C-3.98 14.33 -5.96 14.66 -8 15 C-8 12 -8 12 -6.875 10.0625 C-5.70751964 7.97761146 -5.70751964 7.97761146 -6.875 5.75 C-7.24625 5.1725 -7.6175 4.595 -8 4 C-6.02 4 -4.04 4 -2 4 C-1.34 2.68 -0.68 1.36 0 0 Z " fill="#0066B3" transform="translate(47,136)"/>
<path d="M0 0 C0.99 0 1.98 0 3 0 C3 1.65 3 3.3 3 5 C5.31 5 7.62 5 10 5 C10 7 10 7 8.5 8.625 C8.005 9.07875 7.51 9.5325 7 10 C7.99 11.485 7.99 11.485 9 13 C8.67 13.99 8.34 14.98 8 16 C5.525 15.01 5.525 15.01 3 14 C2.67 15.65 2.34 17.3 2 19 C1.01 19 0.02 19 -1 19 C-1.33 17.68 -1.66 16.36 -2 15 C-3.98 15 -5.96 15 -8 15 C-8 12 -8 12 -6.5 10.3125 C-6.005 9.879375 -5.51 9.44625 -5 9 C-5.66 8.01 -6.32 7.02 -7 6 C-6.67 5.01 -6.34 4.02 -6 3 C-3.525 3.99 -3.525 3.99 -1 5 C-0.67 3.35 -0.34 1.7 0 0 Z " fill="#0066B3" transform="translate(273,136)"/>
<path d="M0 0 C1.37478516 0.01740234 1.37478516 0.01740234 2.77734375 0.03515625 C3.69644531 0.04417969 4.61554688 0.05320313 5.5625 0.0625 C6.27277344 0.07410156 6.98304688 0.08570313 7.71484375 0.09765625 C9.3137386 4.14191968 10.35157805 6.95126269 8.71484375 11.09765625 C6.15234375 13.41015625 6.15234375 13.41015625 3.71484375 15.09765625 C0.25559212 13.84848205 -2.43208828 12.4223783 -5.28515625 10.09765625 C-4.97717299 8.61754254 -4.66363825 7.138583 -4.34765625 5.66015625 C-4.17363281 4.83644531 -3.99960938 4.01273438 -3.8203125 3.1640625 C-3.08291459 0.31673773 -2.98090927 0.12738928 0 0 Z " fill="#3483C1" transform="translate(159.28515625,150.90234375)"/>
<path d="M0 0 C0.99 0.33 1.98 0.66 3 1 C3 1.66 3 2.32 3 3 C-1.08904297 6.27442894 -4.95806629 6.45872215 -10 6.375 C-10.69867188 6.38660156 -11.39734375 6.39820313 -12.1171875 6.41015625 C-16.55351187 6.38504498 -19.50953442 5.79509939 -23 3 C-23 2.34 -23 1.68 -23 1 C-14.34297105 -2.40582173 -8.63867362 -3.81902753 0 0 Z " fill="#F3F7FB" transform="translate(170,176)"/>
<path d="M0 0 C2.5 0.25 2.5 0.25 4.5 2.25 C4.83 1.59 5.16 0.93 5.5 0.25 C6.49 0.25 7.48 0.25 8.5 0.25 C8.5 1.57 8.5 2.89 8.5 4.25 C9.82 4.25 11.14 4.25 12.5 4.25 C12.5 2.93 12.5 1.61 12.5 0.25 C13.16 0.25 13.82 0.25 14.5 0.25 C14.83 3.55 15.16 6.85 15.5 10.25 C14.84 10.25 14.18 10.25 13.5 10.25 C13.5 8.93 13.5 7.61 13.5 6.25 C11.85 6.25 10.2 6.25 8.5 6.25 C8.5 7.9 8.5 9.55 8.5 11.25 C7.18 11.25 5.86 11.25 4.5 11.25 C3.30375 11.29125 2.1075 11.3325 0.875 11.375 C-2.5 11.25 -2.5 11.25 -4.5 9.25 C-4.75 5.75 -4.75 5.75 -4.5 2.25 C-2.5 0.25 -2.5 0.25 0 0 Z " fill="#277CBD" transform="translate(156.5,222.75)"/>
<path d="M0 0 C3.14906415 1.41602213 5.49523672 3.13735082 8.0625 5.4375 C8.73410156 6.03433594 9.40570313 6.63117188 10.09765625 7.24609375 C11.7754479 8.79296942 13.40159243 10.37171566 15 12 C15.33 10.35 15.66 8.7 16 7 C16.66 7.33 17.32 7.66 18 8 C17.98700187 11.10005366 17.83167874 14.00382404 17 17 C14.125 18.9375 14.125 18.9375 11 20 C10.01 20.66 9.02 21.32 8 22 C7.67 18.7 7.34 15.4 7 12 C7.99 12 8.98 12 10 12 C9.67 11.34 9.34 10.68 9 10 C8.13375 10.433125 8.13375 10.433125 7.25 10.875 C5.16666667 11.91666667 3.08333333 12.95833333 1 14 C1.59927826 10.64404172 2.84622436 8.62198774 5 6 C4.01 5.34 3.02 4.68 2 4 C1.34 5.32 0.68 6.64 0 8 C-0.66 8 -1.32 8 -2 8 C-2 6.35 -2 4.7 -2 3 C-1.01 3.33 -0.02 3.66 1 4 C0.67 2.68 0.34 1.36 0 0 Z " fill="#D5E5F2" transform="translate(202,101)"/>
<path d="M0 0 C0 3.63 0 7.26 0 11 C-0.66 11 -1.32 11 -2 11 C-2 10.34 -2 9.68 -2 9 C-3.65 9 -5.3 9 -7 9 C-7.33 7.35 -7.66 5.7 -8 4 C-9.32 4 -10.64 4 -12 4 C-11.67 4.556875 -11.34 5.11375 -11 5.6875 C-9.8690399 8.30284522 -9.84337026 10.1806646 -10 13 C-13.11257569 13 -15.10765685 12.82638376 -18 12 C-18 10.68 -18 9.36 -18 8 C-17.01 7.67 -16.02 7.34 -15 7 C-16.98 7 -18.96 7 -21 7 C-21 6.34 -21 5.68 -21 5 C-19.12699975 4.34838988 -17.2514945 3.70397805 -15.375 3.0625 C-14.33085937 2.70285156 -13.28671875 2.34320313 -12.2109375 1.97265625 C-8.10990547 0.73037282 -4.28630864 0 0 0 Z " fill="#CBDFEF" transform="translate(152,87)"/>
<path d="M0 0 C1.68933922 1.6436814 3.35259924 3.3142876 5 5 C5.60457031 5.61359375 6.20914063 6.2271875 6.83203125 6.859375 C8.58702817 10.07589109 8.05367254 12.65485146 7.6875 16.25 C7.50767578 18.14492187 7.50767578 18.14492187 7.32421875 20.078125 C7.21722656 21.04234375 7.11023438 22.0065625 7 23 C5 23 5 23 3.7109375 21.77734375 C-1.18352134 15.03672938 -0.46454761 7.92827923 0 0 Z " fill="#F1F6FA" transform="translate(138,153)"/>
<path d="M0 0 C0.99 0.33 1.98 0.66 3 1 C2.95359375 2.01320312 2.9071875 3.02640625 2.859375 4.0703125 C2.82183242 5.42184532 2.78543494 6.77341028 2.75 8.125 C2.71648437 8.79015625 2.68296875 9.4553125 2.6484375 10.140625 C2.54707628 15.31004735 3.93843421 17.93800129 7 22 C7 22.66 7 23.32 7 24 C7.66 24 8.32 24 9 24 C9.33 23.34 9.66 22.68 10 22 C10 22.66 10 23.32 10 24 C10.66 24.33 11.32 24.66 12 25 C12 26.32 12 27.64 12 29 C8.29152418 28.44454547 6.77973877 27.06788773 4.375 24.25 C3.78460938 23.57453125 3.19421875 22.8990625 2.5859375 22.203125 C-0.69891028 17.63993744 -1.25739985 13.88542408 -1.1875 8.3125 C-1.18105469 7.17425781 -1.17460937 6.03601563 -1.16796875 4.86328125 C-1 2 -1 2 0 0 Z " fill="#247ABD" transform="translate(136,152)"/>
<path d="M0 0 C2.15502531 3.23253796 2.46856135 4.25150923 2 8 C0.8125 9.875 0.8125 9.875 -1 11 C-4.17011158 10.92074721 -5.55094611 10.41911696 -7.875 8.25 C-9 6 -9 6 -8.8125 3.3125 C-7.31032721 -0.96291486 -4.05252991 -0.33771083 0 0 Z " fill="#D4E5F1" transform="translate(193,217)"/>
<path d="M0 0 C3.3 0 6.6 0 10 0 C9.34 1.32 8.68 2.64 8 4 C9.32 4 10.64 4 12 4 C12 4.99 12 5.98 12 7 C9.525 6.505 9.525 6.505 7 6 C6.67 7.98 6.34 9.96 6 12 C6.66 12.33 7.32 12.66 8 13 C5.70890403 13.08075665 3.41700733 13.13907731 1.125 13.1875 C-0.15117187 13.22230469 -1.42734375 13.25710937 -2.7421875 13.29296875 C-3.81726563 13.19628906 -4.89234375 13.09960938 -6 13 C-6.66 12.01 -7.32 11.02 -8 10 C-6.68 10 -5.36 10 -4 10 C-4 8.35 -4 6.7 -4 5 C-2 7 -2 7 -2 11 C-0.02 11 1.96 11 4 11 C4.33 8.03 4.66 5.06 5 2 C3.35 2 1.7 2 0 2 C0 1.34 0 0.68 0 0 Z " fill="#0E6DB6" transform="translate(156,183)"/>
<path d="M0 0 C1.78701211 2.68051817 2.69012179 4.75630892 3.75 7.75 C6.91815295 15.72260468 11.30377297 20.02223422 18.75390625 24.15234375 C21.30549985 25.11529299 23.29472084 25.15689668 26 25 C26 25.66 26 26.32 26 27 C23.8046875 28.15234375 23.8046875 28.15234375 21 29 C11.73068457 25.67675669 4.30023566 17.76722277 -0.19921875 9.22265625 C-1.4454474 5.76361185 -0.96836878 3.50102557 0 0 Z " fill="#247ABD" transform="translate(126,166)"/>
<path d="M0 0 C-0.97776067 1.48009643 -1.9572494 2.95905144 -2.9375 4.4375 C-3.48277344 5.26121094 -4.02804688 6.08492187 -4.58984375 6.93359375 C-6 9 -6 9 -7 10 C-8.68183948 10.23287008 -10.3712416 10.41264166 -12.0625 10.5625 C-12.98160156 10.64628906 -13.90070313 10.73007813 -14.84765625 10.81640625 C-15.55792969 10.87699219 -16.26820313 10.93757812 -17 11 C-15.3286843 5.78158342 -12.83830815 4.00660902 -8.33203125 1.16015625 C-5.42273237 -0.2871834 -3.20142818 -0.49252741 0 0 Z " fill="#E9F2F8" transform="translate(158,138)"/>
<path d="M0 0 C1.134375 0.4125 2.26875 0.825 3.4375 1.25 C3.7675 2.24 4.0975 3.23 4.4375 4.25 C6.0875 4.25 7.7375 4.25 9.4375 4.25 C9.1075 7.22 8.7775 10.19 8.4375 13.25 C6.4575 13.25 4.4775 13.25 2.4375 13.25 C2.1075 9.95 1.7775 6.65 1.4375 3.25 C0.261875 3.064375 0.261875 3.064375 -0.9375 2.875 C-3.5625 2.25 -3.5625 2.25 -5.5625 0.25 C-3.5625 -0.75 -3.5625 -0.75 0 0 Z " fill="#1973B9" transform="translate(151.5625,180.75)"/>
<path d="M0 0 C3.625 0.1875 3.625 0.1875 6.625 2.1875 C6.295 4.4975 5.965 6.8075 5.625 9.1875 C1.995 8.8575 -1.635 8.5275 -5.375 8.1875 C-4.36380977 0.24243388 -4.36380977 0.24243388 0 0 Z " fill="#D7E7F3" transform="translate(226.375,170.8125)"/>
<path d="M0 0 C0.99 0.33 1.98 0.66 3 1 C2.979375 1.804375 2.95875 2.60875 2.9375 3.4375 C2.70366379 5.93354885 2.70366379 5.93354885 4 7 C4.33 5.68 4.66 4.36 5 3 C9.7517398 3.43197635 11.92000054 4.32769295 15 8 C14.34 8 13.68 8 13 8 C11.92474806 10.65228812 10.90543849 13.28368454 10 16 C9.34 16 8.68 16 8 16 C8.50712033 12.28111761 9.11608215 9.26545761 11 6 C9.68 6 8.36 6 7 6 C6.34 8.31 5.68 10.62 5 13 C4.34 13 3.68 13 3 13 C3 12.01 3 11.02 3 10 C1.68 9.34 0.36 8.68 -1 8 C-0.67 5.36 -0.34 2.72 0 0 Z " fill="#EBF3F8" transform="translate(182,90)"/>
<path d="M0 0 C5.54362725 0.51971505 10.81636839 3.40883826 14.40234375 7.6640625 C15.33615779 9.06644515 16.17886601 10.5288016 17 12 C16.67 12.66 16.34 13.32 16 14 C8.55051644 10.55575541 3.49578602 7.60961156 0 0 Z " fill="#E7F1F7" transform="translate(164,138)"/>
<path d="M0 0 C0.86105042 11.65288232 0.86105042 11.65288232 -2.4375 16.25 C-3.283125 17.1575 -4.12875 18.065 -5 19 C-5.33 19 -5.66 19 -6 19 C-6.86112584 6.10224849 -6.86112584 6.10224849 -3.5625 2.1875 C-1 0 -1 0 0 0 Z " fill="#F5F9FB" transform="translate(182,156)"/>
<path d="M0 0 C1.32 0 2.64 0 4 0 C4.33 1.65 4.66 3.3 5 5 C6.32 5 7.64 5 9 5 C9 5.99 9 6.98 9 8 C6.69 7.67 4.38 7.34 2 7 C2.66 8.65 3.32 10.3 4 12 C0.63408134 10.55746343 -1.51047079 8.66735273 -4 6 C-2.84826645 3.53199953 -1.95216435 1.95216435 0 0 Z " fill="#EBF2F8" transform="translate(205,204)"/>
<path d="M0 0 C1.37478516 0.01740234 1.37478516 0.01740234 2.77734375 0.03515625 C3.69644531 0.04417969 4.61554688 0.05320313 5.5625 0.0625 C6.27277344 0.07410156 6.98304688 0.08570313 7.71484375 0.09765625 C9.3137386 4.14191968 10.35157805 6.95126269 8.71484375 11.09765625 C6.15234375 13.41015625 6.15234375 13.41015625 3.71484375 15.09765625 C0.25559212 13.84848205 -2.43208828 12.4223783 -5.28515625 10.09765625 C-4.97717299 8.61754254 -4.66363825 7.138583 -4.34765625 5.66015625 C-4.17363281 4.83644531 -3.99960938 4.01273438 -3.8203125 3.1640625 C-3.08291459 0.31673773 -2.98090927 0.12738928 0 0 Z M-1.28515625 2.09765625 C-2.91386736 5.54498248 -2.91386736 5.54498248 -3.09765625 9.28515625 C-2.31479187 11.46237436 -2.31479187 11.46237436 0.71484375 13.09765625 C4.03724699 12.77351935 5.32260678 12.48989322 7.71484375 10.09765625 C7.61789259 5.75570689 7.61789259 5.75570689 5.71484375 2.09765625 C3.38186942 2.05672688 1.0477915 2.05523902 -1.28515625 2.09765625 Z " fill="#B0CFE7" transform="translate(159.28515625,150.90234375)"/>
<path d="M0 0 C0.33 0 0.66 0 1 0 C1 4.62 1 9.24 1 14 C-3.19815041 15.0495376 -4.02711432 14.89051321 -7.875 13.5 C-12.05555564 12.12700455 -14.66002978 12.04732361 -19 13 C-19.99 12.34 -20.98 11.68 -22 11 C-16.13606628 8.44392633 -10.84289246 8.66272973 -4.8671875 10.7421875 C-3.22127447 11.44186713 -1.60642269 12.21387826 0 13 C0 8.71 0 4.42 0 0 Z " fill="#3E8AC5" transform="translate(173,162)"/>
<path d="M0 0 C1.32 0 2.64 0 4 0 C4 0.66 4 1.32 4 2 C3.01 2 2.02 2 1 2 C1.33 3.65 1.66 5.3 2 7 C4.47266765 6.65555119 4.47266765 6.65555119 7 6 C7.33 5.34 7.66 4.68 8 4 C6.68 4.33 5.36 4.66 4 5 C4.66 3.68 5.32 2.36 6 1 C7.32 1.66 8.64 2.32 10 3 C9.25 7.75 9.25 7.75 7 10 C3.8695827 10.33302312 1.82101702 10.47671956 -0.9375 8.875 C-2.53943488 6.04805609 -1.79584319 4.05073223 -1 1 C-0.67 0.67 -0.34 0.34 0 0 Z " fill="#CCE0EF" transform="translate(213,194)"/>
<path d="M0 0 C0 0.66 0 1.32 0 2 C-1.32 2.33 -2.64 2.66 -4 3 C-3.67 3.66 -3.34 4.32 -3 5 C-0.97536745 5.65213292 -0.97536745 5.65213292 1 6 C1 6.66 1 7.32 1 8 C-2.50776784 9.60355101 -5.14354879 10.22036864 -9 10 C-9 9.34 -9 8.68 -9 8 C-8.34 7.67 -7.68 7.34 -7 7 C-6.67 6.01 -6.34 5.02 -6 4 C-7.65 4 -9.3 4 -11 4 C-11 3.34 -11 2.68 -11 2 C-7.17679443 0.57741188 -4.08718695 -0.24042276 0 0 Z " fill="#BED8EB" transform="translate(98,171)"/>
<path d="M0 0 C3.95820859 0.56545837 6.6659053 1.80902348 10 4 C9.125 8.75 9.125 8.75 8 11 C4.28111761 10.49287967 1.26545761 9.88391785 -2 8 C-2 7.34 -2 6.68 -2 6 C2.455 6.99 2.455 6.99 7 8 C6.27731765 4.7014861 6.27731765 4.7014861 2.9375 3.3125 C1.968125 2.879375 0.99875 2.44625 0 2 C0 1.34 0 0.68 0 0 Z " fill="#BFD8EB" transform="translate(218,184)"/>
<path d="M0 0 C0 0.99 0 1.98 0 3 C-0.66 3 -1.32 3 -2 3 C-2.433125 3.8971875 -2.433125 3.8971875 -2.875 4.8125 C-4 7 -4 7 -6 10 C-6.66 10 -7.32 10 -8 10 C-8 7.69 -8 5.38 -8 3 C-9.32 3 -10.64 3 -12 3 C-12 2.34 -12 1.68 -12 1 C-8.0186217 -0.3271261 -4.14954773 -0.06915913 0 0 Z " fill="#B1D0E7" transform="translate(106,192)"/>
<path d="M0 0 C0.33 1.98 0.66 3.96 1 6 C-0.65 4.68 -2.3 3.36 -4 2 C-3.67 3.65 -3.34 5.3 -3 7 C-3.66 7 -4.32 7 -5 7 C-5.33 6.01 -5.66 5.02 -6 4 C-6.66 3.67 -7.32 3.34 -8 3 C-7.67 5.31 -7.34 7.62 -7 10 C-7.66 10 -8.32 10 -9 10 C-9.66 7.36 -10.32 4.72 -11 2 C-3.57142857 -1.57142857 -3.57142857 -1.57142857 0 0 Z " fill="#CFE2F0" transform="translate(101,182)"/>
<path d="M0 0 C0.66 0 1.32 0 2 0 C2.33 2.31 2.66 4.62 3 7 C3.66 6.01 4.32 5.02 5 4 C5.66 4 6.32 4 7 4 C5.63055898 6.94956528 4.12169591 9.52468811 2 12 C1.34 12 0.68 12 0 12 C-0.33 10.02 -0.66 8.04 -1 6 C-1.99 7.485 -1.99 7.485 -3 9 C-3.66 9 -4.32 9 -5 9 C-4.42676569 5.13066838 -2.61046448 2.84777943 0 0 Z " fill="#ECF3F9" transform="translate(120,211)"/>
<path d="M0 0 C0.99 0 1.98 0 3 0 C3 1.98 3 3.96 3 6 C2.01 5.67 1.02 5.34 0 5 C-0.28875 5.598125 -0.5775 6.19625 -0.875 6.8125 C-2 9 -2 9 -4 12 C-4.66 12 -5.32 12 -6 12 C-6 16.62 -6 21.24 -6 26 C-6.33 26 -6.66 26 -7 26 C-7.13559675 23.43571485 -7.23433188 20.87864784 -7.3125 18.3125 C-7.35439453 17.59126953 -7.39628906 16.87003906 -7.43945312 16.12695312 C-7.53704654 11.8523616 -7.45074006 10.50664581 -4.48046875 7.16796875 C-3.66191406 6.45253906 -2.84335938 5.73710937 -2 5 C-2 4.01 -2 3.02 -2 2 C-1.34 2 -0.68 2 0 2 C0 1.34 0 0.68 0 0 Z M-9 26 C-7 27 -7 27 -7 27 Z " fill="#116EB6" transform="translate(181,150)"/>
<path d="M0 0 C0.78375 0.04125 1.5675 0.0825 2.375 0.125 C3.035 1.445 3.695 2.765 4.375 4.125 C1.405 3.63 1.405 3.63 -1.625 3.125 C-1.955 5.105 -2.285 7.085 -2.625 9.125 C-0.975 9.125 0.675 9.125 2.375 9.125 C2.375 8.465 2.375 7.805 2.375 7.125 C1.715 6.795 1.055 6.465 0.375 6.125 C1.695 6.125 3.015 6.125 4.375 6.125 C4.375 7.775 4.375 9.425 4.375 11.125 C1 11.25 1 11.25 -2.625 11.125 C-4.625 9.125 -4.625 9.125 -4.875 5.625 C-4.58138251 1.51435512 -4.25902123 0.20281053 0 0 Z " fill="#E6F0F7" transform="translate(156.625,222.875)"/>
<path d="M0 0 C2.69082872 0.17635452 5.32851446 0.61835921 8 1 C8.33 2.32 8.66 3.64 9 5 C6.59454362 6.20272819 5.05003047 6.10071472 2.375 6.0625 C1.14910156 6.04896484 1.14910156 6.04896484 -0.1015625 6.03515625 C-1.04128906 6.01775391 -1.04128906 6.01775391 -2 6 C-1.125 1.125 -1.125 1.125 0 0 Z " fill="#D7E7F3" transform="translate(106,158)"/>
<path d="M0 0 C0.763125 0.20625 1.52625 0.4125 2.3125 0.625 C3.19140625 6.77734375 3.19140625 6.77734375 3.3125 8.625 C2.3125 9.625 2.3125 9.625 0 9.9375 C-3.45457866 9.53580481 -4.49290349 8.22600327 -6.6875 5.625 C-6.0275 5.295 -5.3675 4.965 -4.6875 4.625 C-4.6875 5.285 -4.6875 5.945 -4.6875 6.625 C-1.7175 7.12 -1.7175 7.12 1.3125 7.625 C0.52875 7.3775 -0.255 7.13 -1.0625 6.875 C-4.01067108 5.47110901 -4.5899777 4.61824263 -5.6875 1.625 C-2.6875 -0.375 -2.6875 -0.375 0 0 Z " fill="#7DB1D8" transform="translate(166.6875,93.375)"/>
<path d="M0 0 C1.9375 0.1875 1.9375 0.1875 4 1 C5.25 3.0625 5.25 3.0625 6 5 C5.34 5 4.68 5 4 5 C4 4.34 4 3.68 4 3 C3.01 3 2.02 3 1 3 C1.515625 3.556875 2.03125 4.11375 2.5625 4.6875 C4 7 4 7 3.6875 9.75 C3.460625 10.4925 3.23375 11.235 3 12 C-1.75 11.25 -1.75 11.25 -4 9 C-4 8.01 -4 7.02 -4 6 C-3.34 6 -2.68 6 -2 6 C-1.67 6.99 -1.34 7.98 -1 9 C-0.01 9.33 0.98 9.66 2 10 C1.505 9.443125 1.01 8.88625 0.5 8.3125 C-1.25632099 5.60483847 -1.34229288 4.16620913 -1 1 C-0.67 0.67 -0.34 0.34 0 0 Z " fill="#D4E5F1" transform="translate(129,216)"/>
<path d="M0 0 C3 1 3 1 4.75 3.25 C6.19382368 6.42641209 6.08641745 7.74074766 5 11 C4 12 4 12 1.6875 12.4375 C-1 12 -1 12 -3.3125 9.125 C-5 6 -5 6 -5 4 C-1.53004599 5.15665134 -1.11443335 6.18075554 1 9 C1.99 9.33 2.98 9.66 4 10 C3.2884375 8.63875 3.2884375 8.63875 2.5625 7.25 C1.35371179 4.73572051 0.52006114 2.70431791 0 0 Z " fill="#D5E5F2" transform="translate(198,210)"/>
<path d="M0 0 C3.76687864 1.88343932 4.79421646 2.69132469 7 6 C6.38125 5.835 5.7625 5.67 5.125 5.5 C3.03936614 4.92365356 3.03936614 4.92365356 1 5 C1.66 6.32 2.32 7.64 3 9 C0.525 8.01 0.525 8.01 -2 7 C-1.34 8.98 -0.68 10.96 0 13 C-1.98 11.35 -3.96 9.7 -6 8 C-4.02 5.36 -2.04 2.72 0 0 Z " fill="#E1EDF5" transform="translate(113,204)"/>
<path d="M0 0 C2.64 0.33 5.28 0.66 8 1 C8 1.66 8 2.32 8 3 C6.35 3.33 4.7 3.66 3 4 C3.061875 4.78375 3.12375 5.5675 3.1875 6.375 C3.125625 7.24125 3.06375 8.1075 3 9 C2.01 9.66 1.02 10.32 0 11 C0.33 12.98 0.66 14.96 1 17 C-2 16 -2 16 -3.4375 14.375 C-4 12 -4 12 -2.125 8.5625 C-1.54878906 7.6653125 -1.54878906 7.6653125 -0.9609375 6.75 C0.30961763 4.43614351 0.313806 2.58889947 0 0 Z " fill="#2D80BF" transform="translate(169,153)"/>
<path d="M0 0 C0.99 0 1.98 0 3 0 C4.05404945 3.98196457 3.84098656 6.98195309 3 11 C0.40357204 10.65380961 -0.71331532 10.33654288 -2.4375 8.3125 C-3.28037694 4.84733923 -1.7537029 2.96780492 0 0 Z " fill="#DAE9F3" transform="translate(151,205)"/>
<path d="M0 0 C0.99 0 1.98 0 3 0 C2.67 3.3 2.34 6.6 2 10 C0.68 10 -0.64 10 -2 10 C-2.66 8.68 -3.32 7.36 -4 6 C-2.1875 3 -2.1875 3 0 0 Z " fill="#DCEAF4" transform="translate(143,203)"/>
<path d="M0 0 C0.66 0 1.32 0 2 0 C2 1.98 2 3.96 2 6 C2.99 6 3.98 6 5 6 C5 4.35 5 2.7 5 1 C5.33 1 5.66 1 6 1 C6 2.65 6 4.3 6 6 C6.99 6 7.98 6 9 6 C9 4.02 9 2.04 9 0 C9.66 0 10.32 0 11 0 C11 2.64 11 5.28 11 8 C7.37 8 3.74 8 0 8 C0 5.36 0 2.72 0 0 Z " fill="#D7E7F3" transform="translate(223,161)"/>
<path d="M0 0 C-0.33 2.31 -0.66 4.62 -1 7 C-3.64 7 -6.28 7 -9 7 C-9 5.68 -9 4.36 -9 3 C-3.375 0 -3.375 0 0 0 Z " fill="#DDEAF4" transform="translate(212,139)"/>
<path d="M0 0 C3.34097385 0.59660247 5.54300129 1.63075125 8 4 C8 5.32 8 6.64 8 8 C3.78087253 7.5205537 1.20336822 6.83374881 -2 4 C-1.34 2.68 -0.68 1.36 0 0 Z " fill="#DEEBF5" transform="translate(113,132)"/>
<path d="M0 0 C1.98 0 3.96 0 6 0 C7.61949011 2.57213134 8.04408751 3.67669159 7.625 6.75 C7.41875 7.4925 7.2125 8.235 7 9 C5.1875 8.875 5.1875 8.875 3 8 C0 2.96428571 0 2.96428571 0 0 Z " fill="#DFECF5" transform="translate(130,113)"/>
<path d="M0 0 C1.32 0.33 2.64 0.66 4 1 C4.8125 2.6875 4.8125 2.6875 5 5 C2.5625 7.75 2.5625 7.75 0 10 C-0.99 9.67 -1.98 9.34 -3 9 C-2.44271087 5.65626525 -1.64826111 2.96687001 0 0 Z " fill="#E1EDF6" transform="translate(184,112)"/>
<path d="M0 0 C1.99954746 -0.04254356 4.00041636 -0.04080783 6 0 C7 1 7 1 7.09765625 2.84765625 C7.06510417 4.8984375 7.03255208 6.94921875 7 9 C5.68 9 4.36 9 3 9 C2.01 6.03 1.02 3.06 0 0 Z " fill="#E0ECF5" transform="translate(138,109)"/>
<path d="M0 0 C1.32 0.33 2.64 0.66 4 1 C4 3.97 4 6.94 4 10 C2.35 9.67 0.7 9.34 -1 9 C-2.25541557 5.23375329 -1.37061958 3.62811066 0 0 Z " fill="#E4EFF7" transform="translate(159,206)"/>
<path d="M0 0 C0 1.32 0 2.64 0 4 C-3.96 5.98 -3.96 5.98 -8 8 C-9 7 -9 7 -9.0625 4.4375 C-9.041875 3.633125 -9.02125 2.82875 -9 2 C-5.86501708 0.14223235 -3.62528568 -0.20140476 0 0 Z " fill="#E1EDF6" transform="translate(121,183)"/>
<path d="M0 0 C3.3 0.33 6.6 0.66 10 1 C9 5 9 5 8 6 C5.66055264 5.71269945 3.3260857 5.38063221 1 5 C0.67 3.35 0.34 1.7 0 0 Z " fill="#E0ECF5" transform="translate(205,166)"/>
<path d="M0 0 C2.25 -0.3125 2.25 -0.3125 5 0 C7.375 2.3125 7.375 2.3125 9 5 C8.67 5.99 8.34 6.98 8 8 C4.12867972 7.42647107 1.91827204 5.51295648 -1 3 C-0.67 2.01 -0.34 1.02 0 0 Z " fill="#E3EEF6" transform="translate(117,125)"/>
<path d="M0 0 C2.09862498 2.89810116 2 4.28378861 2 8 C-2.24846075 7.52794881 -4.26819288 5.11122478 -7 2 C-7 1.34 -7 0.68 -7 0 C-4.25509788 -1.37245106 -2.87939419 -0.93580311 0 0 Z " fill="#E2EDF6" transform="translate(129,119)"/>
<path d="M0 0 C1.32 0.33 2.64 0.66 4 1 C4.25 3.3125 4.25 3.3125 4 6 C2.25 7.8125 2.25 7.8125 0 9 C-1.32 9 -2.64 9 -4 9 C-3.46930939 5.17902761 -2.50298434 2.93828597 0 0 Z " fill="#E3EEF6" transform="translate(192,117)"/>
<path d="M0 0 C3.82097239 0.53069061 6.06171403 1.49701566 9 4 C8.34 5.32 7.68 6.64 7 8 C5.68 8 4.36 8 3 8 C0.6875 5.6875 0.6875 5.6875 -1 3 C-0.67 2.01 -0.34 1.02 0 0 Z " fill="#E5EFF7" transform="translate(195,189)"/>
<path d="M0 0 C-0.54074373 3.78520613 -2.07572746 5.59177555 -5 8 C-5.99 8 -6.98 8 -8 8 C-8.33 6.02 -8.66 4.04 -9 2 C-5.62902617 0.50178941 -3.79557881 0 0 0 Z " fill="#E2EDF6" transform="translate(126,190)"/>
<path d="M0 0 C3.34373475 0.55728913 6.03312999 1.35173889 9 3 C9 3.99 9 4.98 9 6 C7.35 6.66 5.7 7.32 4 8 C2.35 6.35 0.7 4.7 -1 3 C-0.67 2.01 -0.34 1.02 0 0 Z " fill="#E6F0F7" transform="translate(200,182)"/>
<path d="M0 0 C6.625 0.75 6.625 0.75 10 3 C9.34 4.32 8.68 5.64 8 7 C4.62537285 6.45276317 2.91765 5.9451 0 4 C0 2.68 0 1.36 0 0 Z " fill="#E3EEF6" transform="translate(203,174)"/>
<path d="M0 0 C0 1.65 0 3.3 0 5 C-2.97 5.66 -5.94 6.32 -9 7 C-8.8125 4.6875 -8.8125 4.6875 -8 2 C-3.84375 -1.28125 -3.84375 -1.28125 0 0 Z " fill="#E3EEF6" transform="translate(208,132)"/>
<path d="M0 0 C2.16874252 0.50603992 3.99967627 0.99983813 6 2 C5.67 4.31 5.34 6.62 5 9 C3.0625 9.5625 3.0625 9.5625 1 10 C0 9 0 9 -0.09765625 6.93359375 C-0.08605469 6.10988281 -0.07445312 5.28617187 -0.0625 4.4375 C-0.05347656 3.61121094 -0.04445312 2.78492187 -0.03515625 1.93359375 C-0.02355469 1.29550781 -0.01195312 0.65742187 0 0 Z " fill="#E4EFF7" transform="translate(157,105)"/>
<path d="M0 0 C0.66 0 1.32 0 2 0 C1.125 4.75 1.125 4.75 0 7 C3.465 6.505 3.465 6.505 7 6 C7 6.66 7 7.32 7 8 C1.555 9.485 1.555 9.485 -4 11 C-4 5.95749572 -2.59750368 4.22094347 0 0 Z " fill="#D3E4F1" transform="translate(106,196)"/>
<path d="M0 0 C3.82524236 1.450954 5.19090966 3.38181932 7 7 C7 7.66 7 8.32 7 9 C5.02 9 3.04 9 1 9 C-1.09230769 4.56923077 -1.09230769 4.56923077 -0.625 1.6875 C-0.41875 1.130625 -0.2125 0.57375 0 0 Z " fill="#E7F0F7" transform="translate(183,199)"/>
<path d="M0 0 C1.23556641 0.01740234 1.23556641 0.01740234 2.49609375 0.03515625 C3.32238281 0.04417969 4.14867188 0.05320313 5 0.0625 C5.63808594 0.07410156 6.27617188 0.08570313 6.93359375 0.09765625 C6.60359375 1.41765625 6.27359375 2.73765625 5.93359375 4.09765625 C2.96359375 4.75765625 -0.00640625 5.41765625 -3.06640625 6.09765625 C-3.10912725 4.4315372 -3.10704457 2.7638274 -3.06640625 1.09765625 C-2.06640625 0.09765625 -2.06640625 0.09765625 0 0 Z " fill="#E5EFF7" transform="translate(111.06640625,175.90234375)"/>
<path d="M0 0 C2.05078125 0.03255208 4.1015625 0.06510417 6.15234375 0.09765625 C5.82234375 1.74765625 5.49234375 3.39765625 5.15234375 5.09765625 C2.51234375 5.42765625 -0.12765625 5.75765625 -2.84765625 6.09765625 C-2.89037725 4.4315372 -2.88829457 2.7638274 -2.84765625 1.09765625 C-1.84765625 0.09765625 -1.84765625 0.09765625 0 0 Z " fill="#E5EFF7" transform="translate(108.84765625,166.90234375)"/>
<path d="M0 0 C4.75 1.875 4.75 1.875 7 3 C7 4.32 7 5.64 7 7 C-0.75 6.125 -0.75 6.125 -3 5 C-1.125 1.125 -1.125 1.125 0 0 Z " fill="#E8F1F8" transform="translate(110,140)"/>
<path d="M0 0 C4 1 4 1 5.25 2.8125 C6 5 6 5 6 9 C4.02 9 2.04 9 0 9 C0 6.03 0 3.06 0 0 Z " fill="#E8F1F8" transform="translate(175,203)"/>
<path d="M0 0 C-0.56545837 3.95820859 -1.80902348 6.6659053 -4 10 C-6 8.6875 -6 8.6875 -8 7 C-8 4 -8 4 -6.25 1.8125 C-4 0 -4 0 0 0 Z " fill="#E8F1F8" transform="translate(139,200)"/>
<path d="M0 0 C3.67420866 0.30618405 4.78135513 0.75771784 7.3125 3.5625 C8.1478125 4.7690625 8.1478125 4.7690625 9 6 C7 8 7 8 4.375 8.125 C3.59125 8.08375 2.8075 8.0425 2 8 C0.74335022 5.09399739 0 3.20395416 0 0 Z " fill="#E9F1F8" transform="translate(189,195)"/>
<path d="M0 0 C2.97 0 5.94 0 9 0 C8.67 1.65 8.34 3.3 8 5 C1.25 5.125 1.25 5.125 -1 4 C-0.67 2.68 -0.34 1.36 0 0 Z " fill="#E9F1F8" transform="translate(206,158)"/>
<path d="M0 0 C1.32 0.66 2.64 1.32 4 2 C4 6.21174952 3.80255323 7.0936485 1 10 C0.01 10 -0.98 10 -2 10 C-1.85950482 8.52031676 -1.71245174 7.04125484 -1.5625 5.5625 C-1.48128906 4.73878906 -1.40007812 3.91507812 -1.31640625 3.06640625 C-1 1 -1 1 0 0 Z " fill="#EAF2F8" transform="translate(176,108)"/>
<path d="M0 0 C2.475 0.495 2.475 0.495 5 1 C5.6875 2.6875 5.6875 2.6875 6 5 C4.75 7.75 4.75 7.75 3 10 C2.01 10 1.02 10 0 10 C0 6.7 0 3.4 0 0 Z " fill="#E8F1F8" transform="translate(166,106)"/>
<path d="M0 0 C0.99 0.33 1.98 0.66 3 1 C2.52797514 5.24822374 0.03344482 7.19989709 -3 10 C-5 7 -5 7 -4.875 5 C-3.73067259 2.3843945 -2.47609963 1.38370273 0 0 Z " fill="#EDF4F9" transform="translate(129,195)"/>
<path d="M0 0 C2.05078125 0.03255208 4.1015625 0.06510417 6.15234375 0.09765625 C5.82234375 1.74765625 5.49234375 3.39765625 5.15234375 5.09765625 C2.51234375 5.09765625 -0.12765625 5.09765625 -2.84765625 5.09765625 C-2.84765625 0.15051037 -2.84765625 0.15051037 0 0 Z " fill="#EAF2F8" transform="translate(207.84765625,148.90234375)"/>
<path d="M0 0 C3.40667322 0.44824648 5.07914607 1.05276405 8 3 C8 3.99 8 4.98 8 6 C1.375 6.125 1.375 6.125 -2 5 C-1.125 1.125 -1.125 1.125 0 0 Z " fill="#ECF3F9" transform="translate(107,149)"/>
<path d="M0 0 C1.22589844 0.15275391 1.22589844 0.15275391 2.4765625 0.30859375 C3.41628906 0.43427734 3.41628906 0.43427734 4.375 0.5625 C3.715 2.5425 3.055 4.5225 2.375 6.5625 C-0.625 5.5625 -3.625 4.5625 -6.625 3.5625 C-6.625 2.5725 -6.625 1.5825 -6.625 0.5625 C-4.10446405 -0.69776798 -2.7707902 -0.35624445 0 0 Z " fill="#BED8EB" transform="translate(108.625,113.4375)"/>
<path d="M0 0 C1.66666667 3.33333333 3.33333333 6.66666667 5 10 C3.68 9.67 2.36 9.34 1 9 C1 8.34 1 7.68 1 7 C0.34 7 -0.32 7 -1 7 C-1 8.32 -1 9.64 -1 11 C-2.32 10.67 -3.64 10.34 -5 10 C-4.34 8.68 -3.68 7.36 -3 6 C-2.34 6 -1.68 6 -1 6 C-1.33 4.35 -1.66 2.7 -2 1 C-1.34 0.67 -0.68 0.34 0 0 Z " fill="#E3EEF6" transform="translate(124,96)"/>
<path d="M0 0 C-0.99 0.495 -0.99 0.495 -2 1 C-2.68729254 3.11846285 -2.68729254 3.11846285 -3.125 5.5625 C-3.29257813 6.38878906 -3.46015625 7.21507813 -3.6328125 8.06640625 C-3.75398437 8.70449219 -3.87515625 9.34257813 -4 10 C-4.66 10 -5.32 10 -6 10 C-6.99 8.02 -7.98 6.04 -9 4 C-8.34 4 -7.68 4 -7 4 C-6.896875 3.360625 -6.79375 2.72125 -6.6875 2.0625 C-6.460625 1.381875 -6.23375 0.70125 -6 0 C-3 -1 -3 -1 0 0 Z " fill="#D8E7F3" transform="translate(181,90)"/>
<path d="M0 0 C0.66 0 1.32 0 2 0 C2.33 3.3 2.66 6.6 3 10 C2.34 10 1.68 10 1 10 C1 8.68 1 7.36 1 6 C-0.65 6 -2.3 6 -4 6 C-4 7.65 -4 9.3 -4 11 C-4.66 11 -5.32 11 -6 11 C-6 7.7 -6 4.4 -6 1 C-5.34 1.66 -4.68 2.32 -4 3 C-1.93125966 3.6425235 -1.93125966 3.6425235 0 4 C0 2.68 0 1.36 0 0 Z " fill="#E3EEF6" transform="translate(169,223)"/>
<path d="M0 0 C-1.66666667 1.66666667 -3.33333333 3.33333333 -5 5 C-3.68 4.67 -2.36 4.34 -1 4 C-1.66 5.32 -2.32 6.64 -3 8 C-4.65 7.67 -6.3 7.34 -8 7 C-8 5.35 -8 3.7 -8 2 C-7.01 2 -6.02 2 -5 2 C-5 1.34 -5 0.68 -5 0 C-5.99 -0.33 -6.98 -0.66 -8 -1 C-4.37673261 -2.2077558 -3.35853631 -1.54311128 0 0 Z " fill="#297EBE" transform="translate(222,194)"/>
<path d="M0 0 C0.66 0 1.32 0 2 0 C2 1.98 2 3.96 2 6 C3.65 6 5.3 6 7 6 C9.125 11.625 9.125 11.625 8 15 C6.5393715 12.35261084 6 11.10551666 6 8 C2.37 8 -1.26 8 -5 8 C-5 7.67 -5 7.34 -5 7 C-3.35 7 -1.7 7 0 7 C0 4.69 0 2.38 0 0 Z " fill="#1470B8" transform="translate(161,143)"/>
<path d="M0 0 C5 5 5 5 6.40625 6.53125 C8.21494875 8.19809003 9.97041092 9.13347405 12.1875 10.1875 C13.26064453 10.70376953 13.26064453 10.70376953 14.35546875 11.23046875 C14.89816406 11.48441406 15.44085938 11.73835937 16 12 C15.34 12.66 14.68 13.32 14 14 C2.81016638 8.98165859 2.81016638 8.98165859 0 4 C0 2.68 0 1.36 0 0 Z " fill="#267BBD" transform="translate(164,139)"/>
<path d="M0 0 C0.66 0.33 1.32 0.66 2 1 C2.3125 3.3125 2.3125 3.3125 2 6 C-0.3125 7.875 -0.3125 7.875 -3 9 C-3.99 8.67 -4.98 8.34 -6 8 C-5.65120368 4.74456771 -4.97866739 3.98126893 -2.4375 1.75 C-1.633125 1.1725 -0.82875 0.595 0 0 Z " fill="#EEF4F9" transform="translate(200,123)"/>
<path d="M0 0 C0.33 0 0.66 0 1 0 C1 1.65 1 3.3 1 5 C2.32 3.68 3.64 2.36 5 1 C6.32 1.66 7.64 2.32 9 3 C8.071875 4.1446875 8.071875 4.1446875 7.125 5.3125 C4.94402948 7.99625809 4.94402948 7.99625809 3 11 C3 10.34 3 9.68 3 9 C2.01 8.67 1.02 8.34 0 8 C0 5.36 0 2.72 0 0 Z " fill="#3384C1" transform="translate(199,104)"/>
<path d="M0 0 C1.32 0.33 2.64 0.66 4 1 C4.33 3.97 4.66 6.94 5 10 C3.35 9.67 1.7 9.34 0 9 C0 6.03 0 3.06 0 0 Z " fill="#F0F6FA" transform="translate(167,205)"/>
<path d="M0 0 C3.40652614 1.13550871 4.49523872 2.49523872 7 5 C8.63978318 6.04349839 10.30094366 7.05607981 12 8 C11.67 8.66 11.34 9.32 11 10 C9.35 10 7.7 10 6 10 C5.62875 9.0409375 5.62875 9.0409375 5.25 8.0625 C4.18437567 5.81258459 4.18437567 5.81258459 1.875 5.25 C1.25625 5.1675 0.6375 5.085 0 5 C0 3.35 0 1.7 0 0 Z " fill="#EFF5FA" transform="translate(164,144)"/>
<path d="M0 0 C0.66 0 1.32 0 2 0 C1.34 2.97 0.68 5.94 0 9 C1.65 9 3.3 9 5 9 C5 9.99 5 10.98 5 12 C-0.75 11.125 -0.75 11.125 -3 10 C-2.49287967 6.28111761 -1.88391785 3.26545761 0 0 Z " fill="#BDD7EB" transform="translate(140,221)"/>
<path d="M0 0 C0.99 0.33 1.98 0.66 3 1 C2.67 1.66 2.34 2.32 2 3 C0.7315625 2.87625 0.7315625 2.87625 -0.5625 2.75 C-5.03634062 3.07537023 -7.24893952 4.59932129 -11 7 C-11.66 6.34 -12.32 5.68 -13 5 C-4.90950226 -1.74208145 -4.90950226 -1.74208145 0 0 Z " fill="#2C7FBF" transform="translate(156,136)"/>
<path d="M0 0 C1.65 0 3.3 0 5 0 C5 2.97 5 5.94 5 9 C3.68 8.67 2.36 8.34 1 8 C0.67 5.36 0.34 2.72 0 0 Z " fill="#F5F8FB" transform="translate(148,107)"/>
<path d="M0 0 C0.99 0 1.98 0 3 0 C4 3 4 3 3.9375 5.4375 C4.00471291 8.19322942 4.61086976 9.65584273 6 12 C4.68 11.67 3.36 11.34 2 11 C2 10.01 2 9.02 2 8 C1.34 8 0.68 8 0 8 C-0.33 8.99 -0.66 9.98 -1 11 C-1.75 9.375 -1.75 9.375 -2 7 C-0.0625 3.75 -0.0625 3.75 2 1 C1.34 0.67 0.68 0.34 0 0 Z " fill="#3484C2" transform="translate(125,214)"/>
<path d="M0 0 C2.65262287 0.51011978 4.52040187 1.2768095 6.9375 2.5625 C9.99084508 3.99570279 11.692864 4.29180612 15 4 C15 4.66 15 5.32 15 6 C12.83203125 7.171875 12.83203125 7.171875 10 8 C7.32421875 6.953125 7.32421875 6.953125 4.6875 5.25 C3.36298828 4.42242187 3.36298828 4.42242187 2.01171875 3.578125 C1.34785156 3.05734375 0.68398437 2.5365625 0 2 C0 1.34 0 0.68 0 0 Z " fill="#2D80BF" transform="translate(137,187)"/>
<path d="M0 0 C1.9375 0.8125 1.9375 0.8125 4 2 C5.09658936 5.28976808 4.79953138 6.71303767 4 10 C3.67 10 3.34 10 3 10 C3 8.02 3 6.04 3 4 C2.34 4 1.68 4 1 4 C1 5.98 1 7.96 1 10 C0.67 10 0.34 10 0 10 C-0.33 8.35 -0.66 6.7 -1 5 C-2.98 5.99 -2.98 5.99 -5 7 C-3.35 4.69 -1.7 2.38 0 0 Z " fill="#D2E4F1" transform="translate(160,139)"/>
<path d="M0 0 C0.90492188 0.02320313 1.80984375 0.04640625 2.7421875 0.0703125 C4.10730469 0.09738281 4.10730469 0.09738281 5.5 0.125 C6.19867188 0.14820313 6.89734375 0.17140625 7.6171875 0.1953125 C7.9471875 0.8553125 8.2771875 1.5153125 8.6171875 2.1953125 C7.2971875 2.1953125 5.9771875 2.1953125 4.6171875 2.1953125 C4.9471875 3.5153125 5.2771875 4.8353125 5.6171875 6.1953125 C4.9984375 6.0096875 4.3796875 5.8240625 3.7421875 5.6328125 C1.57558572 4.95845074 1.57558572 4.95845074 -0.3828125 6.1953125 C-0.0528125 4.8753125 0.2771875 3.5553125 0.6171875 2.1953125 C-1.0328125 2.1953125 -2.6828125 2.1953125 -4.3828125 2.1953125 C-2.3828125 0.1953125 -2.3828125 0.1953125 0 0 Z " fill="#0869B4" transform="translate(158.3828125,134.8046875)"/>
<path d="M0 0 C0 0.66 0 1.32 0 2 C-0.66 2 -1.32 2 -2 2 C-1.67 4.97 -1.34 7.94 -1 11 C-1.66 11 -2.32 11 -3 11 C-3.268125 9.865625 -3.53625 8.73125 -3.8125 7.5625 C-4.204375 6.386875 -4.59625 5.21125 -5 4 C-5.99 3.67 -6.98 3.34 -8 3 C-8 2.34 -8 1.68 -8 1 C-5.10765685 0.17361624 -3.11257569 0 0 0 Z " fill="#D5E6F2" transform="translate(180,221)"/>
<path d="M0 0 C2.475 0.495 2.475 0.495 5 1 C5.33 2.65 5.66 4.3 6 6 C4.125 6.625 4.125 6.625 2 7 C0 5 0 5 -0.125 2.375 C-0.08375 1.59125 -0.0425 0.8075 0 0 Z " fill="#1873B9" transform="translate(187,219)"/>
<path d="M0 0 C2.4375 1.1875 2.4375 1.1875 3.4375 3.1875 C2.7775 3.1875 2.1175 3.1875 1.4375 3.1875 C0.36224806 5.83978812 -0.65706151 8.47118454 -1.5625 11.1875 C-2.2225 11.1875 -2.8825 11.1875 -3.5625 11.1875 C-3.05537967 7.46861761 -2.44641785 4.45295761 -0.5625 1.1875 C-1.8825 0.8575 -3.2025 0.5275 -4.5625 0.1875 C-2.5625 -0.8125 -2.5625 -0.8125 0 0 Z " fill="#D6E6F2" transform="translate(193.5625,94.8125)"/>
<path d="M0 0 C1.65 0.33 3.3 0.66 5 1 C5 3.31 5 5.62 5 8 C3.02 8.33 1.04 8.66 -1 9 C-1 7.35 -1 5.7 -1 4 C1.475 4.495 1.475 4.495 4 5 C4 4.01 4 3.02 4 2 C2.68 2 1.36 2 0 2 C0 1.34 0 0.68 0 0 Z " fill="#E0ECF5" transform="translate(164,185)"/>
<path d="M0 0 C1.32 0 2.64 0 4 0 C4 0.66 4 1.32 4 2 C3.01 2.66 2.02 3.32 1 4 C1.99 4 2.98 4 4 4 C4 5.32 4 6.64 4 8 C2.02 8 0.04 8 -2 8 C-1.125 1.125 -1.125 1.125 0 0 Z " fill="#CEE1F0" transform="translate(156,186)"/>
<path d="M0 0 C3.3 0 6.6 0 10 0 C12.42857143 6.28571429 12.42857143 6.28571429 11 10 C10.01 7.69 9.02 5.38 8 3 C5.36 3 2.72 3 0 3 C0 2.01 0 1.02 0 0 Z " fill="#C8DDEE" transform="translate(157,151)"/>
<path d="M0 0 C0.65234375 1.76171875 0.65234375 1.76171875 1 4 C-0.40816894 6.95185204 -2.33858218 9.10913641 -5 11 C-8.02418079 11.31377904 -9.99676279 10.77669928 -13 10 C-13 9.67 -13 9.34 -13 9 C-11.96875 9 -10.9375 9 -9.875 9 C-7.12245391 8.64682199 -6.16715081 8.1715018 -4.19921875 6.15234375 C-2.71523275 4.14418131 -1.31840746 2.12007646 0 0 Z " fill="#2A7EBE" transform="translate(157,139)"/>
<path d="M0 0 C0.33 0 0.66 0 1 0 C1 4.95 1 9.9 1 15 C-2 13 -2 13 -2.51171875 10.6171875 C-2.56972656 9.71226562 -2.62773437 8.80734375 -2.6875 7.875 C-2.75324219 6.96492187 -2.81898438 6.05484375 -2.88671875 5.1171875 C-2.92410156 4.41851562 -2.96148437 3.71984375 -3 3 C-2.34 3 -1.68 3 -1 3 C-0.67 2.01 -0.34 1.02 0 0 Z " fill="#3C8AC4" transform="translate(184,152)"/>
<path d="M0 0 C2.0625 0.4375 2.0625 0.4375 4 1 C2.50902342 4.7952131 0.24299151 6.61042731 -3 9 C-3.66 7.68 -4.32 6.36 -5 5 C-4 4 -4 4 -1.4375 3.9375 C-0.2309375 3.9684375 -0.2309375 3.9684375 1 4 C1 3.34 1 2.68 1 2 C0.34 1.67 -0.32 1.34 -1 1 C-0.67 0.67 -0.34 0.34 0 0 Z " fill="#D9E8F3" transform="translate(176,152)"/>
<path d="M0 0 C3.3 0 6.6 0 10 0 C9.01 0.66 8.02 1.32 7 2 C7 2.99 7 3.98 7 5 C4.69 5.33 2.38 5.66 0 6 C0 5.34 0 4.68 0 4 C0.66 4 1.32 4 2 4 C2 3.01 2 2.02 2 1 C1.34 0.67 0.68 0.34 0 0 Z " fill="#AECEE6" transform="translate(160,87)"/>
<path d="M0 0 C2 2 2 2 2 6 C3.98 6 5.96 6 8 6 C4.61242079 8.08466413 1.94726562 8.42905061 -2 8 C-2.66 7.01 -3.32 6.02 -4 5 C-2.68 5 -1.36 5 0 5 C0 3.35 0 1.7 0 0 Z " fill="#1873B9" transform="translate(152,188)"/>
<path d="M0 0 C0.66 0 1.32 0 2 0 C3.54296875 1.609375 3.54296875 1.609375 5.1875 3.75 C5.73792969 4.44609375 6.28835937 5.1421875 6.85546875 5.859375 C8 8 8 8 7.80078125 10.203125 C7 12 7 12 5 13 C4.731875 12.0925 4.46375 11.185 4.1875 10.25 C3.09324505 7.25519697 1.89204417 5.49405822 0 3 C0 2.01 0 1.02 0 0 Z " fill="#3484C2" transform="translate(141,154)"/>
<path d="M0 0 C0.66 0.33 1.32 0.66 2 1 C1.39053099 4.55523589 0.58244911 7.74718795 -1 11 C-1.99 11.66 -2.98 12.32 -4 13 C-3.50269348 8.02693484 -2.44697666 4.36200187 0 0 Z " fill="#2C7FBF" transform="translate(128,141)"/>
<path d="M0 0 C2.32240046 2.85021875 3.93906527 5.46355091 5 9 C4.625 11.3125 4.625 11.3125 4 13 C2.98648336 11.34151823 1.98879205 9.67334039 1 8 C0.5875 7.319375 0.175 6.63875 -0.25 5.9375 C-1.1709445 3.55839337 -0.8440534 2.36334952 0 0 Z " fill="#2B7FBF" transform="translate(191,141)"/>
<path d="M0 0 C1.65 0 3.3 0 5 0 C5.33 1.32 5.66 2.64 6 4 C4.02 4.99 4.02 4.99 2 6 C1.34 5.34 0.68 4.68 0 4 C0 2.68 0 1.36 0 0 Z " fill="#E6F0F7" transform="translate(159,156)"/>
<path d="M0 0 C2 1 2 1 2.9375 2.9375 C3.95345922 5.31971493 3.95345922 5.31971493 7 7 C7 7.66 7 8.32 7 9 C6.01 9 5.02 9 4 9 C4 8.34 4 7.68 4 7 C3.01 7 2.02 7 1 7 C0.67 6.34 0.34 5.68 0 5 C-0.99 4.34 -1.98 3.68 -3 3 C-2.01 2.01 -1.02 1.02 0 0 Z " fill="#E5EFF7" transform="translate(109,107)"/>
<path d="M0 0 C1.98 0.66 3.96 1.32 6 2 C6 2.66 6 3.32 6 4 C2.49223216 5.60355101 -0.14354879 6.22036864 -4 6 C-4 5.34 -4 4.68 -4 4 C-2.68 4 -1.36 4 0 4 C0 2.68 0 1.36 0 0 Z " fill="#D2E4F1" transform="translate(93,175)"/>
<path d="M0 0 C1.32 0 2.64 0 4 0 C3.30058404 3.14737182 2.23921302 6.02588876 1 9 C0.01 8.34 -0.98 7.68 -2 7 C-1.34 4.69 -0.68 2.38 0 0 Z " fill="#297DBE" transform="translate(189,96)"/>
<path d="M0 0 C2.31 0 4.62 0 7 0 C6.01 0.495 6.01 0.495 5 1 C5.99 1.99 6.98 2.98 8 4 C7.34 5.65 6.68 7.3 6 9 C5.34 9 4.68 9 4 9 C4 6.69 4 4.38 4 2 C2.68 2 1.36 2 0 2 C0 1.34 0 0.68 0 0 Z " fill="#EAF2F8" transform="translate(94,193)"/>
<path d="M0 0 C3.25597758 0.24118352 4.7276304 1.52224212 6.8125 3.875 C7.534375 4.90625 8.25625 5.9375 9 7 C8.67 7.99 8.34 8.98 8 10 C5.33333333 6.66666667 2.66666667 3.33333333 0 0 Z " fill="#1672B8" transform="translate(182,133)"/>
<path d="M0 0 C1.32 0.66 2.64 1.32 4 2 C1.03 3.65 -1.94 5.3 -5 7 C-5.66 6.34 -6.32 5.68 -7 5 C-4.69 3.35 -2.38 1.7 0 0 Z " fill="#267BBD" transform="translate(143,127)"/>
<path d="M0 0 C1.65 0 3.3 0 5 0 C5.66 1.32 6.32 2.64 7 4 C4.03 3.505 4.03 3.505 1 3 C0.67 4.65 0.34 6.3 0 8 C-1.125 6.25 -1.125 6.25 -2 4 C-1.125 1.75 -1.125 1.75 0 0 Z " fill="#CBE0EF" transform="translate(154,223)"/>
<path d="M0 0 C0.33 0.66 0.66 1.32 1 2 C1.66 2.33 2.32 2.66 3 3 C3 4.32 3 5.64 3 7 C0.11424181 6.60196439 -0.82189513 6.20990931 -2.75 3.9375 C-3.1625 3.298125 -3.575 2.65875 -4 2 C-3.34 1.67 -2.68 1.34 -2 1 C-1.34 1.33 -0.68 1.66 0 2 C0 1.34 0 0.68 0 0 Z " fill="#0C6CB5" transform="translate(145,174)"/>
<path d="M0 0 C1.65 0 3.3 0 5 0 C5.33 1.65 5.66 3.3 6 5 C3.03 4.505 3.03 4.505 0 4 C0 2.68 0 1.36 0 0 Z " fill="#116FB7" transform="translate(224,173)"/>
<path d="M0 0 C0 1.98 0 3.96 0 6 C-1.65 6 -3.3 6 -5 6 C-5.33 6.66 -5.66 7.32 -6 8 C-6.33 7.01 -6.66 6.02 -7 5 C-1.125 0 -1.125 0 0 0 Z " fill="#F8FBFC" transform="translate(160,143)"/>
<path d="M0 0 C0.66 0.33 1.32 0.66 2 1 C1.67 1.66 1.34 2.32 1 3 C0.64830932 4.32860925 0.31229724 5.66158328 0 7 C-0.66 7 -1.32 7 -2 7 C-2.33 7.66 -2.66 8.32 -3 9 C-3.66 9 -4.32 9 -5 9 C-4.42647107 5.12867972 -2.51295648 2.91827204 0 0 Z " fill="#CFE2F0" transform="translate(120,211)"/>
<path d="M0 0 C0.99 0.33 1.98 0.66 3 1 C3.08886184 4.19902639 2.91058531 6.92677456 2 10 C1.01 9.34 0.02 8.68 -1 8 C-0.67 5.36 -0.34 2.72 0 0 Z " fill="#D0E3F1" transform="translate(182,90)"/>
<path d="M0 0 C1.65 1.32 3.3 2.64 5 4 C4.67 4.99 4.34 5.98 4 7 C2.68 6.67 1.36 6.34 0 6 C-0.38218767 4.34385343 -0.71395102 2.67542976 -1 1 C-0.67 0.67 -0.34 0.34 0 0 Z " fill="#E1ECF5" transform="translate(114,104)"/>
<path d="M0 0 C3.3 0.99 6.6 1.98 10 3 C10 3.66 10 4.32 10 5 C8.51793505 4.745504 7.03931385 4.47088238 5.5625 4.1875 C4.73878906 4.03667969 3.91507813 3.88585937 3.06640625 3.73046875 C2.38449219 3.48941406 1.70257813 3.24835938 1 3 C0.67 2.01 0.34 1.02 0 0 Z " fill="#D7E7F2" transform="translate(220,180)"/>
<path d="M0 0 C0.99 0.33 1.98 0.66 3 1 C2.75 3.375 2.75 3.375 2 6 C-0.0625 7.3125 -0.0625 7.3125 -2 8 C-2 6.35 -2 4.7 -2 3 C-1.01 3.33 -0.02 3.66 1 4 C0.67 2.68 0.34 1.36 0 0 Z " fill="#E9F1F8" transform="translate(202,101)"/>
<path d="M0 0 C0 0.66 0 1.32 0 2 C-0.99 2.66 -1.98 3.32 -3 4 C-3.72382467 6.05925139 -3.72382467 6.05925139 -4 8 C-4.99 7.34 -5.98 6.68 -7 6 C-7 5.01 -7 4.02 -7 3 C-2.77777778 0 -2.77777778 0 0 0 Z " fill="#277CBE" transform="translate(123,100)"/>
<path d="M0 0 C2 2 2 2 2.125 4.625 C2.08375 5.40875 2.0425 6.1925 2 7 C-2 7 -2 7 -5 6 C-4.34 6 -3.68 6 -3 6 C-3 5.01 -3 4.02 -3 3 C-1.5 1.3125 -1.5 1.3125 0 0 Z " fill="#AFCFE7" transform="translate(140,93)"/>
<path d="M0 0 C0.66 0 1.32 0 2 0 C1.67 3.3 1.34 6.6 1 10 C0.34 10 -0.32 10 -1 10 C-1.125 3.375 -1.125 3.375 0 0 Z " fill="#D9E8F3" transform="translate(148,223)"/>
<path d="M0 0 C0.66 0.33 1.32 0.66 2 1 C1.6875 2.875 1.6875 2.875 1 5 C-2 7 -2 7 -4.1875 6.625 C-4.785625 6.41875 -5.38375 6.2125 -6 6 C-6 5.34 -6 4.68 -6 4 C-4.35 3.67 -2.7 3.34 -1 3 C-0.67 2.01 -0.34 1.02 0 0 Z " fill="#1470B8" transform="translate(165,157)"/>
<path d="M0 0 C2.5 0.75 2.5 0.75 5.5 2.75 C1.20700357 4.01264601 -1.37831311 3.37950412 -5.5 1.75 C-2.5 -0.25 -2.5 -0.25 0 0 Z " fill="#3082C0" transform="translate(171.5,125.25)"/>
<path d="M0 0 C0.99 0 1.98 0 3 0 C2.67 0.99 2.34 1.98 2 3 C1.32811503 5.33183607 0.66084583 7.66501142 0 10 C-0.33 10 -0.66 10 -1 10 C-1 8.35 -1 6.7 -1 5 C-1.66 4.67 -2.32 4.34 -3 4 C-2.34 3.67 -1.68 3.34 -1 3 C-0.67 2.01 -0.34 1.02 0 0 Z " fill="#5297CB" transform="translate(162,223)"/>
<path d="M0 0 C3.36720387 1.39332574 4.9859524 2.9789286 7 6 C4.07120629 5.37240135 1.63904371 4.41377341 -1 3 C-0.67 2.01 -0.34 1.02 0 0 Z " fill="#CBDFEF" transform="translate(113,204)"/>
<path d="M0 0 C3.71599191 -0.20086443 4.77208445 -0.1519437 8 2 C7.625 3.9375 7.625 3.9375 7 6 C6.01 6.495 6.01 6.495 5 7 C4.9175 6.401875 4.835 5.80375 4.75 5.1875 C3.79544128 2.4033704 2.42867729 1.56688858 0 0 Z " fill="#BCD6EA" transform="translate(225,171)"/>
<path d="M0 0 C0.66 0 1.32 0 2 0 C2 0.66 2 1.32 2 2 C4.64 2 7.28 2 10 2 C9.67 2.99 9.34 3.98 9 5 C6.75 5.25 6.75 5.25 4 5 C1.6875 3.0625 1.6875 3.0625 0 1 C0 0.67 0 0.34 0 0 Z " fill="#B1D0E7" transform="translate(160,98)"/>
<path d="M0 0 C1.65 0 3.3 0 5 0 C5 1.98 5 3.96 5 6 C3.35 5.67 1.7 5.34 0 5 C0.33 4.34 0.66 3.68 1 3 C1.99 3 2.98 3 4 3 C4 2.34 4 1.68 4 1 C2.68 0.67 1.36 0.34 0 0 Z " fill="#64A1D0" transform="translate(156,185)"/>
<path d="M0 0 C2.64 0.99 5.28 1.98 8 3 C8 3.99 8 4.98 8 6 C2.25 4.125 2.25 4.125 0 3 C0 2.01 0 1.02 0 0 Z " fill="#2B7FBF" transform="translate(219,181)"/>
<path d="M0 0 C0.99 0 1.98 0 3 0 C3 1.98 3 3.96 3 6 C2.01 6.33 1.02 6.66 0 7 C0 4.69 0 2.38 0 0 Z " fill="#277CBD" transform="translate(169,89)"/>
<path d="M0 0 C-0.99 0.495 -0.99 0.495 -2 1 C-2.33 1.99 -2.66 2.98 -3 4 C-3.33 3.34 -3.66 2.68 -4 2 C-4.99 2.99 -5.98 3.98 -7 5 C-6.67 3.35 -6.34 1.7 -6 0 C-3 -1 -3 -1 0 0 Z " fill="#85B5DA" transform="translate(181,90)"/>
<path d="M0 0 C0.33 0.99 0.66 1.98 1 3 C2.32 3 3.64 3 5 3 C5 3.99 5 4.98 5 6 C2.03 5.505 2.03 5.505 -1 5 C-0.67 3.35 -0.34 1.7 0 0 Z " fill="#B9D5EA" transform="translate(209,206)"/>
<path d="M0 0 C0.66 0.99 1.32 1.98 2 3 C0.68 4.65 -0.64 6.3 -2 8 C-2 7.34 -2 6.68 -2 6 C-2.66 5.67 -3.32 5.34 -4 5 C-2.68 3.35 -1.36 1.7 0 0 Z " fill="#2A7EBF" transform="translate(104,195)"/>
<path d="M0 0 C3.82097239 0.53069061 6.06171403 1.49701566 9 4 C2.25 3.125 2.25 3.125 0 2 C0 1.34 0 0.68 0 0 Z " fill="#DFECF5" transform="translate(216,190)"/>
<path d="M0 0 C1.98 0.99 1.98 0.99 4 2 C4 3.98 4 5.96 4 8 C3.34 8 2.68 8 2 8 C1.34 5.36 0.68 2.72 0 0 Z " fill="#CFE2F0" transform="translate(170,183)"/>
<path d="M0 0 C-0.33 0.99 -0.66 1.98 -1 3 C-3.64 2.67 -6.28 2.34 -9 2 C-9 1.34 -9 0.68 -9 0 C-5.67465243 -1.10844919 -3.37817425 -0.84454356 0 0 Z " fill="#297DBE" transform="translate(172,137)"/>
<path d="M0 0 C-0.66 0 -1.32 0 -2 0 C-2.33 1.65 -2.66 3.3 -3 5 C-3.99 4.67 -4.98 4.34 -6 4 C-5.34 3.01 -4.68 2.02 -4 1 C-4.66 0.67 -5.32 0.34 -6 0 C-3.50907189 -1.24546405 -2.58919267 -0.7767578 0 0 Z " fill="#5F9FCF" transform="translate(189,93)"/>
<path d="M0 0 C1.485 0.99 1.485 0.99 3 2 C4.65549531 2.38499891 6.3222433 2.72793135 8 3 C7.01 3.66 6.02 4.32 5 5 C4.34 4.67 3.68 4.34 3 4 C2.67 4.66 2.34 5.32 2 6 C1.01 4.35 0.02 2.7 -1 1 C-0.67 0.67 -0.34 0.34 0 0 Z " fill="#3283C1" transform="translate(114,207)"/>
<path d="M0 0 C1.32 0.66 2.64 1.32 4 2 C4 2.99 4 3.98 4 5 C3.34 5 2.68 5 2 5 C2 4.34 2 3.68 2 3 C0.68 3.33 -0.64 3.66 -2 4 C-1.34 2.68 -0.68 1.36 0 0 Z " fill="#D9E8F3" transform="translate(219,195)"/>
<path d="M0 0 C2.97 0.33 5.94 0.66 9 1 C4.64467851 3.17766075 3.53374042 3.03039555 -1 2 C-0.67 1.34 -0.34 0.68 0 0 Z " fill="#3D8AC4" transform="translate(223,179)"/>
<path d="M0 0 C0.625 1.875 0.625 1.875 1 4 C0.34 4.66 -0.32 5.32 -1 6 C-2.5 4.625 -2.5 4.625 -4 3 C-4 2.34 -4 1.68 -4 1 C-2 0 -2 0 0 0 Z " fill="#277CBE" transform="translate(114,107)"/>
<path d="M0 0 C1.32 0 2.64 0 4 0 C4 1.32 4 2.64 4 4 C2.68 4 1.36 4 0 4 C0 2.68 0 1.36 0 0 Z " fill="#0066B3" transform="translate(127,41)"/>
</svg>
