<?xml version="1.0" encoding="UTF-8"?>
<svg version="1.1" xmlns="http://www.w3.org/2000/svg" width="600" height="600">
<path d="M0 0 C198 0 396 0 600 0 C600 198 600 396 600 600 C402 600 204 600 0 600 C0 402 0 204 0 0 Z " fill="#FEFEFE" transform="translate(0,0)"/>
<path d="M0 0 C3.48035176 1.74017588 4.25900593 5.9482697 5.67578125 9.4140625 C6.03784164 10.28408401 6.39990204 11.15410553 6.77293396 12.05049133 C7.95949562 14.90593329 9.13640729 17.76523179 10.3125 20.625 C11.52889549 23.5687102 12.74679967 26.51179248 13.96499634 29.45475769 C14.78480387 31.43554952 15.6037897 33.41668163 16.42196655 35.39814758 C18.94391173 41.49449503 21.520917 47.56346588 24.15234375 53.61328125 C25.06488099 55.7261032 25.9765139 57.83931347 26.88803101 59.95257568 C27.46071345 61.27133693 28.0386691 62.58782128 28.62197876 63.9019165 C29.42319869 65.70852131 30.20437272 67.52397736 30.984375 69.33984375 C31.42491211 70.34394287 31.86544922 71.34804199 32.31933594 72.38256836 C33 75 33 75 32.12597656 77.35375977 C31.7544043 77.89701904 31.38283203 78.44027832 31 79 C30.01 79 29.02 79 28 79 C27.64397705 78.33282959 27.2879541 77.66565918 26.92114258 76.97827148 C25.22109306 73.79649001 23.51751289 70.61662469 21.8125 67.4375 C21.50197693 66.85830811 21.19145386 66.27911621 20.871521 65.68237305 C15.70056753 56.04799685 10.38305756 46.50571169 4.91333008 37.03686523 C4.39794678 36.13782471 3.88256348 35.23878418 3.3515625 34.3125 C2.89604004 33.52488281 2.44051758 32.73726562 1.97119141 31.92578125 C1 30 1 30 1 28 C0.34 28 -0.32 28 -1 28 C-1.24008789 28.79889648 -1.48017578 29.59779297 -1.72753906 30.42089844 C-4.31062912 37.68645873 -7.95752678 44.5256104 -11.36621094 51.43261719 C-12.29018859 53.31382787 -13.20554503 55.19929706 -14.11230469 57.08886719 C-15.42537909 59.82435963 -16.76416252 62.5458209 -18.109375 65.265625 C-18.50960876 66.11143127 -18.90984253 66.95723755 -19.32220459 67.82867432 C-22.24062111 73.62323312 -22.24062111 73.62323312 -26.04492188 75.51074219 C-27.02009766 75.67219727 -27.99527344 75.83365234 -29 76 C-29.71768555 76.12503906 -30.43537109 76.25007813 -31.17480469 76.37890625 C-31.83383789 76.43949219 -32.49287109 76.50007813 -33.171875 76.5625 C-33.9136499 76.63605713 -34.6554248 76.70961426 -35.41967773 76.78540039 C-36.18868408 76.85621826 -36.95769043 76.92703613 -37.75 77 C-43.4810867 77.5761654 -49.04670525 78.31096259 -54.67578125 79.55859375 C-59.07393092 80.3938726 -63.5393831 80.67775011 -68 81 C-68 84.52729427 -64.81056799 86.89308351 -62.5625 89.4375 C-61.45338882 90.71003332 -60.3453256 91.98348073 -59.23828125 93.2578125 C-58.68736816 93.89106445 -58.13645508 94.52431641 -57.56884766 95.17675781 C-54.671197 98.54427339 -51.89505372 102.00942581 -49.11328125 105.47265625 C-46.39106396 108.72824698 -43.44836452 111.74898796 -40.43359375 114.734375 C-37.68053987 119.08525034 -38.92962614 124.10159072 -39.93383789 128.90966797 C-40.35616163 130.77217408 -40.78615488 132.63295301 -41.22265625 134.4921875 C-41.55915443 135.97200607 -41.55915443 135.97200607 -41.90245056 137.48171997 C-42.61534725 140.61449322 -43.33796637 143.7448992 -44.0625 146.875 C-44.78997076 150.02665372 -45.51519953 153.17873858 -46.23326111 156.33255005 C-46.67938978 158.29142913 -47.13105425 160.24905688 -47.58863831 162.20529175 C-47.78892136 163.08355621 -47.98920441 163.96182068 -48.19555664 164.86669922 C-48.37542618 165.64278534 -48.55529572 166.41887146 -48.74061584 167.21847534 C-48.82621262 167.80637848 -48.91180939 168.39428162 -49 169 C-48.67 169.33 -48.34 169.66 -48 170 C-44.1641687 168.02564807 -40.33138458 166.04546714 -36.5 164.0625 C-34.797229 163.1813855 -34.797229 163.1813855 -33.06005859 162.2824707 C-25.83986628 158.52799118 -18.692134 154.68223743 -11.68554688 150.54125977 C-8.88236509 148.91212283 -7.30611148 148 -4 148 C-2.28275461 149.61450421 -0.62524084 151.29291249 1 153 C3.10405965 154.92383006 5.26910233 156.77423452 7.4375 158.625 C8.04440674 159.14497559 8.65131348 159.66495117 9.27661133 160.20068359 C14.06006538 164.26874538 18.97496719 168.143238 23.94335938 171.98144531 C28.72126395 175.70389187 33.14615894 179.70555493 37.578125 183.8359375 C39.70584971 185.73716248 41.83602802 187.39159316 44.1875 189 C45.5796875 189.99 45.5796875 189.99 47 191 C47 191.66 47 192.32 47 193 C44.77228567 194.40263495 43.44146897 195.0311442 40.78515625 194.84375 C37.07159231 193.71874325 34.23919486 191.67566608 31.125 189.4375 C29.71746724 188.44788919 28.30991382 187.45830775 26.90234375 186.46875 C25.74581299 185.64890625 25.74581299 185.64890625 24.56591797 184.8125 C20.66122961 182.05432623 16.73263763 179.33077443 12.80615234 176.60375977 C8.93373984 173.9139276 5.06576912 171.21774076 1.19799805 168.52124023 C-2.24039139 165.78806983 -2.24039139 165.78806983 -6.36352539 165.2175293 C-9.18664593 166.05539404 -11.57679729 167.1497535 -14.18359375 168.51953125 C-15.18350342 169.0417627 -16.18341309 169.56399414 -17.21362305 170.10205078 C-18.27750244 170.66649902 -19.34138184 171.23094727 -20.4375 171.8125 C-21.53682861 172.38983887 -22.63615723 172.96717773 -23.76879883 173.56201172 C-32.19567986 178.00306689 -40.57337446 182.5340431 -48.91772461 187.12817383 C-61.39973868 194 -61.39973868 194 -64 194 C-63.44926954 184.59473759 -62.46520547 175.37954693 -61.0625 166.0625 C-60.70134602 163.60163244 -60.34066415 161.14069555 -59.98046875 158.6796875 C-59.80950684 157.52049805 -59.63854492 156.36130859 -59.46240234 155.16699219 C-58.74028233 150.22119453 -58.06367046 145.27196547 -57.47265625 140.30859375 C-57 137 -57 137 -56.12109375 133.16015625 C-54.54515951 125.99713416 -54.54515951 125.99713416 -56.421875 119.140625 C-58.33500973 116.78062668 -60.33364942 114.6197017 -62.50830078 112.5 C-65.34034995 109.65219148 -67.89132382 106.55096051 -70.5 103.5 C-71.61781361 102.21425575 -72.73629396 100.92909083 -73.85546875 99.64453125 C-78.80640495 93.93076649 -83.57676333 88.07306657 -88.2578125 82.13671875 C-88.97710937 81.22535156 -89.69640625 80.31398438 -90.4375 79.375 C-91.07558594 78.55773437 -91.71367188 77.74046875 -92.37109375 76.8984375 C-93.8697808 74.90361433 -93.8697808 74.90361433 -96 74 C-96 73.34 -96 72.68 -96 72 C-94.83984375 71.87882812 -93.6796875 71.75765625 -92.484375 71.6328125 C-84.59844923 70.79300162 -76.77529187 69.87018816 -68.9609375 68.5 C-65.62657231 67.93694097 -62.28804303 67.45721696 -58.9375 67 C-57.74560059 66.8232373 -56.55370117 66.64647461 -55.32568359 66.46435547 C-52.31308627 66.07451309 -49.45233718 65.99995928 -46.41796875 66.10205078 C-37.75157165 66.28554377 -37.75157165 66.28554377 -30.30569458 62.46716309 C-26.53848053 57.46907234 -24.36676978 51.64536179 -22.0625 45.875 C-21.28581135 44.09218638 -20.50141209 42.31271276 -19.70947266 40.53662109 C-18.14695978 37.01366057 -16.6204682 33.47862222 -15.12255859 29.92773438 C-12.32269713 23.34538682 -9.13315967 16.99101212 -5.875 10.625 C-5.38394775 9.64128418 -4.89289551 8.65756836 -4.38696289 7.64404297 C-1.13702945 1.13702945 -1.13702945 1.13702945 0 0 Z " fill="#246EAD" transform="translate(126,175)"/>
<path d="M0 0 C20.46 0 40.92 0 62 0 C62 2.31 62 4.62 62 7 C41.54 7 21.08 7 0 7 C0 4.69 0 2.38 0 0 Z " fill="#2B73B0" transform="translate(202,274)"/>
<path d="M0 0 C0.95708359 0.00222061 1.91416718 0.00444122 2.9002533 0.00672913 C3.98129837 0.00680466 5.06234344 0.00688019 6.17614746 0.00695801 C7.94018166 0.01469994 7.94018166 0.01469994 9.73985291 0.02259827 C10.93702438 0.02401321 12.13419586 0.02542816 13.36764526 0.02688599 C17.20918732 0.03250472 21.05067208 0.04506041 24.89219666 0.05775452 C27.48920102 0.0627671 30.0862063 0.06733043 32.68321228 0.07142639 C39.06539344 0.08248024 45.44754096 0.0992366 51.82969666 0.12025452 C52.48969666 2.43025452 53.14969666 4.74025452 53.82969666 7.12025452 C34.68969666 7.12025452 15.54969666 7.12025452 -4.17030334 7.12025452 C-3.01140412 0.16685914 -3.01140412 0.16685914 0 0 Z " fill="#2E75B1" transform="translate(271.17030334472656,305.87974548339844)"/>
<path d="M0 0 C20.46 0 40.92 0 62 0 C62.495 3.465 62.495 3.465 63 7 C56.4 7 49.8 7 43 7 C42.505 5.515 42.505 5.515 42 4 C34.41 4.33 26.82 4.66 19 5 C18.67 5.66 18.34 6.32 18 7 C11.4 7 4.8 7 -2 7 C-1 2 -1 2 0 0 Z " fill="#3479B3" transform="translate(265,316)"/>
<path d="M0 0 C7.54498233 -0.02312851 15.08996101 -0.04091769 22.63497066 -0.05181217 C26.13808885 -0.05703989 29.64118285 -0.0641355 33.14428711 -0.07543945 C37.16780841 -0.08834206 41.19130414 -0.09322912 45.21484375 -0.09765625 C46.47836166 -0.10281754 47.74187958 -0.10797882 49.04368591 -0.11329651 C50.204814 -0.11337204 51.36594208 -0.11344757 52.56225586 -0.11352539 C54.1044706 -0.11685631 54.1044706 -0.11685631 55.67784119 -0.12025452 C58 0 58 0 59 1 C59.04080783 2.99958364 59.04254356 5.00045254 59 7 C55.56257082 7.05802698 52.12526747 7.09360486 48.6875 7.125 C47.71103516 7.14175781 46.73457031 7.15851563 45.72851562 7.17578125 C44.79072266 7.18222656 43.85292969 7.18867188 42.88671875 7.1953125 C42.02264404 7.20578613 41.15856934 7.21625977 40.26831055 7.22705078 C38 7 38 7 35 5 C32.61322924 4.70547416 30.21373906 4.5071783 27.8125 4.375 C25.90404297 4.26285156 25.90404297 4.26285156 23.95703125 4.1484375 C22.98121094 4.09945313 22.00539063 4.05046875 21 4 C21 4.99 21 5.98 21 7 C14.07 7 7.14 7 0 7 C0 4.69 0 2.38 0 0 Z " fill="#2D74B1" transform="translate(338,274)"/>
<path d="M0 0 C18.15 0 36.3 0 55 0 C55 0.66 55 1.32 55 2 C50.04337449 5.71746913 46.51868394 7.13067046 40.41503906 7.11352539 C39.51440735 7.11344986 38.61377563 7.11337433 37.68585205 7.11329651 C36.72217712 7.10813522 35.7585022 7.10297394 34.765625 7.09765625 C33.77246277 7.0962413 32.77930054 7.09482635 31.75604248 7.09336853 C28.58733088 7.08777588 25.41869021 7.0752247 22.25 7.0625 C20.10026144 7.05748405 17.95052177 7.05292131 15.80078125 7.04882812 C10.53383001 7.03780886 5.26692007 7.021078 0 7 C0 4.69 0 2.38 0 0 Z " fill="#2D75B1" transform="translate(338,295)"/>
<path d="M0 0 C3.62493334 -0.05787784 7.24974857 -0.0935542 10.875 -0.125 C11.90753906 -0.14175781 12.94007813 -0.15851563 14.00390625 -0.17578125 C14.99003906 -0.18222656 15.97617188 -0.18867188 16.9921875 -0.1953125 C18.35899658 -0.21102295 18.35899658 -0.21102295 19.75341797 -0.22705078 C22 0 22 0 24 2 C26.10589077 2.31863689 26.10589077 2.31863689 28.4375 2.25 C29.21996094 2.25515625 30.00242188 2.2603125 30.80859375 2.265625 C33.29044107 2.13176831 33.29044107 2.13176831 36 0 C38.26831055 -0.22705078 38.26831055 -0.22705078 40.88671875 -0.1953125 C41.82451172 -0.18886719 42.76230469 -0.18242187 43.72851562 -0.17578125 C45.19321289 -0.15064453 45.19321289 -0.15064453 46.6875 -0.125 C47.67556641 -0.11597656 48.66363281 -0.10695313 49.68164062 -0.09765625 C52.12133765 -0.0740843 54.56054697 -0.04118022 57 0 C55.125 4.75 55.125 4.75 54 7 C46.79193836 7.12657807 39.58416226 7.21425772 32.37524414 7.2746582 C29.92201019 7.29983207 27.46885145 7.33397363 25.01586914 7.37719727 C21.49346384 7.43771969 17.97204833 7.46618148 14.44921875 7.48828125 C13.34913986 7.51408768 12.24906097 7.5398941 11.11564636 7.56648254 C8.32026495 7.56751669 5.74344715 7.53592176 3 7 C0.71663351 4.52088043 0 3.34085716 0 0 Z " fill="#2E75B1" transform="translate(138,316)"/>
<path d="M0 0 C0.99 0 1.98 0 3 0 C3 35.31 3 70.62 3 107 C2.01 107 1.02 107 0 107 C0 71.69 0 36.38 0 0 Z " fill="#8F9295" transform="translate(422,259)"/>
<path d="M0 0 C20.46 0 40.92 0 62 0 C62 1.65 62 3.3 62 5 C41.54 5 21.08 5 0 5 C0 3.35 0 1.7 0 0 Z " fill="#1E6AAB" transform="translate(202,265)"/>
<path d="M0 0 C1.35568336 0.00333092 1.35568336 0.00333092 2.73875427 0.00672913 C3.75973709 0.00680466 4.78071991 0.00688019 5.8326416 0.00695801 C6.94304306 0.01211929 8.05344452 0.01728058 9.19749451 0.02259827 C10.89336952 0.02472069 10.89336952 0.02472069 12.62350464 0.02688599 C16.25105891 0.03250433 19.8785525 0.04505994 23.50608826 0.05775452 C25.95856133 0.06276715 28.41103536 0.06733047 30.86351013 0.07142639 C36.89022371 0.08247971 42.91690165 0.09923568 48.94358826 0.12025452 C49.43858826 3.58525452 49.43858826 3.58525452 49.94358826 7.12025452 C46.65208701 7.20710739 43.36087866 7.26059347 40.06858826 7.30775452 C39.13143982 7.33289124 38.19429138 7.35802795 37.22874451 7.38392639 C35.88489685 7.39842834 35.88489685 7.39842834 34.51390076 7.41322327 C33.27277527 7.43678894 33.27277527 7.43678894 32.00657654 7.46083069 C31.32579041 7.34844055 30.64500427 7.23605042 29.94358826 7.12025452 C29.28358826 6.13025452 28.62358826 5.14025452 27.94358826 4.12025452 C25.19279942 3.2033249 23.58409913 3.01139368 20.75608826 3.05775452 C19.49796326 3.07837952 18.23983826 3.09900452 16.94358826 3.12025452 C16.28358826 4.44025452 15.62358826 5.76025452 14.94358826 7.12025452 C8.67358826 7.12025452 2.40358826 7.12025452 -4.05641174 7.12025452 C-2.89794694 0.16946568 -2.89794694 0.16946568 0 0 Z " fill="#357AB4" transform="translate(143.05641174316406,273.87974548339844)"/>
<path d="M0 0 C6.4777286 -0.10140493 12.95525261 -0.17146717 19.43359375 -0.21972656 C21.6374476 -0.23984419 23.84124807 -0.26714172 26.04492188 -0.30175781 C29.21237356 -0.35026833 32.37911968 -0.37296736 35.546875 -0.390625 C36.53242371 -0.41127014 37.51797241 -0.43191528 38.53338623 -0.45318604 C45.3421705 -0.45542043 45.3421705 -0.45542043 48.65332031 1.83691406 C50 4 50 4 50 7 C44.62899016 7.1245596 39.25883989 7.21478702 33.88671875 7.2746582 C32.06332738 7.29964279 30.24003452 7.33364279 28.41699219 7.37719727 C8.21785109 7.84733062 8.21785109 7.84733062 1 2 C0.67 1.34 0.34 0.68 0 0 Z " fill="#2E75B1" transform="translate(144,295)"/>
<path d="M0 0 C6.4044834 -0.10185277 12.80875607 -0.17165458 19.21386719 -0.21972656 C21.39037888 -0.23977764 23.56683714 -0.26702571 25.74316406 -0.30175781 C28.88099393 -0.35056212 32.01810835 -0.37303438 35.15625 -0.390625 C36.12115356 -0.41127014 37.08605713 -0.43191528 38.0802002 -0.45318604 C44.48594332 -0.45528885 48.48238615 0.71894979 54 4 C54 4.33 54 4.66 54 5 C36.18 5 18.36 5 0 5 C0 3.35 0 1.7 0 0 Z " fill="#206CAC" transform="translate(338,265)"/>
<path d="M0 0 C1.25159912 0.00523682 2.50319824 0.01047363 3.79272461 0.01586914 C4.78942421 0.01799156 4.78942421 0.01799156 5.80625916 0.02015686 C7.93590735 0.02577021 10.06545175 0.03832485 12.19506836 0.05102539 C13.63582205 0.05603868 15.07657739 0.06060188 16.51733398 0.06469727 C20.05577938 0.07574394 23.59416375 0.09301747 27.13256836 0.11352539 C27.79256836 2.42352539 28.45256836 4.73352539 29.13256836 7.11352539 C17.91256836 7.11352539 6.69256836 7.11352539 -4.86743164 7.11352539 C-3.70630029 0.1467373 -3.70630029 0.1467373 0 0 Z " fill="#2E75B1" transform="translate(283.867431640625,273.886474609375)"/>
<path d="M0 0 C1.49853516 -0.03673828 1.49853516 -0.03673828 3.02734375 -0.07421875 C9.63077397 -0.10011455 15.10071923 0.76286389 20.75 4.375 C21.245 5.365 21.245 5.365 21.75 6.375 C7.89 6.375 -5.97 6.375 -20.25 6.375 C-13.76612673 -0.10887327 -8.75296129 0.01112193 0 0 Z " fill="#256FAD" transform="translate(165.25,263.625)"/>
<path d="M0 0 C27.41124527 -0.89265077 27.41124527 -0.89265077 40 4 C40.495 4.99 40.495 4.99 41 6 C27.8 6 14.6 6 1 6 C0.67 4.02 0.34 2.04 0 0 Z " fill="#236EAD" transform="translate(139,285)"/>
<path d="M0 0 C1.32 0 2.64 0 4 0 C4 2.97 4 5.94 4 9 C6.64 9 9.28 9 12 9 C12 6.03 12 3.06 12 0 C13.32 0 14.64 0 16 0 C16 6.93 16 13.86 16 21 C14.68 21 13.36 21 12 21 C12 18.03 12 15.06 12 12 C9.36 12 6.72 12 4 12 C4 14.97 4 17.94 4 21 C2.68 21 1.36 21 0 21 C0 14.07 0 7.14 0 0 Z " fill="#2771AF" transform="translate(441,305)"/>
<path d="M0 0 C1.32 0 2.64 0 4 0 C5.5778125 -0.0309375 5.5778125 -0.0309375 7.1875 -0.0625 C10 0 10 0 11 1 C11.38609317 6.01921124 11.01858666 8.93651796 8 13 C6 15 6 15 2.875 15.125 C1.92625 15.08375 0.9775 15.0425 0 15 C-0.33 16.65 -0.66 18.3 -1 20 C-1.99 20 -2.98 20 -4 20 C-2.07289294 6.3667426 -2.07289294 6.3667426 0 0 Z " fill="#4383B9" transform="translate(460,405)"/>
<path d="M0 0 C1.9375 1.25 1.9375 1.25 3 3 C3.25 5.625 3.25 5.625 3 8 C2 9 2 9 -0.06640625 9.09765625 C-0.89011719 9.08605469 -1.71382813 9.07445312 -2.5625 9.0625 C-3.38878906 9.05347656 -4.21507812 9.04445313 -5.06640625 9.03515625 C-5.70449219 9.02355469 -6.34257812 9.01195312 -7 9 C-6.67 9.66 -6.34 10.32 -6 11 C-4.10466658 11.46523063 -4.10466658 11.46523063 -1.9375 11.625 C-0.638125 11.74875 0.66125 11.8725 2 12 C2 12.99 2 13.98 2 15 C0.20906809 15.08086147 -1.58289628 15.13912702 -3.375 15.1875 C-4.87160156 15.23970703 -4.87160156 15.23970703 -6.3984375 15.29296875 C-7.25695312 15.19628906 -8.11546875 15.09960938 -9 15 C-11.68450733 10.973239 -11.67304618 7.72836241 -11 3 C-8.10480019 -1.86393568 -5.14572566 -1.40337972 0 0 Z " fill="#4685BA" transform="translate(472,311)"/>
<path d="M0 0 C3.77057547 -0.11597653 7.54069393 -0.18717396 11.3125 -0.25 C12.38435547 -0.28351563 13.45621094 -0.31703125 14.56054688 -0.3515625 C15.58857422 -0.36445313 16.61660156 -0.37734375 17.67578125 -0.390625 C18.62364502 -0.41157227 19.57150879 -0.43251953 20.5480957 -0.45410156 C23 0 23 0 24.83276367 1.83691406 C26 4 26 4 26 7 C18.08 7 10.16 7 2 7 C1.34 4.69 0.68 2.38 0 0 Z " fill="#3076B2" transform="translate(367,306)"/>
<path d="M0 0 C-0.96355353 10.55808656 -0.96355353 10.55808656 -2 15 C-2.556875 14.814375 -3.11375 14.62875 -3.6875 14.4375 C-6.05608681 13.83463761 -6.05608681 13.83463761 -8.625 14.5625 C-9.40875 14.706875 -10.1925 14.85125 -11 15 C-13.39286884 12.60713116 -13.32050616 11.90552906 -13.375 8.625 C-13.28090447 5.549562 -13.09424854 4.16800827 -11.5625 1.4375 C-7.7722199 -0.68875469 -4.25016698 -0.32693592 0 0 Z " fill="#4181B8" transform="translate(527,405)"/>
<path d="M0 0 C1.32 0 2.64 0 4 0 C4.33 2.31 4.66 4.62 5 7 C5.94875 6.95875 6.8975 6.9175 7.875 6.875 C11 7 11 7 13 9 C13.1953125 12.0390625 13.1953125 12.0390625 13.125 15.625 C13.10695313 16.81351562 13.08890625 18.00203125 13.0703125 19.2265625 C13.04710937 20.14179688 13.02390625 21.05703125 13 22 C11.68 22 10.36 22 9 22 C8.67 18.37 8.34 14.74 8 11 C7.01 11 6.02 11 5 11 C4.67 14.63 4.34 18.26 4 22 C2.68 22 1.36 22 0 22 C0 14.74 0 7.48 0 0 Z " fill="#3177B2" transform="translate(514,304)"/>
<path d="M0 0 C2.375 1.6875 2.375 1.6875 4 4 C4 5.65 4 7.3 4 9 C0.7 9 -2.6 9 -6 9 C-5.67 9.99 -5.34 10.98 -5 12 C-2.36 12 0.28 12 3 12 C2.67 13.32 2.34 14.64 2 16 C0.56344146 16.08131463 -0.8744483 16.13933559 -2.3125 16.1875 C-3.51326172 16.23970703 -3.51326172 16.23970703 -4.73828125 16.29296875 C-7 16 -7 16 -8.765625 14.765625 C-11.05703774 11.48803462 -10.61381518 7.82082707 -10 4 C-7.35478334 -0.1713032 -4.79556761 -0.79926127 0 0 Z " fill="#2C74B0" transform="translate(566,344)"/>
<path d="M0 0 C0.99 0.66 1.98 1.32 3 2 C3.29296875 5.2578125 3.29296875 5.2578125 3.1875 9.125 C3.16042969 10.40632813 3.13335938 11.68765625 3.10546875 13.0078125 C3.07066406 13.99523437 3.03585937 14.98265625 3 16 C1.20866022 16.05391993 -0.58313899 16.09275571 -2.375 16.125 C-3.37273438 16.14820313 -4.37046875 16.17140625 -5.3984375 16.1953125 C-8 16 -8 16 -10 14 C-10.25 11.5 -10.25 11.5 -10 9 C-8 7 -8 7 -4.375 6.875 C-2.704375 6.936875 -2.704375 6.936875 -1 7 C-1.33 6.01 -1.66 5.02 -2 4 C-4.31 4 -6.62 4 -9 4 C-9 3.01 -9 2.02 -9 1 C-5.98131566 -0.50934217 -3.32702771 -0.17510672 0 0 Z " fill="#3479B3" transform="translate(518,344)"/>
<path d="M0 0 C13.2 0 26.4 0 40 0 C38.70724369 2.58551263 37.89055586 2.68768816 35.1875 3.625 C29.78619584 5.1470438 24.51260744 5.36244553 18.9375 5.4375 C17.68005981 5.47061279 17.68005981 5.47061279 16.3972168 5.50439453 C10.14335382 5.48358708 5.5041057 3.92174825 0 1 C0 0.67 0 0.34 0 0 Z " fill="#2C74B0" transform="translate(146,327)"/>
<path d="M0 0 C1.6796875 1.09765625 1.6796875 1.09765625 3 3 C3.29296875 6.13671875 3.29296875 6.13671875 3.1875 9.6875 C3.16042969 10.86699219 3.13335937 12.04648437 3.10546875 13.26171875 C3.07066406 14.16535156 3.03585937 15.06898438 3 16 C1.20866022 16.05391993 -0.58313899 16.09275571 -2.375 16.125 C-3.37273437 16.14820313 -4.37046875 16.17140625 -5.3984375 16.1953125 C-8 16 -8 16 -10 14 C-9.67028521 10.70285207 -9.3773161 9.3773161 -7 7 C-3.875 6.875 -3.875 6.875 -1 7 C-1 6.01 -1 5.02 -1 4 C-3.64 4.33 -6.28 4.66 -9 5 C-8.625 3.0625 -8.625 3.0625 -8 1 C-5.20129973 -0.39935013 -3.09501208 -0.25265405 0 0 Z " fill="#2F75B1" transform="translate(487,310)"/>
<path d="M0 0 C0 4.62 0 9.24 0 14 C-1.32 14 -2.64 14 -4 14 C-4 10.04 -4 6.08 -4 2 C-5.32 2.33 -6.64 2.66 -8 3 C-8.33 6.63 -8.66 10.26 -9 14 C-10.65 14 -12.3 14 -14 14 C-14 9.05 -14 4.1 -14 -1 C-4.66666667 -2.33333333 -4.66666667 -2.33333333 0 0 Z " fill="#4584B9" transform="translate(463,346)"/>
<path d="M0 0 C6.93 0 13.86 0 21 0 C21 2.31 21 4.62 21 7 C14.07 7 7.14 7 0 7 C0 4.69 0 2.38 0 0 Z " fill="#3378B3" transform="translate(338,316)"/>
<path d="M0 0 C6.93 0 13.86 0 21 0 C21 2.31 21 4.62 21 7 C14.07 7 7.14 7 0 7 C0 4.69 0 2.38 0 0 Z " fill="#3177B2" transform="translate(338,306)"/>
<path d="M0 0 C6.93 0 13.86 0 21 0 C21 2.31 21 4.62 21 7 C14.07 7 7.14 7 0 7 C0 4.69 0 2.38 0 0 Z " fill="#3378B3" transform="translate(222,306)"/>
<path d="M0 0 C6.93 0 13.86 0 21 0 C21 2.31 21 4.62 21 7 C14.07 7 7.14 7 0 7 C0 4.69 0 2.38 0 0 Z " fill="#3278B2" transform="translate(222,295)"/>
<path d="M0 0 C7.59 0 15.18 0 23 0 C23 2.31 23 4.62 23 7 C16.4 7 9.8 7 3 7 C2.34 5.35 1.68 3.7 1 2 C0.67 1.34 0.34 0.68 0 0 Z " fill="#2D75B1" transform="translate(173,306)"/>
<path d="M0 0 C1.32 0 2.64 0 4 0 C4.33 3.96 4.66 7.92 5 12 C6.32 11.67 7.64 11.34 9 11 C9.33 7.37 9.66 3.74 10 0 C11.32 0 12.64 0 14 0 C14 5.28 14 10.56 14 16 C4.8203125 16.29296875 4.8203125 16.29296875 2 16 C-0.42130331 12.36804504 -0.21022785 10.61650652 -0.125 6.3125 C-0.09792969 4.54326172 -0.09792969 4.54326172 -0.0703125 2.73828125 C-0.04710937 1.83464844 -0.02390625 0.93101562 0 0 Z " fill="#3479B3" transform="translate(480,344)"/>
<path d="M0 0 C0.99 0 1.98 0 3 0 C3 0.66 3 1.32 3 2 C3.99 1.34 4.98 0.68 6 0 C8.74830816 -0.34353852 10.3131396 -0.46008226 12.64453125 1.1015625 C14.66532919 3.93184434 14.28923792 6.26232349 14.1875 9.6875 C14.16042969 10.86699219 14.13335938 12.04648437 14.10546875 13.26171875 C14.07066406 14.16535156 14.03585937 15.06898438 14 16 C12.68 16 11.36 16 10 16 C9.67 12.37 9.34 8.74 9 5 C7.68 5 6.36 5 5 5 C4.67 8.63 4.34 12.26 4 16 C2.68 16 1.36 16 0 16 C0 10.72 0 5.44 0 0 Z " fill="#3277B2" transform="translate(525,344)"/>
<path d="M0 0 C3 0.125 3 0.125 4 1.125 C4.04063832 2.79117115 4.042721 4.45888095 4 6.125 C3.01 6.455 2.02 6.785 1 7.125 C2.32 8.445 3.64 9.765 5 11.125 C5 10.135 5 9.145 5 8.125 C5.66 8.125 6.32 8.125 7 8.125 C6.95875 9.07375 6.9175 10.0225 6.875 11 C6.65026182 14.22744856 6.65026182 14.22744856 9 16.125 C6.87527424 16.17886629 4.75016348 16.21773071 2.625 16.25 C1.44164062 16.27320313 0.25828125 16.29640625 -0.9609375 16.3203125 C-4 16.125 -4 16.125 -6 14.125 C-5.63723355 11.29542171 -4.90305236 8.83415709 -4 6.125 C-4 5.25875 -4 4.3925 -4 3.5 C-4 -0.073288 -3.61557889 0.15064912 0 0 Z " fill="#707275" transform="translate(303,343.875)"/>
<path d="M0 0 C3.79152334 -0.0867982 7.58279296 -0.14032207 11.375 -0.1875 C12.99535156 -0.22520508 12.99535156 -0.22520508 14.6484375 -0.26367188 C15.6796875 -0.27333984 16.7109375 -0.28300781 17.7734375 -0.29296875 C18.72653809 -0.3086792 19.67963867 -0.32438965 20.66162109 -0.34057617 C21.81911865 -0.17199097 21.81911865 -0.17199097 23 0 C25 3 25 3 25 6 C21.39610336 6.11601004 17.79268533 6.18718408 14.1875 6.25 C13.16333984 6.28351563 12.13917969 6.31703125 11.08398438 6.3515625 C10.10107422 6.36445313 9.11816406 6.37734375 8.10546875 6.390625 C6.74651489 6.4220459 6.74651489 6.4220459 5.36010742 6.45410156 C3 6 3 6 1.1809082 4.10058594 C0 2 0 2 0 0 Z " fill="#206CAC" transform="translate(373,317)"/>
<path d="M0 0 C6.27 0 12.54 0 19 0 C19.66 2.31 20.32 4.62 21 7 C14.73 7 8.46 7 2 7 C1.34 4.69 0.68 2.38 0 0 Z " fill="#2F76B1" transform="translate(300,295)"/>
<path d="M0 0 C0.74886475 0.00523682 1.49772949 0.01047363 2.26928711 0.01586914 C3.07817383 0.0190918 3.88706055 0.02231445 4.72045898 0.02563477 C5.5705957 0.03401367 6.42073242 0.04239258 7.29663086 0.05102539 C8.15063477 0.05553711 9.00463867 0.06004883 9.88452148 0.06469727 C12.00108749 0.07652166 14.11761771 0.0944577 16.23413086 0.11352539 C15.90413086 2.42352539 15.57413086 4.73352539 15.23413086 7.11352539 C8.96413086 7.11352539 2.69413086 7.11352539 -3.76586914 7.11352539 C-2.60822817 0.16767954 -2.60822817 0.16767954 0 0 Z " fill="#2F76B1" transform="translate(274.765869140625,294.886474609375)"/>
<path d="M0 0 C2 1.1875 2 1.1875 3 3 C2.6875 5.6875 2.6875 5.6875 2 8 C-0.97 8 -3.94 8 -7 8 C-6.67 8.99 -6.34 9.98 -6 11 C-3.36 11.33 -0.72 11.66 2 12 C1.67 12.99 1.34 13.98 1 15 C-5.22222222 15.47863248 -5.22222222 15.47863248 -8.4375 13.5 C-10.78057502 9.75107996 -10.48773804 7.38964238 -10 3 C-7.83160257 -1.08168929 -4.19435544 -0.44939523 0 0 Z " fill="#3F80B7" transform="translate(427,405)"/>
<path d="M0 0 C2 2 2 2 2.125 5.125 C2.08375 6.07375 2.0425 7.0225 2 8 C-0.97 8 -3.94 8 -7 8 C-6.67 8.99 -6.34 9.98 -6 11 C-3.36 11.33 -0.72 11.66 2 12 C1.67 12.99 1.34 13.98 1 15 C-5.22222222 15.47863248 -5.22222222 15.47863248 -8.4375 13.5 C-10.78057502 9.75107996 -10.48773804 7.38964238 -10 3 C-7.8297183 -1.08523614 -4.19706062 -0.38155097 0 0 Z " fill="#4D89BC" transform="translate(185,405)"/>
<path d="M0 0 C2 2 2 2 2.125 5.125 C2.08375 6.07375 2.0425 7.0225 2 8 C-0.97 8 -3.94 8 -7 8 C-6.67 8.99 -6.34 9.98 -6 11 C-3.36 11.33 -0.72 11.66 2 12 C2 12.66 2 13.32 2 14 C-1.01035918 14.58061435 -3.92909596 15.0163346 -7 15 C-9.0625 13.5625 -9.0625 13.5625 -10 11 C-10.48970283 7.46562305 -10.65888484 4.24025383 -8.9375 1 C-5.91000701 -0.56257703 -3.33615038 -0.3032864 0 0 Z " fill="#3076B2" transform="translate(231,405)"/>
<path d="M0 0 C6.0546875 -0.1953125 6.0546875 -0.1953125 8 0 C10 2 10 2 10.1953125 5.0390625 C10.17210937 6.22242188 10.14890625 7.40578125 10.125 8.625 C10.10695312 9.81351562 10.08890625 11.00203125 10.0703125 12.2265625 C10.04710937 13.14179688 10.02390625 14.05703125 10 15 C8.56344146 15.08131463 7.1255517 15.13933559 5.6875 15.1875 C4.48673828 15.23970703 4.48673828 15.23970703 3.26171875 15.29296875 C1 15 1 15 -0.8046875 13.6171875 C-2 12 -2 12 -1.8125 9.9375 C-1 8 -1 8 1 6 C4.125 5.875 4.125 5.875 7 6 C6.67 5.01 6.34 4.02 6 3 C3.69 3 1.38 3 -1 3 C-0.67 2.01 -0.34 1.02 0 0 Z " fill="#4383B8" transform="translate(239,405)"/>
<path d="M0 0 C6.6 0 13.2 0 20 0 C20 1.65 20 3.3 20 5 C19 6 19 6 16.86694336 6.11352539 C15.95050049 6.10828857 15.03405762 6.10305176 14.08984375 6.09765625 C13.10048828 6.09443359 12.11113281 6.09121094 11.09179688 6.08789062 C10.05087891 6.07951172 9.00996094 6.07113281 7.9375 6.0625 C6.89271484 6.05798828 5.84792969 6.05347656 4.77148438 6.04882812 C2.1809334 6.03699913 -0.40950559 6.02051689 -3 6 C-2.01 4.02 -1.02 2.04 0 0 Z " fill="#1F6CAC" transform="translate(377,285)"/>
<path d="M0 0 C3.29164829 -0.02895225 6.58326399 -0.0467823 9.875 -0.0625 C10.81214844 -0.07087891 11.74929687 -0.07925781 12.71484375 -0.08789062 C14.05869141 -0.09272461 14.05869141 -0.09272461 15.4296875 -0.09765625 C16.67081299 -0.10551147 16.67081299 -0.10551147 17.93701172 -0.11352539 C20 0 20 0 22 1 C22 2.65 22 4.3 22 6 C18.70849875 6.08685287 15.4172904 6.14033895 12.125 6.1875 C11.18785156 6.21263672 10.25070313 6.23777344 9.28515625 6.26367188 C8.38925781 6.27333984 7.49335938 6.28300781 6.5703125 6.29296875 C5.74289551 6.3086792 4.91547852 6.32438965 4.06298828 6.34057617 C3.38220215 6.22818604 2.70141602 6.1157959 2 6 C0 3 0 3 0 0 Z " fill="#2670AE" transform="translate(171,275)"/>
<path d="M0 0 C7.92 0 15.84 0 24 0 C24 1.65 24 3.3 24 5 C15.75 5 7.5 5 -1 5 C-0.67 3.35 -0.34 1.7 0 0 Z " fill="#226DAC" transform="translate(284,265)"/>
<path d="M0 0 C1.23556641 0.01740234 1.23556641 0.01740234 2.49609375 0.03515625 C3.32238281 0.04417969 4.14867187 0.05320312 5 0.0625 C5.63808594 0.07410156 6.27617187 0.08570313 6.93359375 0.09765625 C5.94359375 0.59265625 5.94359375 0.59265625 4.93359375 1.09765625 C4.95421875 1.90203125 4.97484375 2.70640625 4.99609375 3.53515625 C4.93359375 6.09765625 4.93359375 6.09765625 3.93359375 7.09765625 C2.2674226 7.13829457 0.5997128 7.14037725 -1.06640625 7.09765625 C-1.06640625 7.75765625 -1.06640625 8.41765625 -1.06640625 9.09765625 C-0.09703125 9.07703125 0.87234375 9.05640625 1.87109375 9.03515625 C4.93359375 9.09765625 4.93359375 9.09765625 5.93359375 10.09765625 C5.97423207 11.7638274 5.97631475 13.4315372 5.93359375 15.09765625 C3.17109339 16.47890643 0.98628276 16.28844931 -2.06640625 16.09765625 C-4.06640625 14.09765625 -4.06640625 14.09765625 -4.078125 11.09375 C-3.97113281 9.91941406 -3.86414063 8.74507813 -3.75390625 7.53515625 C-3.65464844 6.35824219 -3.55539062 5.18132812 -3.453125 3.96875 C-2.93725576 0.13881171 -2.93725576 0.13881171 0 0 Z " fill="#919395" transform="translate(397.06640625,348.90234375)"/>
<path d="M0 0 C0.99 0 1.98 0 3 0 C3.33 2.31 3.66 4.62 4 7 C4.94875 6.95875 5.8975 6.9175 6.875 6.875 C10 7 10 7 12 9 C12.1953125 11.8203125 12.1953125 11.8203125 12.125 15.125 C12.10695312 16.22070312 12.08890625 17.31640625 12.0703125 18.4453125 C12.03550781 19.70988281 12.03550781 19.70988281 12 21 C11.01 21 10.02 21 9 21 C8.67 17.37 8.34 13.74 8 10 C6.68 10.33 5.36 10.66 4 11 C3.67 14.63 3.34 18.26 3 22 C2.01 22 1.02 22 0 22 C0 14.74 0 7.48 0 0 Z " fill="#4886BA" transform="translate(158,398)"/>
<path d="M0 0 C6.6 0 13.2 0 20 0 C20 1.98 20 3.96 20 6 C13.4 6 6.8 6 0 6 C0 4.02 0 2.04 0 0 Z " fill="#1F6BAB" transform="translate(223,317)"/>
<path d="M0 0 C6.6 0 13.2 0 20 0 C20 1.98 20 3.96 20 6 C13.4 6 6.8 6 0 6 C0 4.02 0 2.04 0 0 Z " fill="#1F6BAB" transform="translate(338,285)"/>
<path d="M0 0 C6.6 0 13.2 0 20 0 C20 1.98 20 3.96 20 6 C13.4 6 6.8 6 0 6 C0 4.02 0 2.04 0 0 Z " fill="#1E6BAB" transform="translate(223,285)"/>
<path d="M0 0 C3.3125 0.375 3.3125 0.375 4.3125 1.375 C4.5625 3.8125 4.5625 3.8125 4.3125 6.375 C0.8772952 8.66513653 -0.672831 8.55342973 -4.6875 8.375 C-4.6875 9.695 -4.6875 11.015 -4.6875 12.375 C-2.3775 12.375 -0.0675 12.375 2.3125 12.375 C2.3125 13.035 2.3125 13.695 2.3125 14.375 C-0.45000036 15.75625018 -2.63481099 15.56579306 -5.6875 15.375 C-7.6875 13.375 -7.6875 13.375 -8.0625 9.5625 C-7.96667196 6.46781805 -7.61047023 5.22710283 -6.125 2.375 C-3.6875 0.375 -3.6875 0.375 0 0 Z " fill="#2D74B0" transform="translate(482.6875,404.625)"/>
<path d="M0 0 C0.99 0 1.98 0 3 0 C3 2.64 3 5.28 3 8 C5.97 8 8.94 8 12 8 C12 5.36 12 2.72 12 0 C12.66 0 13.32 0 14 0 C14 6.27 14 12.54 14 19 C13.34 19 12.68 19 12 19 C12 16.03 12 13.06 12 10 C9.03 10 6.06 10 3 10 C3 13.3 3 16.6 3 20 C2.01 20 1.02 20 0 20 C0 13.4 0 6.8 0 0 Z " fill="#3F80B7" transform="translate(201,400)"/>
<path d="M0 0 C6.0546875 -0.1953125 6.0546875 -0.1953125 8 0 C10 2 10 2 10.1953125 4.8203125 C10.16050781 6.45613281 10.16050781 6.45613281 10.125 8.125 C10.10695313 9.22070312 10.08890625 10.31640625 10.0703125 11.4453125 C10.04710937 12.28835938 10.02390625 13.13140625 10 14 C8.54364629 14.22174933 7.08477044 14.42698698 5.625 14.625 C4.81289063 14.74101562 4.00078125 14.85703125 3.1640625 14.9765625 C2.44992187 14.98429687 1.73578125 14.99203125 1 15 C-1 13 -1 13 -1.25 10.5 C-1 8 -1 8 1 6 C4.625 5.875 4.625 5.875 8 6 C7.67 5.01 7.34 4.02 7 3 C4.69 3 2.38 3 0 3 C0 2.01 0 1.02 0 0 Z " fill="#4A87BB" transform="translate(370,405)"/>
<path d="M0 0 C3.5 0.25 3.5 0.25 5.5 2.25 C5.97674265 5.90502698 5.93320271 7.62426275 3.8125 10.6875 C1.5 12.25 1.5 12.25 -1.125 12.125 C-3.5 11.25 -3.5 11.25 -5.5 9.25 C-5.75 5.75 -5.75 5.75 -5.5 2.25 C-3.5 0.25 -3.5 0.25 0 0 Z " fill="#737578" transform="translate(237.5,348.75)"/>
<path d="M0 0 C0.94875 0.04125 1.8975 0.0825 2.875 0.125 C3.205 1.445 3.535 2.765 3.875 4.125 C2.225 4.125 0.575 4.125 -1.125 4.125 C-0.24210613 6.38429199 -0.24210613 6.38429199 2.4375 7.4375 C3.241875 7.994375 4.04625 8.55125 4.875 9.125 C5.3125 11.6875 5.3125 11.6875 4.875 14.125 C2.875 16.125 2.875 16.125 0.9296875 16.3203125 C-1.08854167 16.25520833 -3.10677083 16.19010417 -5.125 16.125 C-5.455 14.805 -5.785 13.485 -6.125 12.125 C-3.815 12.455 -1.505 12.785 0.875 13.125 C0.875 12.135 0.875 11.145 0.875 10.125 C0.09125 10.00125 -0.6925 9.8775 -1.5 9.75 C-4.125 9.125 -4.125 9.125 -6.125 7.125 C-5.66604657 2.53546569 -4.9886353 0.19954541 0 0 Z " fill="#357AB3" transform="translate(472.125,343.875)"/>
<path d="M0 0 C5.94 0 11.88 0 18 0 C18.33 1.98 18.66 3.96 19 6 C13.06 6 7.12 6 1 6 C0.67 4.02 0.34 2.04 0 0 Z " fill="#226DAC" transform="translate(297,285)"/>
<path d="M0 0 C0 0.99 0 1.98 0 3 C-2.31 3 -4.62 3 -7 3 C-7 4.32 -7 5.64 -7 7 C-6.175 7.61875 -5.35 8.2375 -4.5 8.875 C-2 11 -2 11 -1.4375 14.0625 C-2 17 -2 17 -3.625 18.875 C-6.56637697 20.26828383 -8.78333296 20.21931821 -12 20 C-12.66 18.68 -13.32 17.36 -14 16 C-11.36 16 -8.72 16 -6 16 C-6.1957792 13.59855733 -6.1957792 13.59855733 -7 11 C-7.680625 10.525625 -8.36125 10.05125 -9.0625 9.5625 C-11 8 -11 8 -11.5 5 C-11 2 -11 2 -9.4375 0.0625 C-6.03339271 -1.42134164 -3.56538192 -0.75421541 0 0 Z " fill="#508BBD" transform="translate(455,400)"/>
<path d="M0 0 C5.61 0 11.22 0 17 0 C16.67 1.98 16.34 3.96 16 6 C10.06 6 4.12 6 -2 6 C-1.34 4.02 -0.68 2.04 0 0 Z " fill="#206CAC" transform="translate(277,285)"/>
<path d="M0 0 C1.32 0 2.64 0 4 0 C4 1.32 4 2.64 4 4 C5.32 4 6.64 4 8 4 C8 4.99 8 5.98 8 7 C6.68 7 5.36 7 4 7 C4 9.97 4 12.94 4 16 C5.32 16 6.64 16 8 16 C8 16.99 8 17.98 8 19 C5.125 19.125 5.125 19.125 2 19 C0 17 0 17 -0.1953125 14.6171875 C-0.17210937 13.71226562 -0.14890625 12.80734375 -0.125 11.875 C-0.10695313 10.96492188 -0.08890625 10.05484375 -0.0703125 9.1171875 C-0.04710937 8.41851562 -0.02390625 7.71984375 0 7 C-0.66 7 -1.32 7 -2 7 C-2 6.01 -2 5.02 -2 4 C-1.34 4 -0.68 4 0 4 C0 2.68 0 1.36 0 0 Z " fill="#2B73B0" transform="translate(503,307)"/>
<path d="M0 0 C-0.33 1.32 -0.66 2.64 -1 4 C-2.65 4 -4.3 4 -6 4 C-6 5.98 -6 7.96 -6 10 C-3.92446352 10.5534764 -2.15634036 11 0 11 C-0.33 12.32 -0.66 13.64 -1 15 C-7.3782235 15.48137536 -7.3782235 15.48137536 -9.9375 13.5 C-11.45363386 9.93262622 -11.686445 6.81445003 -11 3 C-8.03125145 -1.86874762 -5.19627613 -1.19914065 0 0 Z " fill="#3076B2" transform="translate(553,345)"/>
<path d="M0 0 C0.66 0 1.32 0 2 0 C2 2.64 2 5.28 2 8 C2.66 7.67 3.32 7.34 4 7 C7 6.75 7 6.75 10 7 C12.28062828 10.42094242 12.21925007 11.68187222 12.125 15.6875 C12.10695313 16.68136719 12.08890625 17.67523438 12.0703125 18.69921875 C12.03550781 19.83810547 12.03550781 19.83810547 12 21 C11.01 21 10.02 21 9 21 C8.67 17.37 8.34 13.74 8 10 C6.35 10.33 4.7 10.66 3 11 C2.67 14.3 2.34 17.6 2 21 C1.34 21 0.68 21 0 21 C0 14.07 0 7.14 0 0 Z " fill="#4584B9" transform="translate(275,398)"/>
<path d="M0 0 C1.60875 -0.04125 3.2175 -0.0825 4.875 -0.125 C5.77992188 -0.14820313 6.68484375 -0.17140625 7.6171875 -0.1953125 C10 0 10 0 12 2 C12.1953125 5.0390625 12.1953125 5.0390625 12.125 8.625 C12.10695313 9.81351562 12.08890625 11.00203125 12.0703125 12.2265625 C12.04710937 13.14179688 12.02390625 14.05703125 12 15 C11.01 15 10.02 15 9 15 C8.67 11.04 8.34 7.08 8 3 C6.68 3 5.36 3 4 3 C3.67 6.63 3.34 10.26 3 14 C2.01 14 1.02 14 0 14 C0 9.38 0 4.76 0 0 Z " fill="#4584B9" transform="translate(386,405)"/>
<path d="M0 0 C7.59 0 15.18 0 23 0 C23.33 1.32 23.66 2.64 24 4 C16.41 4 8.82 4 1 4 C0.67 2.68 0.34 1.36 0 0 Z " fill="#3177B2" transform="translate(379,327)"/>
<path d="M0 0 C0.66 0 1.32 0 2 0 C2.33 3.63 2.66 7.26 3 11 C4.98 11 6.96 11 9 11 C9 7.37 9 3.74 9 0 C9.99 0 10.98 0 12 0 C12 4.95 12 9.9 12 15 C10.68 14.67 9.36 14.34 8 14 C7.67 14.33 7.34 14.66 7 15 C4.5625 15.25 4.5625 15.25 2 15 C-0.35119399 11.47320901 -0.21443452 9.97120515 -0.125 5.8125 C-0.10695313 4.72582031 -0.08890625 3.63914062 -0.0703125 2.51953125 C-0.04710937 1.68808594 -0.02390625 0.85664063 0 0 Z " fill="#4383B9" transform="translate(341,405)"/>
<path d="M0 0 C6.15234375 -0.09765625 6.15234375 -0.09765625 8 0 C9 1 9 1 9.0625 4.5625 C9.041875 5.696875 9.02125 6.83125 9 8 C6.69 8.33 4.38 8.66 2 9 C2 10.98 2 12.96 2 15 C1.34 15 0.68 15 0 15 C0 10.05 0 5.1 0 0 Z " fill="#65686B" transform="translate(178,345)"/>
<path d="M0 0 C1.32 0 2.64 0 4 0 C4 7.26 4 14.52 4 22 C2.68 22 1.36 22 0 22 C0 14.74 0 7.48 0 0 Z " fill="#2E75B1" transform="translate(494,304)"/>
<path d="M0 0 C0.33 0.66 0.66 1.32 1 2 C1.66 2 2.32 2 3 2 C3.08096803 3.45742463 3.13917774 4.91612807 3.1875 6.375 C3.22230469 7.18710937 3.25710938 7.99921875 3.29296875 8.8359375 C3.19628906 9.55007813 3.09960938 10.26421875 3 11 C2.01 11.66 1.02 12.32 0 13 C0 12.01 0 11.02 0 10 C-0.78375 10.20625 -1.5675 10.4125 -2.375 10.625 C-3.24125 10.74875 -4.1075 10.8725 -5 11 C-7 9 -7 9 -7.1875 5.9375 C-7 3 -7 3 -6 2 C-4.33382885 1.95936168 -2.66611905 1.957279 -1 2 C-0.67 1.34 -0.34 0.68 0 0 Z " fill="#E9F0F6" transform="translate(553,346)"/>
<path d="M0 0 C6.93 0 13.86 0 21 0 C21.33 1.32 21.66 2.64 22 4 C14.74 4 7.48 4 0 4 C0 2.68 0 1.36 0 0 Z " fill="#3278B2" transform="translate(310,327)"/>
<path d="M0 0 C1.60875 -0.061875 3.2175 -0.12375 4.875 -0.1875 C5.77992188 -0.22230469 6.68484375 -0.25710938 7.6171875 -0.29296875 C8.79667969 -0.14794922 8.79667969 -0.14794922 10 0 C12.35119399 3.52679099 12.21443452 5.02879485 12.125 9.1875 C12.10695313 10.27417969 12.08890625 11.36085938 12.0703125 12.48046875 C12.03550781 13.72763672 12.03550781 13.72763672 12 15 C11.01 15 10.02 15 9 15 C8.67 11.04 8.34 7.08 8 3 C6.35 3.33 4.7 3.66 3 4 C2.67 7.3 2.34 10.6 2 14 C1.34 14 0.68 14 0 14 C0 9.38 0 4.76 0 0 Z " fill="#2C74B0" transform="translate(310,405)"/>
<path d="M0 0 C2.97 0 5.94 0 9 0 C9 1.32 9 2.64 9 4 C7.68 4 6.36 4 5 4 C4.67 7.96 4.34 11.92 4 16 C2.68 16 1.36 16 0 16 C0 10.72 0 5.44 0 0 Z " fill="#3378B3" transform="translate(498,344)"/>
<path d="M0 0 C1.32 0 2.64 0 4 0 C4 6.93 4 13.86 4 21 C2.68 21 1.36 21 0 21 C0 14.07 0 7.14 0 0 Z " fill="#2972AF" transform="translate(441,339)"/>
<path d="M0 0 C6.93 0 13.86 0 21 0 C21 1.32 21 2.64 21 4 C14.07 4 7.14 4 0 4 C0 2.68 0 1.36 0 0 Z " fill="#3378B3" transform="translate(338,327)"/>
<path d="M0 0 C6.6 0 13.2 0 20 0 C20 1.32 20 2.64 20 4 C13.07 4 6.14 4 -1 4 C-0.67 2.68 -0.34 1.36 0 0 Z " fill="#3177B2" transform="translate(261,327)"/>
<path d="M0 0 C6.93 0 13.86 0 21 0 C21 1.32 21 2.64 21 4 C14.4 4 7.8 4 1 4 C0.67 2.68 0.34 1.36 0 0 Z " fill="#4081B8" transform="translate(136,309)"/>
<path d="M0 0 C0.33 0 0.66 0 1 0 C1 7.26 1 14.52 1 22 C0.01 22 -0.98 22 -2 22 C-2 21.01 -2 20.02 -2 19 C-3.32 19 -4.64 19 -6 19 C-6 16.03 -6 13.06 -6 10 C-4.35 9.67 -2.7 9.34 -1 9 C-0.67 6.03 -0.34 3.06 0 0 Z " fill="#E2ECF4" transform="translate(513,304)"/>
<path d="M0 0 C6.6 0 13.2 0 20 0 C20 1.32 20 2.64 20 4 C13.4 4 6.8 4 0 4 C0 2.68 0 1.36 0 0 Z " fill="#2E75B1" transform="translate(223,327)"/>
<path d="M0 0 C0.99 0 1.98 0 3 0 C3.99862699 7.36487404 4.10331031 14.57313685 4 22 C2.68 22 1.36 22 0 22 C0 14.74 0 7.48 0 0 Z " fill="#2670AE" transform="translate(514,304)"/>
<path d="M0 0 C0 1.65 0 3.3 0 5 C1.65 5 3.3 5 5 5 C5 5.33 5 5.66 5 6 C3.35 6 1.7 6 0 6 C0.33 6.99 0.66 7.98 1 9 C3.64 9.33 6.28 9.66 9 10 C9 10.99 9 11.98 9 13 C7.20906809 13.08086147 5.41710372 13.13912702 3.625 13.1875 C2.12839844 13.23970703 2.12839844 13.23970703 0.6015625 13.29296875 C-0.25695312 13.19628906 -1.11546875 13.09960938 -2 13 C-4.46324069 9.30513897 -4.38991688 7.36706908 -4 3 C-1.77419355 0 -1.77419355 0 0 0 Z " fill="#2E75B1" transform="translate(465,313)"/>
<path d="M0 0 C0.99 0 1.98 0 3 0 C3 1.32 3 2.64 3 4 C3.99 4 4.98 4 6 4 C6 4.66 6 5.32 6 6 C4.35 6 2.7 6 1 6 C0.67 9.3 0.34 12.6 0 16 C1.32 16 2.64 16 4 16 C3.67 16.99 3.34 17.98 3 19 C-1.875 18.125 -1.875 18.125 -3 17 C-2.62206515 13.09467317 -2.23947487 9.7184246 -1 6 C-1.66 6 -2.32 6 -3 6 C-3 5.34 -3 4.68 -3 4 C-2.01 4 -1.02 4 0 4 C0 2.68 0 1.36 0 0 Z " fill="#4182B8" transform="translate(564,401)"/>
<path d="M0 0 C2.9375 0.1875 2.9375 0.1875 3.9375 1.1875 C3.97813832 2.85367115 3.980221 4.52138095 3.9375 6.1875 C1.6275 6.1875 -0.6825 6.1875 -3.0625 6.1875 C-2.7325 7.1775 -2.4025 8.1675 -2.0625 9.1875 C-0.0825 9.1875 1.8975 9.1875 3.9375 9.1875 C3.9375 9.8475 3.9375 10.5075 3.9375 11.1875 C0.5625 11.8125 0.5625 11.8125 -3.0625 12.1875 C-5.0625 10.1875 -5.0625 10.1875 -5.328125 8.3125 C-5.32296875 7.61125 -5.3178125 6.91 -5.3125 6.1875 C-5.31765625 5.48625 -5.3228125 4.785 -5.328125 4.0625 C-4.82973343 0.54444188 -3.335244 0.20419861 0 0 Z " fill="#6D7072" transform="translate(198.0625,348.8125)"/>
<path d="M0 0 C0.33 0.99 0.66 1.98 1 3 C-0.134375 2.979375 -1.26875 2.95875 -2.4375 2.9375 C-5.81575674 2.58422523 -5.81575674 2.58422523 -7 4 C-7.23075082 5.34747084 -7.41153063 6.70377565 -7.5625 8.0625 C-7.7790625 10.0115625 -7.7790625 10.0115625 -8 12 C-4.535 11.505 -4.535 11.505 -1 11 C-1.33 11.99 -1.66 12.98 -2 14 C-5.375 14.625 -5.375 14.625 -9 15 C-11 13 -11 13 -11.375 9.1875 C-11.27917196 6.09281805 -10.92297023 4.85210283 -9.4375 2 C-6.19404435 -0.66129695 -4.08234623 -0.39253329 0 0 Z " fill="#3E80B7" transform="translate(502,405)"/>
<path d="M0 0 C3.625 -0.1875 3.625 -0.1875 7 0 C7.33 0.99 7.66 1.98 8 3 C6.02 3 4.04 3 2 3 C2 5.64 2 8.28 2 11 C3.98 11 5.96 11 8 11 C8 11.99 8 12.98 8 14 C4.6875 14.6875 4.6875 14.6875 1 15 C-0.7109375 13.80078125 -0.7109375 13.80078125 -2 12 C-2.36328125 9.84375 -2.36328125 9.84375 -2.3125 7.5 C-2.30863281 6.7265625 -2.30476563 5.953125 -2.30078125 5.15625 C-2 3 -2 3 0 0 Z " fill="#3479B3" transform="translate(405,405)"/>
<path d="M0 0 C1.134375 0.020625 2.26875 0.04125 3.4375 0.0625 C3.4375 0.7225 3.4375 1.3825 3.4375 2.0625 C1.4575 2.0625 -0.5225 2.0625 -2.5625 2.0625 C-1.83981765 5.3610139 -1.83981765 5.3610139 1.5 6.75 C2.469375 7.183125 3.43875 7.61625 4.4375 8.0625 C4.625 10.4375 4.625 10.4375 4.4375 13.0625 C1.20958445 15.2144437 0.15349191 15.26336443 -3.5625 15.0625 C-3.8925 14.0725 -4.2225 13.0825 -4.5625 12.0625 C-2.5825 12.0625 -0.6025 12.0625 1.4375 12.0625 C0.74864204 8.85188622 0.74864204 8.85188622 -2.125 7.6875 C-2.929375 7.15125 -3.73375 6.615 -4.5625 6.0625 C-4.9375 3.4375 -4.9375 3.4375 -4.5625 1.0625 C-3.5625 0.0625 -3.5625 0.0625 0 0 Z " fill="#3278B2" transform="translate(331.5625,404.9375)"/>
<path d="M0 0 C2.33294775 -0.04241723 4.66702567 -0.04092937 7 0 C8 1 8 1 8.09765625 3.28515625 C8.08605469 4.20167969 8.07445312 5.11820312 8.0625 6.0625 C8.05347656 6.98160156 8.04445313 7.90070313 8.03515625 8.84765625 C8.02355469 9.55792969 8.01195312 10.26820313 8 11 C5.36 11 2.72 11 0 11 C-0.38218767 9.34385343 -0.71395102 7.67542976 -1 6 C0 5 0 5 3.0625 4.9375 C4.5165625 4.9684375 4.5165625 4.9684375 6 5 C5.67 4.01 5.34 3.02 5 2 C3.35 2 1.7 2 0 2 C0 1.34 0 0.68 0 0 Z " fill="#717476" transform="translate(343,349)"/>
<path d="M0 0 C4.75 0.875 4.75 0.875 7 2 C7 6.62 7 11.24 7 16 C5.68 16 4.36 16 3 16 C2.96261719 15.15695312 2.92523438 14.31390625 2.88671875 13.4453125 C2.82097656 12.34960938 2.75523437 11.25390625 2.6875 10.125 C2.62949219 9.03445313 2.57148438 7.94390625 2.51171875 6.8203125 C2.34285156 5.88960938 2.17398437 4.95890625 2 4 C1.01 3.34 0.02 2.68 -1 2 C-0.67 1.34 -0.34 0.68 0 0 Z " fill="#2E75B1" transform="translate(456,344)"/>
<path d="M0 0 C6.93359375 -0.09765625 6.93359375 -0.09765625 9 0 C10 1 10 1 10.09765625 3.28515625 C10.08605469 4.20167969 10.07445312 5.11820312 10.0625 6.0625 C10.05347656 6.98160156 10.04445313 7.90070313 10.03515625 8.84765625 C10.02355469 9.55792969 10.01195312 10.26820313 10 11 C9.34 11 8.68 11 8 11 C7.67 8.36 7.34 5.72 7 3 C6.01 3 5.02 3 4 3 C3.67 5.97 3.34 8.94 3 12 C2.01 11.67 1.02 11.34 0 11 C0 7.37 0 3.74 0 0 Z " fill="#7C7E80" transform="translate(378,349)"/>
<path d="M0 0 C1.4540625 0.0309375 1.4540625 0.0309375 2.9375 0.0625 C2.9375 0.7225 2.9375 1.3825 2.9375 2.0625 C1.2875 2.3925 -0.3625 2.7225 -2.0625 3.0625 C-2.0625 3.7225 -2.0625 4.3825 -2.0625 5.0625 C0.40076712 6.7071674 0.40076712 6.7071674 2.9375 8.0625 C2.625 10.4375 2.625 10.4375 1.9375 13.0625 C-1.29041555 15.2144437 -2.34650809 15.26336443 -6.0625 15.0625 C-6.3925 14.0725 -6.7225 13.0825 -7.0625 12.0625 C-4.7525 12.0625 -2.4425 12.0625 -0.0625 12.0625 C-1.19554992 8.66335025 -2.18768475 8.00995549 -5.0625 6.0625 C-3.98897059 0.08140756 -3.98897059 0.08140756 0 0 Z " fill="#3277B2" transform="translate(554.0625,404.9375)"/>
<path d="M0 0 C1.65 0.33 3.3 0.66 5 1 C4.5020163 4.73487777 4.12508244 6.81237635 2 10 C-0.625 10.1875 -0.625 10.1875 -3 10 C-3.36923077 4.58461538 -3.36923077 4.58461538 -1.5 1.625 C-1.005 1.08875 -0.51 0.5525 0 0 Z " fill="#EAF1F7" transform="translate(519,407)"/>
<path d="M0 0 C4.62 0 9.24 0 14 0 C14 0.66 14 1.32 14 2 C12.02 2 10.04 2 8 2 C8 7.61 8 13.22 8 19 C7.34 19 6.68 19 6 19 C6 13.39 6 7.78 6 2 C4.02 2 2.04 2 0 2 C0 1.34 0 0.68 0 0 Z " fill="#256FAD" transform="translate(140,400)"/>
<path d="M0 0 C0.8971875 0.5259375 0.8971875 0.5259375 1.8125 1.0625 C1.8125 3.0425 1.8125 5.0225 1.8125 7.0625 C-1.1575 7.0625 -4.1275 7.0625 -7.1875 7.0625 C-7.5175 7.7225 -7.8475 8.3825 -8.1875 9.0625 C-8.55377907 3.56831395 -8.55377907 3.56831395 -6.875 1.25 C-4.33099783 -0.54022375 -2.93305311 -1.25702276 0 0 Z " fill="#518CBE" transform="translate(231.1875,405.9375)"/>
<path d="M0 0 C0.25 6.625 0.25 6.625 -2 10 C-4.625 10.1875 -4.625 10.1875 -7 10 C-7.22432841 6.70985003 -7.30380397 4.57722754 -5.75 1.625 C-4 0 -4 0 0 0 Z " fill="#F1F5F9" transform="translate(468,407)"/>
<path d="M0 0 C0 0.99 0 1.98 0 3 C-0.969375 2.979375 -1.93875 2.95875 -2.9375 2.9375 C-5.87465895 2.64381501 -5.87465895 2.64381501 -7 4 C-7.16666667 7.5 -7.16666667 7.5 -7 11 C-5.03177114 12.96822886 -1.65191291 12.66248381 1 13 C0.67 13.66 0.34 14.32 0 15 C-6.3782235 15.48137536 -6.3782235 15.48137536 -8.9375 13.5 C-10.53330773 9.74515828 -10.3886759 7.08109691 -10 3 C-7.8202924 -1.102979 -4.20798751 -0.23818797 0 0 Z " fill="#707275" transform="translate(336,345)"/>
<path d="M0 0 C1.32 0 2.64 0 4 0 C5.5778125 -0.0309375 5.5778125 -0.0309375 7.1875 -0.0625 C10 0 10 0 11 1 C11.23961213 5.23314767 11.32488647 8.36736489 9 12 C8.01 11.67 7.02 11.34 6 11 C6.66 8.03 7.32 5.06 8 2 C5.08482708 3.07401108 3.22189824 3.77810176 1 6 C0 5 0 5 -0.0625 2.4375 C-0.041875 1.633125 -0.02125 0.82875 0 0 Z " fill="#397CB5" transform="translate(460,405)"/>
<path d="M0 0 C0.66 0 1.32 0 2 0 C2 1.32 2 2.64 2 4 C3.32 4 4.64 4 6 4 C6 4.66 6 5.32 6 6 C4.68 6 3.36 6 2 6 C2 9.3 2 12.6 2 16 C3.32 16 4.64 16 6 16 C6 16.66 6 17.32 6 18 C4.33388095 18.042721 2.66617115 18.04063832 1 18 C0 17 0 17 -0.09765625 14.49609375 C-0.08605469 13.48675781 -0.07445312 12.47742188 -0.0625 11.4375 C-0.05347656 10.42558594 -0.04445313 9.41367187 -0.03515625 8.37109375 C-0.02355469 7.58863281 -0.01195312 6.80617188 0 6 C-0.99 6 -1.98 6 -3 6 C-3 5.34 -3 4.68 -3 4 C-2.01 4 -1.02 4 0 4 C0 2.68 0 1.36 0 0 Z " fill="#2F76B1" transform="translate(264,401)"/>
<path d="M0 0 C0.99 0 1.98 0 3 0 C3 6.27 3 12.54 3 19 C2.01 19 1.02 19 0 19 C0 12.73 0 6.46 0 0 Z " fill="#4584B9" transform="translate(301,400)"/>
<path d="M0 0 C2.64 0 5.28 0 8 0 C8 0.66 8 1.32 8 2 C7.35546875 2.22429687 6.7109375 2.44859375 6.046875 2.6796875 C3.75611148 3.82889456 3.75611148 3.82889456 3.390625 6.3828125 C3.34421875 7.28773438 3.2978125 8.19265625 3.25 9.125 C3.19328125 10.03507812 3.1365625 10.94515625 3.078125 11.8828125 C3.03945313 12.93082031 3.03945313 12.93082031 3 14 C2.01 14 1.02 14 0 14 C0 9.38 0 4.76 0 0 Z " fill="#4584B9" transform="translate(358,405)"/>
<path d="M0 0 C0.66 0 1.32 0 2 0 C1.39700836 7.23589973 -0.1150587 13.99370876 -2 21 C-2.66 21 -3.32 21 -4 21 C-2.50462963 2.50462963 -2.50462963 2.50462963 0 0 Z " fill="#3579B3" transform="translate(535,398)"/>
<path d="M0 0 C6.15234375 -0.09765625 6.15234375 -0.09765625 8 0 C9 1 9 1 9.09765625 3.28515625 C9.08605469 4.20167969 9.07445312 5.11820312 9.0625 6.0625 C9.05347656 6.98160156 9.04445313 7.90070313 9.03515625 8.84765625 C9.02355469 9.55792969 9.01195312 10.26820313 9 11 C8.34 11 7.68 11 7 11 C7 8.03 7 5.06 7 2 C5.68 2.33 4.36 2.66 3 3 C2.67 5.64 2.34 8.28 2 11 C1.34 11 0.68 11 0 11 C0 7.37 0 3.74 0 0 Z " fill="#737678" transform="translate(249,349)"/>
<path d="M0 0 C3.53571429 0.53571429 3.53571429 0.53571429 5 2 C5.1875 4.4375 5.1875 4.4375 5 7 C4.34 7.66 3.68 8.32 3 9 C-0.53571429 8.46428571 -0.53571429 8.46428571 -2 7 C-2.1875 4.5625 -2.1875 4.5625 -2 2 C-1.34 1.34 -0.68 0.68 0 0 Z " fill="#EAEAEB" transform="translate(236,350)"/>
<path d="M0 0 C6.0546875 -0.1953125 6.0546875 -0.1953125 8 0 C10 2 10 2 10.1953125 4.8203125 C10.16050781 6.45613281 10.16050781 6.45613281 10.125 8.125 C10.10695313 9.22070312 10.08890625 10.31640625 10.0703125 11.4453125 C10.04710937 12.28835938 10.02390625 13.13140625 10 14 C7.69 14 5.38 14 3 14 C3.66 13.67 4.32 13.34 5 13 C7.17282569 11.23173046 7.17282569 11.23173046 7.265625 9.01953125 C7.25140615 7.01111857 7.13142025 5.00415878 7 3 C4.69 3 2.38 3 0 3 C0 2.01 0 1.02 0 0 Z " fill="#2F76B1" transform="translate(370,405)"/>
<path d="M0 0 C13.2 0 26.4 0 40 0 C39.67 0.66 39.34 1.32 39 2 C28.11 1.67 17.22 1.34 6 1 C6 1.66 6 2.32 6 3 C3.5625 2.625 3.5625 2.625 1 2 C0.67 1.34 0.34 0.68 0 0 Z " fill="#4383B8" transform="translate(146,327)"/>
<path d="M0 0 C1.65 0 3.3 0 5 0 C5.33 1.98 5.66 3.96 6 6 C2.6875 6.6875 2.6875 6.6875 -1 7 C-2.9375 5.5625 -2.9375 5.5625 -4 4 C-3.67 3.01 -3.34 2.02 -3 1 C-3 1.66 -3 2.32 -3 3 C-2.34 3 -1.68 3 -1 3 C-0.67 2.01 -0.34 1.02 0 0 Z " fill="#5891C0" transform="translate(241,413)"/>
<path d="M0 0 C1.98 0 3.96 0 6 0 C6 0.66 6 1.32 6 2 C4.68 2 3.36 2 2 2 C3.63412443 3.70840281 4.86906094 4.93453047 7 6 C6.67 7.65 6.34 9.3 6 11 C4.02 11.33 2.04 11.66 0 12 C-0.33 11.01 -0.66 10.02 -1 9 C0.65 9 2.3 9 4 9 C4.33 8.34 4.66 7.68 5 7 C2.525 6.01 2.525 6.01 0 5 C0 3.35 0 1.7 0 0 Z " fill="#818486" transform="translate(220,349)"/>
<path d="M0 0 C2 4 2 4 2.625 6.1875 C3.82980519 8.16952728 3.82980519 8.16952728 5.90625 8.47265625 C7.92934755 8.72554344 9.96538823 8.86873472 12 9 C11.67 9.99 11.34 10.98 11 12 C4.77777778 12.47863248 4.77777778 12.47863248 1.5625 10.5 C-0.71029038 6.86353539 -0.28281164 4.24217465 0 0 Z " fill="#518CBE" transform="translate(417,408)"/>
<path d="M0 0 C0.66 0 1.32 0 2 0 C2.88826175 7.18808741 3.01202288 13.82242235 2 21 C1.34 21 0.68 21 0 21 C0 14.07 0 7.14 0 0 Z " fill="#246EAD" transform="translate(275,398)"/>
<path d="M0 0 C1.99954746 -0.04254356 4.00041636 -0.04080783 6 0 C7 1 7 1 7.0625 3.5625 C7.041875 4.366875 7.02125 5.17125 7 6 C6.01 6.33 5.02 6.66 4 7 C3.67 7.66 3.34 8.32 3 9 C0.87491756 5.81237635 0.4979837 3.73487777 0 0 Z " fill="#A5A7A8" transform="translate(300,344)"/>
<path d="M0 0 C0.99 0 1.98 0 3 0 C2.34 4.62 1.68 9.24 1 14 C0.01 14.33 -0.98 14.66 -2 15 C-1.03644647 4.44191344 -1.03644647 4.44191344 0 0 Z " fill="#4685BA" transform="translate(507,405)"/>
<path d="M0 0 C3.5625 0.1875 3.5625 0.1875 5.5625 2.1875 C5.6875 4.8125 5.6875 4.8125 5.5625 7.1875 C2.5925 7.1875 -0.3775 7.1875 -3.4375 7.1875 C-3.4375 6.8575 -3.4375 6.5275 -3.4375 6.1875 C-1.1275 6.1875 1.1825 6.1875 3.5625 6.1875 C3.2325 5.1975 2.9025 4.2075 2.5625 3.1875 C-1.15349191 2.98663557 -2.20958445 3.0355563 -5.4375 5.1875 C-4.31932898 0.23559976 -4.31932898 0.23559976 0 0 Z " fill="#3077B2" transform="translate(181.4375,404.8125)"/>
<path d="M0 0 C0.99 0 1.98 0 3 0 C2.34 4.62 1.68 9.24 1 14 C0.01 14.33 -0.98 14.66 -2 15 C-1.47462276 9.9697924 -0.89405214 4.98114761 0 0 Z " fill="#4484B9" transform="translate(541,405)"/>
<path d="M0 0 C0.66 0 1.32 0 2 0 C2 6.27 2 12.54 2 19 C1.34 19 0.68 19 0 19 C-0.8931507 12.41816638 -0.95494281 6.57849492 0 0 Z " fill="#206CAC" transform="translate(213,400)"/>
<path d="M0 0 C1.99954746 -0.04254356 4.00041636 -0.04080783 6 0 C7 1 7 1 7.09765625 3.28515625 C7.08605469 4.20167969 7.07445312 5.11820312 7.0625 6.0625 C7.05347656 6.98160156 7.04445313 7.90070313 7.03515625 8.84765625 C7.02355469 9.55792969 7.01195312 10.26820313 7 11 C6.34 10.67 5.68 10.34 5 10 C5 8.68 5 7.36 5 6 C3.35 6.33 1.7 6.66 0 7 C-0.33 7.99 -0.66 8.98 -1 10 C-0.67 8.35 -0.34 6.7 0 5 C1.65 5 3.3 5 5 5 C4.67 4.01 4.34 3.02 4 2 C2.35 2 0.7 2 -1 2 C-0.67 1.34 -0.34 0.68 0 0 Z " fill="#6B6E71" transform="translate(266,349)"/>
<path d="M0 0 C0 0.99 0 1.98 0 3 C-1.093125 2.896875 -2.18625 2.79375 -3.3125 2.6875 C-5.1378125 2.8421875 -5.1378125 2.8421875 -7 3 C-8.9354148 5.39056942 -8.9354148 5.39056942 -10 8 C-10.33 8 -10.66 8 -11 8 C-11.48038431 2.59567654 -11.48038431 2.59567654 -9.4375 0.0625 C-6.03339271 -1.42134164 -3.56538192 -0.75421541 0 0 Z " fill="#558FBF" transform="translate(455,400)"/>
<path d="M0 0 C0.99 0 1.98 0 3 0 C3 3.96 3 7.92 3 12 C2.01 12 1.02 12 0 12 C0 8.04 0 4.08 0 0 Z " fill="#518CBE" transform="translate(319,408)"/>
<path d="M0 0 C0.33 0 0.66 0 1 0 C1.33 2.31 1.66 4.62 2 7 C3.98 7 5.96 7 8 7 C8 7.99 8 8.98 8 10 C5.69 10.33 3.38 10.66 1 11 C-0.625 9.4375 -0.625 9.4375 -2 7 C-1.1875 3.25 -1.1875 3.25 0 0 Z " fill="#5991C1" transform="translate(405,409)"/>
<path d="M0 0 C0.66 0 1.32 0 2 0 C3.26237731 2.52475462 3.09856404 4.31200466 3.0625 7.125 C3.05347656 8.03507812 3.04445313 8.94515625 3.03515625 9.8828125 C3.02355469 10.58148438 3.01195312 11.28015625 3 12 C2.01 11.67 1.02 11.34 0 11 C0 7.37 0 3.74 0 0 Z " fill="#8F9193" transform="translate(378,349)"/>
<path d="M0 0 C-1.98 0.99 -1.98 0.99 -4 2 C-4 2.99 -4 3.98 -4 5 C-2.68 5.66 -1.36 6.32 0 7 C-1 8 -1 8 -4.0625 8.0625 C-5.031875 8.041875 -6.00125 8.02125 -7 8 C-7.6875 5.6875 -7.6875 5.6875 -8 3 C-5.90994325 -0.36731366 -3.75103888 -0.30413829 0 0 Z " fill="#216CAC" transform="translate(486,318)"/>
<path d="M0 0 C0.33 0 0.66 0 1 0 C1 2.31 1 4.62 1 7 C5.455 6.505 5.455 6.505 10 6 C9.67 6.99 9.34 7.98 9 9 C5.625 9.625 5.625 9.625 2 10 C0 8 0 8 -0.1953125 6.0546875 C-0.13020833 4.03645833 -0.06510417 2.01822917 0 0 Z " fill="#4F8BBD" transform="translate(491,410)"/>
<path d="M0 0 C0.99 0.33 1.98 0.66 3 1 C2.67 2.32 2.34 3.64 2 5 C2.99 5.33 3.98 5.66 5 6 C5 6.66 5 7.32 5 8 C3.00045254 8.04254356 0.99958364 8.04080783 -1 8 C-2 7 -2 7 -2.1875 4.5625 C-2 2 -2 2 0 0 Z " fill="#256FAE" transform="translate(511,352)"/>
<path d="M0 0 C1.98 0 3.96 0 6 0 C6 0.66 6 1.32 6 2 C5.01 2.33 4.02 2.66 3 3 C2.67 5.64 2.34 8.28 2 11 C1.34 11 0.68 11 0 11 C0 7.37 0 3.74 0 0 Z " fill="#787A7D" transform="translate(209,349)"/>
<path d="M0 0 C1.69141656 0.08963062 3.37959602 0.24577676 5.0625 0.4375 C6.44115234 0.59025391 6.44115234 0.59025391 7.84765625 0.74609375 C8.55792969 0.82988281 9.26820313 0.91367187 10 1 C9.67 1.99 9.34 2.98 9 4 C2.47692308 4.36923077 2.47692308 4.36923077 0.0625 2.5 C-0.4634375 1.7575 -0.4634375 1.7575 -1 1 C-0.67 0.67 -0.34 0.34 0 0 Z " fill="#5A92C1" transform="translate(177,416)"/>
<path d="M0 0 C0.33 0 0.66 0 1 0 C1.1875 2.375 1.1875 2.375 1 5 C-2.22791555 7.1519437 -3.28400809 7.20086443 -7 7 C-7.33 6.01 -7.66 5.02 -8 4 C-6.02 4 -4.04 4 -2 4 C-1.67 3.01 -1.34 2.02 -1 1 C-0.67 0.67 -0.34 0.34 0 0 Z " fill="#558FBF" transform="translate(335,413)"/>
<path d="M0 0 C1.66666667 1.66666667 3.33333333 3.33333333 5 5 C5.598125 5.515625 6.19625 6.03125 6.8125 6.5625 C8 8 8 8 8 12 C7.34 12 6.68 12 6 12 C6 10.68 6 9.36 6 8 C5.195625 7.855625 4.39125 7.71125 3.5625 7.5625 C1 7 1 7 0 6 C-0.04080783 4.00041636 -0.04254356 1.99954746 0 0 Z " fill="#2A73B0" transform="translate(445,403)"/>
<path d="M0 0 C1.98 0 3.96 0 6 0 C6 0.66 6 1.32 6 2 C5.01 2.33 4.02 2.66 3 3 C2.67 5.64 2.34 8.28 2 11 C1.34 11 0.68 11 0 11 C0 7.37 0 3.74 0 0 Z " fill="#707275" transform="translate(358,349)"/>
<path d="M0 0 C0.33 1.32 0.66 2.64 1 4 C-1.35968744 6.09749995 -2.54616994 6.96905704 -5.75 7.1875 C-6.86375 7.0946875 -6.86375 7.0946875 -8 7 C-8.33 6.01 -8.66 5.02 -9 4 C-7.88625 3.896875 -6.7725 3.79375 -5.625 3.6875 C-4.42875 3.460625 -3.2325 3.23375 -2 3 C-1.34 2.01 -0.68 1.02 0 0 Z " fill="#548EBF" transform="translate(556,413)"/>
<path d="M0 0 C0 1.65 0 3.3 0 5 C-2.70879335 6.35439668 -5.00933268 6.06501451 -8 6 C-8 5.34 -8 4.68 -8 4 C-6.02 4 -4.04 4 -2 4 C-2 3.01 -2 2.02 -2 1 C-3.65 1 -5.3 1 -7 1 C-3.375 -1.125 -3.375 -1.125 0 0 Z " fill="#838587" transform="translate(403,359)"/>
<path d="M0 0 C0.33 1.65 0.66 3.3 1 5 C-0.98 5.33 -2.96 5.66 -5 6 C-5.33 5.34 -5.66 4.68 -6 4 C-5.67 3.01 -5.34 2.02 -5 1 C-3 0 -3 0 0 0 Z " fill="#BABCBD" transform="translate(271,355)"/>
<path d="M0 0 C1.65 0 3.3 0 5 0 C5 1.65 5 3.3 5 5 C3.35 5.33 1.7 5.66 0 6 C0 4.02 0 2.04 0 0 Z " fill="#EAEAEB" transform="translate(180,347)"/>
<path d="M0 0 C0.66 0 1.32 0 2 0 C1.95875 0.94875 1.9175 1.8975 1.875 2.875 C1.65026182 6.10244856 1.65026182 6.10244856 4 8 C0.04 8 -3.92 8 -8 8 C-8 7.67 -8 7.34 -8 7 C-7.195625 6.87625 -6.39125 6.7525 -5.5625 6.625 C-4.716875 6.41875 -3.87125 6.2125 -3 6 C-2.67 5.34 -2.34 4.68 -2 4 C-1.34 4 -0.68 4 0 4 C0 2.68 0 1.36 0 0 Z " fill="#696B6E" transform="translate(308,352)"/>
<path d="M0 0 C1.65 0 3.3 0 5 0 C5.33 1.32 5.66 2.64 6 4 C3.69 4 1.38 4 -1 4 C-0.67 2.68 -0.34 1.36 0 0 Z " fill="#E2EBF4" transform="translate(421,407)"/>
<path d="M0 0 C1.65 0.33 3.3 0.66 5 1 C5.33 1.99 5.66 2.98 6 4 C3.36 4 0.72 4 -2 4 C-1.34 2.68 -0.68 1.36 0 0 Z " fill="#DEE9F2" transform="translate(225,407)"/>
<path d="M0 0 C1.65 0 3.3 0 5 0 C5.33 1.32 5.66 2.64 6 4 C3.69 4 1.38 4 -1 4 C-0.67 2.68 -0.34 1.36 0 0 Z " fill="#E1EBF3" transform="translate(179,407)"/>
<path d="M0 0 C0.99 0.495 0.99 0.495 2 1 C2.309375 1.99 2.61875 2.98 2.9375 4 C3.288125 4.99 3.63875 5.98 4 7 C4.99 7.33 5.98 7.66 7 8 C7 8.66 7 9.32 7 10 C2.25 9.25 2.25 9.25 0 7 C-0.125 3.375 -0.125 3.375 0 0 Z " fill="#7D7F81" transform="translate(232,351)"/>
<path d="M0 0 C0.33 0 0.66 0 1 0 C1.33 2.31 1.66 4.62 2 7 C2.99 7.33 3.98 7.66 5 8 C5 8.66 5 9.32 5 10 C0.125 9.125 0.125 9.125 -1 8 C-1.125 4.5 -1.125 4.5 -1 1 C-0.67 0.67 -0.34 0.34 0 0 Z " fill="#3177B2" transform="translate(515,410)"/>
<path d="M0 0 C2.97 0 5.94 0 9 0 C9 0.66 9 1.32 9 2 C6.29120665 3.35439668 3.99066732 3.06501451 1 3 C0.67 2.01 0.34 1.02 0 0 Z " fill="#558FBF" transform="translate(476,417)"/>
<path d="M0 0 C0 0.99 0 1.98 0 3 C-1.98 3 -3.96 3 -6 3 C-6 2.34 -6 1.68 -6 1 C-6.66 0.67 -7.32 0.34 -8 0 C-4.71023192 -1.09658936 -3.28696233 -0.79953138 0 0 Z " fill="#D7E5F0" transform="translate(517,348)"/>
<path d="M0 0 C1.134375 0.020625 2.26875 0.04125 3.4375 0.0625 C3.4375 1.0525 3.4375 2.0425 3.4375 3.0625 C2.07625 3.000625 2.07625 3.000625 0.6875 2.9375 C-2.4407046 3.05781556 -3.94864006 3.4539708 -6.5625 5.0625 C-4.14811644 0.07277397 -4.14811644 0.07277397 0 0 Z " fill="#7C7F81" transform="translate(332.5625,344.9375)"/>
<path d="M0 0 C1.485 0.99 1.485 0.99 3 2 C3 2.66 3 3.32 3 4 C4.32 4 5.64 4 7 4 C6.67 4.99 6.34 5.98 6 7 C1.125 6.125 1.125 6.125 0 5 C-0.04063832 3.33382885 -0.042721 1.66611905 0 0 Z " fill="#6398C5" transform="translate(561,413)"/>
<path d="M0 0 C1.65 0 3.3 0 5 0 C5 0.99 5 1.98 5 3 C2.69 3.33 0.38 3.66 -2 4 C-1.34 2.68 -0.68 1.36 0 0 Z " fill="#D9E6F0" transform="translate(480,407)"/>
<path d="M0 0 C1.65 1.65 3.3 3.3 5 5 C3.35 5.33 1.7 5.66 0 6 C-0.38218767 4.34385343 -0.71395102 2.67542976 -1 1 C-0.67 0.67 -0.34 0.34 0 0 Z " fill="#E7E8E8" transform="translate(301,353)"/>
<path d="M0 0 C0 0.66 0 1.32 0 2 C-4.455 2.495 -4.455 2.495 -9 3 C-9 2.34 -9 1.68 -9 1 C-6.04335481 -0.4783226 -3.25770263 -0.06032783 0 0 Z " fill="#5D94C2" transform="translate(233,417)"/>
<path d="M0 0 C1.65 0 3.3 0 5 0 C4.67 1.32 4.34 2.64 4 4 C2.35 4 0.7 4 -1 4 C-0.67 2.68 -0.34 1.36 0 0 Z " fill="#EDF3F8" transform="translate(241,413)"/>
<path d="M0 0 C0.33 0 0.66 0 1 0 C1.36923077 6.4 1.36923077 6.4 -0.5 9.4375 C-0.995 9.953125 -1.49 10.46875 -2 11 C-2.28571429 3.57142857 -2.28571429 3.57142857 0 0 Z " fill="#3177B2" transform="translate(564,406)"/>
<path d="M0 0 C0.66 0.99 1.32 1.98 2 3 C5.08365871 3.2502157 5.08365871 3.2502157 8 3 C8 3.66 8 4.32 8 5 C5.69 5.33 3.38 5.66 1 6 C-0.0625 4.125 -0.0625 4.125 -1 2 C-0.67 1.34 -0.34 0.68 0 0 Z " fill="#87898B" transform="translate(194,355)"/>
<path d="M0 0 C1.65 0.33 3.3 0.66 5 1 C5 1.99 5 2.98 5 4 C3.02 4 1.04 4 -1 4 C-0.67 2.68 -0.34 1.36 0 0 Z " fill="#C7DAEA" transform="translate(561,347)"/>
<path d="M0 0 C0.33 1.32 0.66 2.64 1 4 C-2.4352048 6.29013653 -3.985331 6.17842973 -8 6 C-8.33 6.99 -8.66 7.98 -9 9 C-9 7.68 -9 6.36 -9 5 C-7.02 5 -5.04 5 -3 5 C-3 4.34 -3 3.68 -3 3 C-1.5 1.375 -1.5 1.375 0 0 Z " fill="#6096C3" transform="translate(486,407)"/>
<path d="M0 0 C0.66 0 1.32 0 2 0 C2 2.31 2 4.62 2 7 C1.01 7 0.02 7 -1 7 C-1.625 4.625 -1.625 4.625 -2 2 C-1.34 1.34 -0.68 0.68 0 0 Z " fill="#7F8183" transform="translate(299,352)"/>
<path d="M0 0 C1.98 0 3.96 0 6 0 C6.33 1.32 6.66 2.64 7 4 C5.35 4 3.7 4 2 4 C2 3.34 2 2.68 2 2 C1.34 2 0.68 2 0 2 C0 1.34 0 0.68 0 0 Z " fill="#E0E1E1" transform="translate(342,350)"/>
<path d="M0 0 C0 0.33 0 0.66 0 1 C-1.65 1.33 -3.3 1.66 -5 2 C-4.01 2.66 -3.02 3.32 -2 4 C-4.31 4.33 -6.62 4.66 -9 5 C-8.625 3.0625 -8.625 3.0625 -8 1 C-5.29120665 -0.35439668 -2.99066732 -0.06501451 0 0 Z " fill="#5F95C3" transform="translate(487,310)"/>
<path d="M0 0 C1.65 0 3.3 0 5 0 C5 1.32 5 2.64 5 4 C3.35 4 1.7 4 0 4 C0 2.68 0 1.36 0 0 Z " fill="#F1F5F9" transform="translate(372,413)"/>
<path d="M0 0 C0 2.31 0 4.62 0 7 C-0.66 6.67 -1.32 6.34 -2 6 C-2 4.35 -2 2.7 -2 1 C-3.65 1 -5.3 1 -7 1 C-3.375 -1.125 -3.375 -1.125 0 0 Z " fill="#7E8082" transform="translate(187,346)"/>
<path d="M0 0 C1.98 0 3.96 0 6 0 C6 0.99 6 1.98 6 3 C3.69 3.33 1.38 3.66 -1 4 C-0.67 2.68 -0.34 1.36 0 0 Z " fill="#F0F5F9" transform="translate(480,314)"/>
<path d="M0 0 C2.31 0 4.62 0 7 0 C7.33 0.66 7.66 1.32 8 2 C7.34 2.66 6.68 3.32 6 4 C6 3.34 6 2.68 6 2 C4.02 2.33 2.04 2.66 0 3 C0 2.01 0 1.02 0 0 Z " fill="#3A7DB5" transform="translate(479,405)"/>
<path d="M0 0 C2.97 0.495 2.97 0.495 6 1 C6 1.99 6 2.98 6 4 C4.35 4 2.7 4 1 4 C0.67 2.68 0.34 1.36 0 0 Z " fill="#4282B8" transform="translate(466,356)"/>
<path d="M0 0 C2.31 0 4.62 0 7 0 C7 0.66 7 1.32 7 2 C5.02 2 3.04 2 1 2 C0.67 2.66 0.34 3.32 0 4 C0 2.68 0 1.36 0 0 Z " fill="#3E7FB7" transform="translate(328,405)"/>
<path d="M0 0 C0.66 0 1.32 0 2 0 C1.67 2.97 1.34 5.94 1 9 C-1.08954032 4.82091936 -1.16552619 4.19589427 0 0 Z " fill="#4C89BC" transform="translate(535,398)"/>
<path d="M0 0 C1.32 0 2.64 0 4 0 C3.67 1.32 3.34 2.64 3 4 C1.68 4 0.36 4 -1 4 C-0.67 2.68 -0.34 1.36 0 0 Z " fill="#DBE7F1" transform="translate(513,353)"/>
<path d="M0 0 C0.99 0 1.98 0 3 0 C3 1.65 3 3.3 3 5 C1.68 4.67 0.36 4.34 -1 4 C-0.67 2.68 -0.34 1.36 0 0 Z " fill="#E3E4E4" transform="translate(397,350)"/>
<path d="M0 0 C1.98 0.495 1.98 0.495 4 1 C4 1.99 4 2.98 4 4 C2.35 4 0.7 4 -1 4 C-0.67 2.68 -0.34 1.36 0 0 Z " fill="#DADBDB" transform="translate(196,350)"/>
<path d="M0 0 C1.36125 0.12375 1.36125 0.12375 2.75 0.25 C2.75 0.58 2.75 0.91 2.75 1.25 C1.63625 1.37375 1.63625 1.37375 0.5 1.5 C-2.76221354 2.3896946 -4.05954878 3.73503749 -6.25 6.25 C-6.58 5.59 -6.91 4.93 -7.25 4.25 C-4.83923194 1.28290085 -3.90322061 0.30024774 0 0 Z " fill="#4785BA" transform="translate(563.25,343.75)"/>
<path d="M0 0 C1.65 0 3.3 0 5 0 C4.67 1.32 4.34 2.64 4 4 C2.68 3.67 1.36 3.34 0 3 C0 2.01 0 1.02 0 0 Z " fill="#D7E4EF" transform="translate(481,320)"/>
<path d="M0 0 C0.33 0.99 0.66 1.98 1 3 C3.01508358 3.73323796 3.01508358 3.73323796 5 4 C5 4.66 5 5.32 5 6 C3.35 6 1.7 6 0 6 C-1 3 -1 3 0 0 Z " fill="#6A9CC7" transform="translate(371,414)"/>
<path d="M0 0 C1.32 0 2.64 0 4 0 C3.67 1.32 3.34 2.64 3 4 C1.68 3.67 0.36 3.34 -1 3 C-0.67 2.01 -0.34 1.02 0 0 Z " fill="#E2E2E3" transform="translate(345,355)"/>
<path d="M0 0 C1.65 0 3.3 0 5 0 C5.33 0.99 5.66 1.98 6 3 C4.02 3 2.04 3 0 3 C0 2.01 0 1.02 0 0 Z " fill="#DBE7F1" transform="translate(465,314)"/>
</svg>
