<?xml version="1.0" encoding="UTF-8"?>
<svg version="1.1" xmlns="http://www.w3.org/2000/svg" width="600" height="600">
<path d="M0 0 C198 0 396 0 600 0 C600 198 600 396 600 600 C402 600 204 600 0 600 C0 402 0 204 0 0 Z " fill="#FEFEFE" transform="translate(0,0)"/>
<path d="M0 0 C125.73 0 251.46 0 381 0 C381 125.07 381 250.14 381 379 C255.27 379 129.54 379 0 379 C0 253.93 0 128.86 0 0 Z " fill="#115DAA" transform="translate(113,72)"/>
<path d="M0 0 C135.63 0 271.26 0 411 0 C411 134.31 411 268.62 411 407 C275.37 407 139.74 407 0 407 C0 272.69 0 138.38 0 0 Z M15 14 C15 139.07 15 264.14 15 393 C140.73 393 266.46 393 396 393 C396 267.93 396 142.86 396 14 C270.27 14 144.54 14 15 14 Z " fill="#FAFBFC" transform="translate(98,58)"/>
<path d="M0 0 C144.21 0 288.42 0 437 0 C437 142.89 437 285.78 437 433 C292.79 433 148.58 433 0 433 C0 290.11 0 147.22 0 0 Z M13 13 C13 147.31 13 281.62 13 420 C148.63 420 284.26 420 424 420 C424 285.69 424 151.38 424 13 C288.37 13 152.74 13 13 13 Z " fill="#1861AC" transform="translate(85,45)"/>
<path d="M0 0 C11.55 0 23.1 0 35 0 C37.94386703 6.47650747 40.82413118 12.83984194 43.375 19.45703125 C43.66681152 20.20732101 43.95862305 20.95761078 44.25927734 21.7306366 C44.86901947 23.30039021 45.47724907 24.87073215 46.08398438 26.44165039 C46.99486028 28.79919728 47.91109763 31.15460565 48.828125 33.50976562 C51.97903697 41.62550761 55.03317903 49.75792805 57.88378906 57.98486328 C59.35888872 61.96943913 61.12547539 65.77985293 62.984375 69.59765625 C64 72 64 72 65 77 C53.78 77 42.56 77 31 77 C29.96875 74.339375 28.9375 71.67875 27.875 68.9375 C24.63883136 60.60247091 21.33963813 52.29404635 18 44 C15.95132544 47.07301184 14.76768855 49.90844652 13.43359375 53.34765625 C13.19463882 53.96015732 12.9556839 54.57265839 12.70948792 55.20372009 C11.94877655 57.15535077 11.19294628 59.10882597 10.4375 61.0625 C9.67757319 63.01937762 8.91663918 64.97585754 8.15480042 66.93199158 C7.46517289 68.70401259 6.77829648 70.47710353 6.09155273 72.25024414 C5 75 5 75 4 77 C-6.89 77 -17.78 77 -29 77 C-28.22517535 72.3510521 -27.38867974 69.02665 -25.6875 64.75 C-25.27886719 63.71359375 -24.87023437 62.6771875 -24.44921875 61.609375 C-23.68904554 59.71611343 -22.92885162 57.82286017 -22.16845703 55.9296875 C-18.90964447 47.80061805 -15.70599354 39.65000168 -12.5 31.5 C-9.02173995 22.65786577 -5.54159713 13.81701559 -2 5 C-1.34 3.35 -0.68 1.7 0 0 Z " fill="#FAFBFC" transform="translate(243,140)"/>
<path d="M0 0 C11.55 0 23.1 0 35 0 C36.711875 4.186875 38.42375 8.37375 40.1875 12.6875 C40.71625732 13.97873779 41.24501465 15.26997559 41.78979492 16.6003418 C44.57227839 23.41843314 47.27574617 30.2607461 49.90356445 37.13989258 C51.23330001 40.60857485 52.60946489 44.0552653 54 47.5 C56.36433639 53.37702083 58.66290948 59.27682284 60.921875 65.1953125 C61.62253613 67.01804689 62.36044418 68.82704657 63.140625 70.6171875 C64 73 64 73 64 77 C53.11 77 42.22 77 31 77 C26.71 66.11 22.42 55.22 18 44 C15.38617504 46.61382496 14.46084755 49.58349991 13.1796875 52.9765625 C12.94580322 53.58395264 12.71191895 54.19134277 12.47094727 54.81713867 C11.59978744 57.08418872 10.73795022 59.35481229 9.875 61.625 C7.93625 66.69875 5.9975 71.7725 4 77 C-6.89 77 -17.78 77 -29 77 C-28.07808357 72.39041783 -26.81704511 68.27913924 -25.25 63.875 C-24.98123047 63.11509766 -24.71246094 62.35519531 -24.43554688 61.57226562 C-22.95638066 57.4564769 -21.37439626 53.45570639 -19.5 49.5 C-17.49136582 45.25533908 -15.88604117 40.94059998 -14.375 36.5 C-10.15029889 24.11520002 -4.98326778 12.0935401 0 0 Z " fill="#FBFBFC" transform="translate(396,140)"/>
<path d="M0 0 C24.75 0 49.5 0 75 0 C75 7.92 75 15.84 75 24 C68.07 24 61.14 24 54 24 C54 41.49 54 58.98 54 77 C42.78 77 31.56 77 20 77 C20 59.51 20 42.02 20 24 C13.4 24 6.8 24 0 24 C0 16.08 0 8.16 0 0 Z " fill="#FBFCFD" transform="translate(300,140)"/>
<path d="M0 0 C24.75 0 49.5 0 75 0 C75 7.92 75 15.84 75 24 C68.07 24 61.14 24 54 24 C54 41.49 54 58.98 54 77 C42.78 77 31.56 77 20 77 C20 59.51 20 42.02 20 24 C13.4 24 6.8 24 0 24 C0 16.08 0 8.16 0 0 Z " fill="#FBFCFD" transform="translate(147,140)"/>
<path d="M0 0 C0.99 0 1.98 0 3 0 C3.43642822 1.07854248 3.87285645 2.15708496 4.32250977 3.26831055 C4.614991 3.99107681 4.90747223 4.71384308 5.20881653 5.45851135 C5.87666193 7.10891243 6.54445588 8.75933433 7.21220398 10.40977478 C9.09858531 15.07182422 10.98621393 19.73336303 12.87597656 24.39404297 C16.35282678 32.97148311 19.82668149 41.54981062 23.25572205 50.14649963 C24.5982426 53.51118473 25.94621237 56.87367394 27.29464722 60.23599243 C27.92625882 61.81543504 28.55515273 63.39596743 29.18118286 64.97763062 C33.8166132 79.17753947 33.8166132 79.17753947 43.8125 89 C45.3903125 89.495 45.3903125 89.495 47 90 C47 90.66 47 91.32 47 92 C35.78 92 24.56 92 13 92 C13 91.34 13 90.68 13 90 C13.94875 89.690625 14.8975 89.38125 15.875 89.0625 C18.86080408 88.12605258 18.86080408 88.12605258 21 87 C21.45532435 80.87751371 19.96405723 76.61695 17.5 71.0625 C16.345 68.401875 15.19 65.74125 14 63 C3.11 63 -7.78 63 -19 63 C-20.155 65.475 -21.31 67.95 -22.5 70.5 C-22.86544922 71.26248047 -23.23089844 72.02496094 -23.60742188 72.81054688 C-25.85324956 77.78599734 -26.34365587 81.55059985 -26 87 C-23.03 87.99 -20.06 88.98 -17 90 C-17 90.66 -17 91.32 -17 92 C-25.91 92 -34.82 92 -44 92 C-44 91.01 -44 90.02 -44 89 C-42.91493164 88.62593018 -41.82986328 88.25186035 -40.71191406 87.86645508 C-36.70675414 86.13240031 -35.43951085 84.14970427 -33.609375 80.13671875 C-33.32801697 79.53075363 -33.04665894 78.92478851 -32.7567749 78.30046082 C-31.80442837 76.21345818 -30.89783892 74.1110082 -30 72 C-29.66653564 71.22062073 -29.33307129 70.44124146 -28.98950195 69.63824463 C-26.33618483 63.39252366 -23.78903756 57.10532902 -21.25 50.8125 C-20.4563689 48.85809023 -19.66217501 46.90390891 -18.86743164 44.94995117 C-16.92623559 40.17412498 -14.99081775 35.39598889 -13.0581665 30.61669922 C-10.99686972 25.51939773 -8.93271676 20.42325677 -6.86425781 15.32885742 C-5.93495464 13.03851628 -5.00838241 10.74706455 -4.08496094 8.4543457 C-3.68438477 7.46523193 -3.28380859 6.47611816 -2.87109375 5.45703125 C-2.53005615 4.61116455 -2.18901855 3.76529785 -1.83764648 2.89379883 C-1 1 -1 1 0 0 Z " fill="#F3F6FA" transform="translate(234,236)"/>
<path d="M0 0 C3.09862352 0.94305933 5.6548354 1.02834117 8.875 0.875 C9.205 -0.445 9.535 -1.765 9.875 -3.125 C10.865 -3.125 11.855 -3.125 12.875 -3.125 C13.81966756 0.11578125 14.06598828 3.14725655 14.19140625 6.515625 C14.23330078 7.58554688 14.27519531 8.65546875 14.31835938 9.7578125 C14.35767578 10.86898437 14.39699219 11.98015625 14.4375 13.125 C14.48068359 14.25164062 14.52386719 15.37828125 14.56835938 16.5390625 C14.67432015 19.31758954 14.77639142 22.09620391 14.875 24.875 C11.875 23.875 11.875 23.875 10.515625 21.36328125 C9.82726562 19.79126953 9.82726562 19.79126953 9.125 18.1875 C5.50427783 10.65997392 1.58121336 6.69125477 -6.16918945 3.49243164 C-9.59202584 2.41187326 -12.93295128 2.34291501 -16.5 2.375 C-17.24878418 2.38144531 -17.99756836 2.38789063 -18.76904297 2.39453125 C-27.10849174 2.67003575 -32.11891453 5.54796268 -37.875 11.5 C-47.54672884 23.33099854 -47.94311315 36.32490156 -47.125 50.875 C-45.59876047 62.05139969 -40.86429476 73.43835484 -32.125 80.875 C-25.09001375 85.37870615 -18.39889309 87.00433886 -10.125 85.875 C-5.96912221 84.9216599 -1.94669561 83.7858478 1.875 81.875 C1.97385708 76.94545354 2.04646125 72.01648353 2.09472656 67.08618164 C2.11484565 65.40899608 2.14214451 63.73188069 2.17675781 62.05493164 C2.22526569 59.644518 2.24796464 57.23503128 2.265625 54.82421875 C2.28627014 54.07412033 2.30691528 53.32402191 2.32818604 52.55119324 C2.34437782 48.32174399 2.34437782 48.32174399 0.05371094 44.92114258 C-2.64680694 43.62444613 -5.1607465 43.21184699 -8.125 42.875 C-8.125 41.885 -8.125 40.895 -8.125 39.875 C2.765 39.875 13.655 39.875 24.875 39.875 C24.875 40.865 24.875 41.855 24.875 42.875 C23.740625 43.184375 22.60625 43.49375 21.4375 43.8125 C18.08724901 44.50424531 18.08724901 44.50424531 16.875 45.875 C16.71482834 48.68476518 16.61549466 51.47273596 16.55859375 54.28515625 C16.5274221 55.54820839 16.5274221 55.54820839 16.49562073 56.83677673 C16.43003188 59.53693179 16.37119724 62.23718717 16.3125 64.9375 C16.26932363 66.76368241 16.22570964 68.58985454 16.18164062 70.41601562 C16.07434106 74.90223992 15.97310034 79.3885655 15.875 83.875 C13.29267086 84.85688561 10.70921317 85.83559589 8.125 86.8125 C7.39539063 87.09029297 6.66578125 87.36808594 5.9140625 87.65429688 C5.20507812 87.92177734 4.49609375 88.18925781 3.765625 88.46484375 C3.11625977 88.71097412 2.46689453 88.95710449 1.79785156 89.21069336 C-3.88488866 91.1739661 -9.28322202 91.09478847 -15.25 91.125 C-16.24515625 91.145625 -17.2403125 91.16625 -18.265625 91.1875 C-30.96975009 91.25384008 -41.43828636 87.36474068 -50.64453125 78.4296875 C-56.37474203 71.91074124 -59.58726059 65.13398226 -62.125 56.875 C-62.42857422 55.91980469 -62.42857422 55.91980469 -62.73828125 54.9453125 C-65.43529266 40.50676656 -61.84471053 28.01439212 -54.125 15.875 C-48.83537855 8.74380663 -43.06043687 3.82317302 -35.125 -0.125 C-34.51527344 -0.46402344 -33.90554688 -0.80304688 -33.27734375 -1.15234375 C-23.33729938 -5.8929803 -9.88994285 -3.56037943 0 0 Z " fill="#F4F6FA" transform="translate(394.125,239.125)"/>
<path d="M0 0 C3.63 0 7.26 0 11 0 C11.66 7.92 12.32 15.84 13 24 C13.28875 22.081875 13.5775 20.16375 13.875 18.1875 C14.80914569 12.10220808 15.87032568 6.0518267 17 0 C21.62 0 26.24 0 31 0 C31.41572266 2.34738281 31.41572266 2.34738281 31.83984375 4.7421875 C32.20556711 6.78648733 32.57146137 8.83075659 32.9375 10.875 C33.21110352 12.42380859 33.21110352 12.42380859 33.49023438 14.00390625 C33.66748047 14.99003906 33.84472656 15.97617187 34.02734375 16.9921875 C34.18968506 17.90339355 34.35202637 18.81459961 34.51928711 19.75341797 C34.90673787 22.02194696 34.90673787 22.02194696 36 24 C36.66 16.08 37.32 8.16 38 0 C41.3 0 44.6 0 48 0 C47.54476436 4.48939829 47.07590146 8.97690766 46.5703125 13.4609375 C46.44293701 14.59861572 46.44293701 14.59861572 46.31298828 15.75927734 C45.88553547 18.81946603 45.18181415 21.79143277 44.47314453 24.796875 C44.00657893 26.96936623 43.69058839 29.1064765 43.4296875 31.3125 C43.29046875 32.48123657 43.29046875 32.48123657 43.1484375 33.67358398 C42.75457435 37.11461158 42.37162992 40.55649294 42 44 C37.71 44 33.42 44 29 44 C28.78065796 42.59923218 28.78065796 42.59923218 28.55688477 41.17016602 C28.01408352 37.71634819 27.46764608 34.26314723 26.91870117 30.81030273 C26.68155423 29.31379013 26.44587294 27.81704451 26.21166992 26.32006836 C25.87540632 24.172389 25.53393617 22.02559393 25.19140625 19.87890625 C24.98717041 18.5854126 24.78293457 17.29191895 24.57250977 15.95922852 C24.31044494 13.12380384 24.31044494 13.12380384 23 12 C22.91959473 12.61407715 22.83918945 13.2281543 22.75634766 13.86083984 C22.38267599 16.69935859 22.0038631 19.53716968 21.625 22.375 C21.43550781 23.82326172 21.43550781 23.82326172 21.2421875 25.30078125 C20.39714988 31.59631152 19.30692371 37.78358895 18 44 C13.71 44 9.42 44 5 44 C4.83564453 42.16501953 4.83564453 42.16501953 4.66796875 40.29296875 C3.75936847 30.52405029 2.62924592 20.85387951 0.96557617 11.18237305 C0.31582535 7.34696287 0 3.91781429 0 0 Z " fill="#1A63AD" transform="translate(30,508)"/>
<path d="M0 0 C3.3 0 6.6 0 10 0 C10.82648125 6.00067056 11.2788367 11.95134401 11.5625 18 C11.706875 20.97 11.85125 23.94 12 27 C13.32 18.09 14.64 9.18 16 0 C20.62 0 25.24 0 30 0 C30.67599332 3.33168136 31.34100506 6.66495128 32 10 C32.19078125 10.93457031 32.3815625 11.86914062 32.578125 12.83203125 C33.6554671 18.33417128 34.21153456 23.39433428 34 29 C34.66 29 35.32 29 36 29 C35.98839844 27.99582031 35.97679687 26.99164062 35.96484375 25.95703125 C35.89642649 17.25093469 36.16802915 8.67626745 37 0 C40.3 0 43.6 0 47 0 C46.61481245 7.75688039 45.67847168 15.26918875 44.16357422 22.87890625 C42.78383053 29.88089388 41.86499148 36.91724624 41 44 C37.04 44 33.08 44 29 44 C28.79503906 42.94039062 28.59007812 41.88078125 28.37890625 40.7890625 C28.10692334 39.40101178 27.83477956 38.01299256 27.5625 36.625 C27.42779297 35.92632813 27.29308594 35.22765625 27.15429688 34.5078125 C26.4227578 30.64371266 26.4227578 30.64371266 25 27 C24.6087065 24.45802036 24.25520881 21.92608411 23.9375 19.375 C23.84662109 18.66859375 23.75574219 17.9621875 23.66210938 17.234375 C23.43816881 15.4899959 23.21866182 13.74504866 23 12 C20.78225851 14.21774149 20.9686252 18.86138875 20.5 21.9375 C20.3654541 22.80109131 20.2309082 23.66468262 20.09228516 24.55444336 C19.40429796 29.05005467 18.78930326 33.53189342 18.375 38.0625 C18 42 18 42 17 44 C13.04 44 9.08 44 5 44 C4.35275496 39.83354822 3.70715755 35.66685223 3.0625 31.5 C2.88009766 30.32695313 2.69769531 29.15390625 2.50976562 27.9453125 C1.05498921 18.52894149 -0.13254129 9.54297287 0 0 Z " fill="#1962AD" transform="translate(415,508)"/>
<path d="M0 0 C12.21 0 24.42 0 37 0 C37 0.99 37 1.98 37 3 C35.01432292 3.16276042 33.02864583 3.32552083 31.04296875 3.48828125 C28.38756826 4.15340069 27.6181673 4.77610883 26 7 C25.55487279 10.31364416 25.55487279 10.31364416 25.64355469 14.17773438 C25.64151031 14.90487137 25.63946594 15.63200836 25.63735962 16.38117981 C25.63435064 18.7856254 25.65283222 21.18938587 25.671875 23.59375 C25.67493267 25.26379222 25.67680873 26.93383698 25.67755127 28.60388184 C25.68215513 32.10434729 25.69658372 35.60458281 25.71875 39.10498047 C25.74703238 43.5942489 25.75796151 48.08333618 25.7624321 52.57268524 C25.7665873 56.02131974 25.77640563 59.46991755 25.78830719 62.91853333 C25.79400854 64.57395636 25.7987677 66.22938292 25.80257416 67.8848114 C25.80944227 70.19735924 25.82307738 72.50976363 25.83886719 74.82226562 C25.84910919 76.79725037 25.84910919 76.79725037 25.85955811 78.81213379 C25.85501833 82.02200075 25.85501833 82.02200075 27 85 C30.44450737 87.29633824 32.93812283 87.54016485 37 88 C37 88.66 37 89.32 37 90 C24.79 90 12.58 90 0 90 C0 89.34 0 88.68 0 88 C0.61488281 87.91363281 1.22976563 87.82726562 1.86328125 87.73828125 C2.67152344 87.59777344 3.47976563 87.45726562 4.3125 87.3125 C5.11300781 87.18488281 5.91351563 87.05726563 6.73828125 86.92578125 C9.92882103 85.61980901 10.52451749 84.08938163 12 81 C12.4460304 77.5689533 12.4460304 77.5689533 12.37231445 73.77880859 C12.37596512 73.07088669 12.37961578 72.36296478 12.38337708 71.6335907 C12.39145138 69.30495862 12.37790182 66.97702912 12.36328125 64.6484375 C12.36276238 63.02609253 12.36328112 61.40374693 12.36479187 59.78140259 C12.36470229 56.3870501 12.35430078 52.99293586 12.33618164 49.59863281 C12.31345868 45.24611647 12.31295844 40.89394694 12.31969929 36.54138756 C12.32303851 33.19396883 12.31641068 29.84662932 12.30657005 26.49922562 C12.30271967 24.89404337 12.30156917 23.28885231 12.3031559 21.68366623 C12.30352632 19.44307357 12.29091444 17.20292791 12.2746582 14.96240234 C12.27005081 13.68730804 12.26544342 12.41221375 12.26069641 11.09848022 C12.23708477 7.83239062 12.23708477 7.83239062 10 5 C7.58392583 4.20201782 7.58392583 4.20201782 4.875 3.8125 C3.50988281 3.57466797 3.50988281 3.57466797 2.1171875 3.33203125 C1.41851562 3.22246094 0.71984375 3.11289063 0 3 C0 2.01 0 1.02 0 0 Z " fill="#F8F9FB" transform="translate(286,238)"/>
<path d="M0 0 C0.75539063 -0.02449219 1.51078125 -0.04898437 2.2890625 -0.07421875 C6.2537369 -0.0950125 8.17353308 0.08705653 11.6015625 2.2734375 C16.21661243 7.06667469 14.8866656 13.64621091 14.92016602 19.9230957 C14.93735651 22.16875573 14.98124 24.41293433 15.02539062 26.65820312 C15.03552001 28.09113503 15.04403535 29.52407943 15.05078125 30.95703125 C15.06536377 32.25874268 15.07994629 33.5604541 15.0949707 34.90161133 C14.5494435 38.93341161 13.47438695 40.53184229 10.625 43.375 C6.95934562 45.37061118 3.76457428 45.67165979 -0.375 45.6875 C-1.385625 45.70425781 -2.39625 45.72101562 -3.4375 45.73828125 C-6.80897061 45.32133076 -8.65010039 44.3710366 -11.375 42.375 C-16.04701878 35.70068746 -15.62341818 29.43601964 -15.6875 21.5625 C-15.71650391 20.38623047 -15.74550781 19.20996094 -15.77539062 17.99804688 C-15.85525957 7.12972593 -15.85525957 7.12972593 -11.375 2.375 C-7.56534402 -0.16477065 -4.41664491 0.00746055 0 0 Z " fill="#1B63AE" transform="translate(258.375,507.625)"/>
<path d="M0 0 C3.96 0 7.92 0 12 0 C12 5.61 12 11.22 12 17 C14.31 17 16.62 17 19 17 C19 11.39 19 5.78 19 0 C22.63 0 26.26 0 30 0 C30 14.52 30 29.04 30 44 C26.37 44 22.74 44 19 44 C19 37.4 19 30.8 19 24 C16.69 24 14.38 24 12 24 C12 30.6 12 37.2 12 44 C8.04 44 4.08 44 0 44 C0 29.48 0 14.96 0 0 Z " fill="#1D65AE" transform="translate(142,508)"/>
<path d="M0 0 C3.63 0 7.26 0 11 0 C11.33 11.88 11.66 23.76 12 36 C13.65 36.33 15.3 36.66 17 37 C17.33 24.79 17.66 12.58 18 0 C21.96 0 25.92 0 30 0 C30.074557 4.71391399 30.12879273 9.42747929 30.16479492 14.1418457 C30.17981466 15.74314356 30.20023663 17.34440075 30.22631836 18.94555664 C30.26300438 21.25677571 30.27979435 23.56744756 30.29296875 25.87890625 C30.30845261 26.58648575 30.32393646 27.29406525 30.33988953 28.02308655 C30.34159923 33.1552011 29.35617387 36.53745925 27 41 C24.4375 42.875 24.4375 42.875 22 44 C21.01 44.495 21.01 44.495 20 45 C18.04450744 45.12257461 16.08429382 45.17552388 14.125 45.1875 C13.07570313 45.20167969 12.02640625 45.21585938 10.9453125 45.23046875 C7.89935132 44.99212431 6.44981684 44.7886738 4 43 C-0.10712886 38.00866429 -0.55443973 34.49644746 -0.390625 28.3203125 C-0.38496521 27.50754852 -0.37930542 26.69478455 -0.37347412 25.85739136 C-0.35120838 23.27931055 -0.30103315 20.70265569 -0.25 18.125 C-0.2299222 16.36981184 -0.21167367 14.61460174 -0.1953125 12.859375 C-0.15137612 8.57237311 -0.08241911 4.28642773 0 0 Z " fill="#1C64AE" transform="translate(284,508)"/>
<path d="M0 0 C4.95 0 9.9 0 15 0 C16.43086751 5.00803628 17.68594585 9.92769285 18.7265625 15.015625 C18.87910492 15.75327087 19.03164734 16.49091675 19.18881226 17.25091553 C19.50773415 18.79688699 19.82531357 20.34313596 20.14160156 21.88964844 C20.62664872 24.25805042 21.11775055 26.62514311 21.609375 28.9921875 C21.91963391 30.49992533 22.22954221 32.00773536 22.5390625 33.515625 C22.68590485 34.22189026 22.83274719 34.92815552 22.98403931 35.65582275 C23.56160131 38.49799341 24 41.09056985 24 44 C20.37 44 16.74 44 13 44 C11.5216774 41.04335481 11.93967217 38.25770263 12 35 C8.7 35 5.4 35 2 35 C1.67 37.97 1.34 40.94 1 44 C-2.3 44 -5.6 44 -9 44 C-8.41062532 35.46225292 -6.58350251 27.47548891 -4.5 19.1875 C-3.86256772 16.61898542 -3.22841558 14.04966937 -2.59375 11.48046875 C-2.17125977 9.79280396 -2.17125977 9.79280396 -1.74023438 8.07104492 C-1.09532904 5.39549605 -0.53974583 2.69872916 0 0 Z " fill="#1A63AD" transform="translate(357,508)"/>
<path d="M0 0 C4.95 0 9.9 0 15 0 C15.95919586 4.45814932 16.91738261 8.9165116 17.875 13.375 C18.14441406 14.62667969 18.41382813 15.87835937 18.69140625 17.16796875 C19.8727029 22.67108241 21.0511031 28.1749163 22.1875 33.6875 C22.34347656 34.44160156 22.49945313 35.19570313 22.66015625 35.97265625 C23.11164547 38.66602296 23.14328678 41.27755127 23 44 C19.37 44 15.74 44 12 44 C12 41.03 12 38.06 12 35 C8.7 35 5.4 35 2 35 C1.67 37.97 1.34 40.94 1 44 C-2.3 44 -5.6 44 -9 44 C-8.31260132 36.1415904 -6.74713237 28.57502229 -5.0625 20.875 C-4.79759766 19.63878906 -4.53269531 18.40257812 -4.25976562 17.12890625 C-3.00634641 11.33767403 -1.63068413 5.70739445 0 0 Z " fill="#1B63AD" transform="translate(476,508)"/>
<path d="M0 0 C3.30319898 1.22298371 3.87102106 1.99438268 6 5 C6.46464191 7.85649174 6.29734847 10.0760734 6 13 C2.37 13 -1.26 13 -5 13 C-5.33 11.02 -5.66 9.04 -6 7 C-6.99 7 -7.98 7 -9 7 C-9.90151418 11.08999361 -9.90151418 11.08999361 -9 15 C-6.16484664 17.39325445 -3.23160793 19.19805101 -0.015625 21.04296875 C3.59979615 23.38924595 6.45637574 25.73989285 7.49609375 30.0625 C7.36234082 34.48526356 6.92777336 37.46648043 4 41 C-2.2444604 45.26450954 -7.48907672 45.90091909 -15 45 C-18.23307772 43.38043957 -20.36183145 41.2763371 -22 38 C-22.13415472 35.3276379 -22.04318541 32.67749512 -22 30 C-18.37 30 -14.74 30 -11 30 C-10.34 32.31 -9.68 34.62 -9 37 C-8.01 37 -7.02 37 -6 37 C-5.09573975 32.90935032 -5.09573975 32.90935032 -6 29 C-8.87112572 26.60958026 -11.83495042 24.79975932 -15.08203125 22.95703125 C-18.21978636 20.85259308 -19.477181 19.42504342 -21 16 C-21.63960072 12.58879617 -21.61706619 9.41630281 -21 6 C-15.32203599 -1.32158518 -8.73748587 -0.8519544 0 0 Z " fill="#1B63AD" transform="translate(561,508)"/>
<path d="M0 0 C8 0 8 0 9.94628906 1.28173828 C10.38166992 1.87196777 10.81705078 2.46219727 11.265625 3.0703125 C11.76320312 3.72 12.26078125 4.3696875 12.7734375 5.0390625 C13.26070312 5.72742188 13.74796875 6.41578125 14.25 7.125 C14.75273437 7.79015625 15.25546875 8.4553125 15.7734375 9.140625 C18.66805752 13.00517005 21.31774448 16.97661672 24 21 C24.33 14.07 24.66 7.14 25 0 C27.31 0 29.62 0 32 0 C32 11.22 32 22.44 32 34 C25 34 25 34 22.59375 31.9453125 C21.55734375 30.54925781 21.55734375 30.54925781 20.5 29.125 C19.7471875 28.12855469 18.994375 27.13210938 18.21875 26.10546875 C17.4865625 25.08066406 16.754375 24.05585938 16 23 C15.3090625 22.04738281 14.618125 21.09476562 13.90625 20.11328125 C9.37972509 13.75945017 9.37972509 13.75945017 8 11 C7.67 18.59 7.34 26.18 7 34 C4.69 34 2.38 34 0 34 C0 22.78 0 11.56 0 0 Z " fill="#EFF3F8" transform="translate(167,348)"/>
<path d="M0 0 C3.63 0 7.26 0 11 0 C12.9539022 5.68407912 14.53223414 11.12893655 16 17 C17.32 11.39 18.64 5.78 20 0 C23.3 0 26.6 0 30 0 C28.91580528 5.69202228 27.48212385 10.623645 25 15.859375 C23.05669438 20.0192636 21.75625093 23.45518317 21.5859375 28.08203125 C21.54726562 29.01337891 21.50859375 29.94472656 21.46875 30.90429688 C21.4378125 31.86400391 21.406875 32.82371094 21.375 33.8125 C21.33632812 34.79154297 21.29765625 35.77058594 21.2578125 36.77929688 C21.16389629 39.1858998 21.08087436 41.59292351 21 44 C17.04 44 13.08 44 9 44 C8.99613281 42.00453125 8.99613281 42.00453125 8.9921875 39.96875 C8.8176019 29.24420574 7.79178321 20.30075054 3.47265625 10.4453125 C1.98795613 6.9718231 0.96445801 3.64350802 0 0 Z " fill="#1D65AE" transform="translate(206,508)"/>
<path d="M0 0 C3.96 0 7.92 0 12 0 C13.32 5.61 14.64 11.22 16 17 C17.27523882 11.78036061 17.27523882 11.78036061 18.54272461 6.55883789 C19.88888889 1.11111111 19.88888889 1.11111111 21 0 C22.68608966 -0.07205511 24.37500659 -0.08386068 26.0625 -0.0625 C26.98160156 -0.05347656 27.90070312 -0.04445313 28.84765625 -0.03515625 C29.55792969 -0.02355469 30.26820313 -0.01195312 31 0 C29.94855909 3.37095124 28.76184 6.60635634 27.30859375 9.8203125 C22.2375836 21.31889168 20.90853236 31.4820005 21 44 C17.37 44 13.74 44 10 44 C9.96261719 42.72125 9.92523438 41.4425 9.88671875 40.125 C9.82101258 38.4166396 9.75456689 36.70830753 9.6875 35 C9.66494141 34.16082031 9.64238281 33.32164062 9.61914062 32.45703125 C9.37526043 26.73693212 8.29197976 22.22404407 6 17 C5.46195881 15.67043466 4.92679783 14.33970011 4.39453125 13.0078125 C3.59547529 11.04272673 2.79354561 9.0789359 1.98632812 7.1171875 C0 2.21857378 0 2.21857378 0 0 Z " fill="#1A62AD" transform="translate(502,508)"/>
<path d="M0 0 C15 0 15 0 21 3 C23.4915904 6.7373856 23.45793285 8.57331583 23 13 C21.20573857 15.69139215 19.27765827 17.72234173 17 20 C17.5053125 20.84304688 18.010625 21.68609375 18.53125 22.5546875 C19.1809375 23.65039062 19.830625 24.74609375 20.5 25.875 C21.1496875 26.96554687 21.799375 28.05609375 22.46875 29.1796875 C24 32 24 32 24 34 C18.97927461 35.05699482 18.97927461 35.05699482 16 34 C13.09197971 30.28208247 11.02480752 26.2520958 9 22 C8.67 25.96 8.34 29.92 8 34 C5.36 34 2.72 34 0 34 C0 22.78 0 11.56 0 0 Z " fill="#EAF0F6" transform="translate(286,348)"/>
<path d="M0 0 C8 0 8 0 10.16162109 1.6965332 C10.69352051 2.47343506 11.22541992 3.25033691 11.7734375 4.05078125 C12.37027344 4.89447266 12.96710938 5.73816406 13.58203125 6.60742188 C14.17371094 7.50009766 14.76539063 8.39277344 15.375 9.3125 C15.98988281 10.19357422 16.60476563 11.07464844 17.23828125 11.98242188 C18.85252118 14.30487867 20.43473173 16.64437332 22 19 C22.66 19.99 23.32 20.98 24 22 C24.33 15.07 24.66 8.14 25 1 C26.98 1 28.96 1 31 1 C31 11.89 31 22.78 31 34 C24 34 24 34 21.33984375 31.4375 C20.5159755 30.30815251 19.71558764 29.1613631 18.9375 28 C18.54240234 27.44699219 18.14730469 26.89398438 17.74023438 26.32421875 C16.48016999 24.55891115 15.24042768 22.77916057 14 21 C12.02 18.36 10.04 15.72 8 13 C7.67 19.93 7.34 26.86 7 34 C4.69 34 2.38 34 0 34 C0 22.78 0 11.56 0 0 Z " fill="#F5F7FA" transform="translate(360,348)"/>
<path d="M0 0 C3.96 0 7.92 0 12 0 C12 12.21 12 24.42 12 37 C16.29 37 20.58 37 25 37 C25 39.31 25 41.62 25 44 C16.75 44 8.5 44 0 44 C0 29.48 0 14.96 0 0 Z " fill="#2368B0" transform="translate(388,508)"/>
<path d="M0 0 C2.97 0 5.94 0 9 0 C10.7154487 4.35743741 12.42425649 8.71739779 14.12695312 13.07983398 C14.70716309 14.56362037 15.28918376 16.04670004 15.87304688 17.52905273 C16.71180241 19.65946325 17.54402056 21.79232763 18.375 23.92578125 C18.63748535 24.58838455 18.8999707 25.25098785 19.17041016 25.93367004 C20.27483362 28.78572234 21 30.91109914 21 34 C18.36 34 15.72 34 13 34 C12.34 31.69 11.68 29.38 11 27 C6.38 27 1.76 27 -3 27 C-3.33 29.31 -3.66 31.62 -4 34 C-6.64 34 -9.28 34 -12 34 C-9.8298389 26.30040211 -7.15907228 18.84781973 -4.3125 11.375 C-3.89677734 10.27542969 -3.48105469 9.17585938 -3.05273438 8.04296875 C-2.03818089 5.36081585 -1.02055394 2.67987417 0 0 Z " fill="#EFF3F8" transform="translate(329,348)"/>
<path d="M0 0 C9.57 0 19.14 0 29 0 C29 2.31 29 4.62 29 7 C26.03 7 23.06 7 20 7 C20 19.21 20 31.42 20 44 C16.37 44 12.74 44 9 44 C9 31.79 9 19.58 9 7 C6.03 7 3.06 7 0 7 C0 4.69 0 2.38 0 0 Z " fill="#1761AC" transform="translate(106,508)"/>
<path d="M0 0 C2.64 0 5.28 0 8 0 C8.01458252 0.74161377 8.02916504 1.48322754 8.04418945 2.24731445 C8.11859457 5.60290631 8.21528006 8.95749494 8.3125 12.3125 C8.33505859 13.47974609 8.35761719 14.64699219 8.38085938 15.84960938 C8.41630859 16.96787109 8.45175781 18.08613281 8.48828125 19.23828125 C8.51446533 20.26993408 8.54064941 21.30158691 8.56762695 22.36450195 C8.80605554 25.01067524 8.80605554 25.01067524 10.30932617 26.86791992 C12.1547566 28.34245023 12.1547566 28.34245023 15.5625 27.875 C19.25442394 27.34366067 19.25442394 27.34366067 21 24 C21.36749389 21.38710506 21.36749389 21.38710506 21.4140625 18.45703125 C21.45273437 17.38388672 21.49140625 16.31074219 21.53125 15.20507812 C21.57765625 13.52575195 21.57765625 13.52575195 21.625 11.8125 C21.66367187 10.68134766 21.70234375 9.55019531 21.7421875 8.38476562 C21.83652533 5.5900075 21.92211652 2.79525722 22 0 C24.31 0 26.62 0 29 0 C29.11625936 4.56228541 29.18727408 9.12418928 29.25 13.6875 C29.30027344 15.62786133 29.30027344 15.62786133 29.3515625 17.60742188 C29.36445313 18.85458984 29.37734375 20.10175781 29.390625 21.38671875 C29.41157227 22.53358154 29.43251953 23.68044434 29.45410156 24.86206055 C28.90400477 28.66334771 27.63765246 30.26689198 25 33 C20.12167823 36.38600815 13.64730421 35.69451319 8 35 C3.99000794 33.13954158 1.60149424 30.07538376 0 26 C-0.22705078 23.15917969 -0.22705078 23.15917969 -0.1953125 19.921875 C-0.18886719 18.76171875 -0.18242187 17.6015625 -0.17578125 16.40625 C-0.15902344 15.1996875 -0.14226562 13.993125 -0.125 12.75 C-0.11597656 11.52796875 -0.10695312 10.3059375 -0.09765625 9.046875 C-0.07409513 6.03105218 -0.04119706 3.01562508 0 0 Z " fill="#EDF2F8" transform="translate(244,348)"/>
<path d="M0 0 C3.19220162 2.64508535 4.35636546 5.74723594 5.91796875 9.53125 C6.18007645 10.16357544 6.44218414 10.79590088 6.7122345 11.4473877 C7.26286503 12.78065663 7.80980422 14.11545532 8.35327148 15.45166016 C9.18613162 17.49664011 10.03254408 19.53560876 10.88085938 21.57421875 C15 31.58511487 15 31.58511487 15 35 C5.43 35 -4.14 35 -14 35 C-12.26461787 29.79385362 -10.57887411 24.75659583 -8.5546875 19.6875 C-8.11769531 18.59308594 -7.68070313 17.49867188 -7.23046875 16.37109375 C-6.78316406 15.25863281 -6.33585938 14.14617187 -5.875 13 C-5.41996094 11.85660156 -4.96492187 10.71320313 -4.49609375 9.53515625 C-4.06167969 8.45105469 -3.62726563 7.36695313 -3.1796875 6.25 C-2.78507324 5.26515625 -2.39045898 4.2803125 -1.98388672 3.265625 C-1 1 -1 1 0 0 Z " fill="#1861AC" transform="translate(231,258)"/>
<path d="M0 0 C6.6 0 13.2 0 20 0 C20 2.31 20 4.62 20 7 C16.04 7 12.08 7 8 7 C8 8.98 8 10.96 8 13 C11.96 13 15.92 13 20 13 C20 15.31 20 17.62 20 20 C16.04 20 12.08 20 8 20 C8 22.64 8 25.28 8 28 C11.96 28 15.92 28 20 28 C20 29.98 20 31.96 20 34 C13.4 34 6.8 34 0 34 C0 22.78 0 11.56 0 0 Z " fill="#E7EEF5" transform="translate(444,348)"/>
<path d="M0 0 C3.63 0 7.26 0 11 0 C11 14.52 11 29.04 11 44 C7.37 44 3.74 44 0 44 C0 29.48 0 14.96 0 0 Z " fill="#155FAB" transform="translate(87,508)"/>
<path d="M0 0 C0.804375 0.495 1.60875 0.99 2.4375 1.5 C2.4375 3.81 2.4375 6.12 2.4375 8.5 C1.61572266 8.01853516 1.61572266 8.01853516 0.77734375 7.52734375 C-3.52133878 5.63994224 -7.97188656 5.87524196 -12.5625 6.5 C-15.97916667 8.08333333 -15.97916667 8.08333333 -17.5625 11.5 C-18.52227207 16.87956277 -18.50039429 21.00523097 -15.5625 25.6875 C-11.78997161 27.9667359 -8.80779404 28.26895892 -4.5625 27.5 C-2.08022727 26.67569811 0.08693548 25.67528226 2.4375 24.5 C2.4375 27.14 2.4375 29.78 2.4375 32.5 C-2.76011024 35.66927454 -8.69025651 35.08575995 -14.5625 34.5 C-19.48515695 32.2144807 -22.37299249 28.78305294 -25.5625 24.5 C-27.30223368 19.28079895 -27.03141181 14.95609457 -25.375 9.8125 C-19.9553179 -0.09243624 -10.55152486 -4.44274731 0 0 Z " fill="#EBF1F7" transform="translate(429.5625,348.5)"/>
<path d="M0 0 C0.33 0.474375 0.66 0.94875 1 1.4375 C0.34 2.7575 -0.32 4.0775 -1 5.4375 C-3.97 5.1075 -6.94 4.7775 -10 4.4375 C-10.33 6.0875 -10.66 7.7375 -11 9.4375 C-10.32453125 9.82421875 -9.6490625 10.2109375 -8.953125 10.609375 C-8.06109375 11.13015625 -7.1690625 11.6509375 -6.25 12.1875 C-5.36828125 12.69796875 -4.4865625 13.2084375 -3.578125 13.734375 C-0.99600282 15.44014056 0.99656205 17.08105353 3 19.4375 C3.56326014 22.81706087 3.7473095 25.1596578 1.9765625 28.1875 C-0.17480115 30.89952206 -1.69012348 32.33420783 -5 33.4375 C-6.64176695 33.58002401 -8.28982655 33.65776755 -9.9375 33.6875 C-10.79214844 33.71328125 -11.64679688 33.7390625 -12.52734375 33.765625 C-15.46144478 33.37626562 -16.80700201 32.37100171 -19 30.4375 C-18.67 28.7875 -18.34 27.1375 -18 25.4375 C-16.68 25.4375 -15.36 25.4375 -14 25.4375 C-13.67 25.7675 -13.34 26.0975 -13 26.4375 C-10.66702567 26.47842937 -8.33294775 26.47991723 -6 26.4375 C-5.67 24.7875 -5.34 23.1375 -5 21.4375 C-5.67546875 21.06238281 -6.3509375 20.68726563 -7.046875 20.30078125 C-16.66982381 14.78010108 -16.66982381 14.78010108 -19 10.4375 C-19.5625 6.9375 -19.5625 6.9375 -19 3.4375 C-16.92620125 0.78764604 -15.22673755 -0.97028187 -12.1875 -2.4375 C-7.85997316 -2.68478725 -3.50244295 -2.73628356 0 0 Z " fill="#F0F4F8" transform="translate(230,349.5625)"/>
<path d="M0 0 C2.31 0 4.62 0 7 0 C7 11.22 7 22.44 7 34 C4.69 34 2.38 34 0 34 C0 22.78 0 11.56 0 0 Z " fill="#F7F9FB" transform="translate(147,348)"/>
<path d="M0 0 C2.5 0.125 2.5 0.125 3.5 1.125 C3.71789186 5.24077589 3.68579188 9.35964923 3.68530273 13.48071289 C3.68748734 15.55050264 3.70563491 17.61975793 3.72460938 19.68945312 C3.72654297 20.98689453 3.72847656 22.28433594 3.73046875 23.62109375 C3.73457764 24.81919678 3.73868652 26.0172998 3.74291992 27.25170898 C3.5 30.125 3.5 30.125 1.5 32.125 C-1.125 31.75 -1.125 31.75 -3.5 31.125 C-3.52465622 26.87085377 -3.54283899 22.61674502 -3.55493164 18.36254883 C-3.55997101 16.91429927 -3.56680253 15.46605483 -3.57543945 14.01782227 C-3.58752247 11.94025412 -3.59323211 9.86275303 -3.59765625 7.78515625 C-3.60289307 6.53355713 -3.60812988 5.28195801 -3.61352539 3.99243164 C-3.46231365 0.17311568 -3.46231365 0.17311568 0 0 Z " fill="#F7FAFC" transform="translate(258.5,513.875)"/>
<path d="M0 0 C0.33 0 0.66 0 1 0 C2.6120509 6.76485645 3.26618595 13.04958914 3 20 C1.02 20 -0.96 20 -3 20 C-2.51358785 13.15182898 -1.64006048 6.66957927 0 0 Z " fill="#E7EFF6" transform="translate(364,516)"/>
<path d="M0 0 C0.33 0 0.66 0 1 0 C1.33808686 2.06172613 1.67027361 4.1244203 2 6.1875 C2.185625 7.33605469 2.37125 8.48460937 2.5625 9.66796875 C2.93489477 12.50415393 3.08596021 15.14719564 3 18 C1.02 18 -0.96 18 -3 18 C-2.22095672 5.33029613 -2.22095672 5.33029613 0 0 Z " fill="#E8EFF6" transform="translate(483,518)"/>
<path d="M0 0 C3.00221784 4.50332676 4.31896025 8.57767579 4 14 C1.36 14 -1.28 14 -4 14 C-3.00956295 9.16371695 -2.04301154 4.52381127 0 0 Z " fill="#2E6FB4" transform="translate(333,355)"/>
<path d="M0 0 C2.875 -0.125 2.875 -0.125 6 0 C8 2 8 2 8.1875 4.5625 C8 7 8 7 7 8 C4.66702567 8.04092937 2.33294775 8.04241723 0 8 C0 5.36 0 2.72 0 0 Z " fill="#1D64AE" transform="translate(294,354)"/>
<path d="M0 0 C0.66 0.33 1.32 0.66 2 1 C1.88610125 2.79240663 1.75852313 4.58394835 1.625 6.375 C1.52058594 7.87160156 1.52058594 7.87160156 1.4140625 9.3984375 C1 12 1 12 -1 14 C-1.027193 12.41676312 -1.04648306 10.83338938 -1.0625 9.25 C-1.07410156 8.36828125 -1.08570313 7.4865625 -1.09765625 6.578125 C-1.00826198 4.2181162 -0.66912821 2.25501476 0 0 Z " fill="#C8D9EB" transform="translate(427,523)"/>
<path d="M0 0 C2.29013653 3.4352048 2.17842973 4.985331 2 9 C1.34 9 0.68 9 0 9 C-0.66 9.99 -1.32 10.98 -2 12 C-1.85904936 10.3745692 -1.71207913 8.74965949 -1.5625 7.125 C-1.48128906 6.22007812 -1.40007813 5.31515625 -1.31640625 4.3828125 C-1 2 -1 2 0 0 Z " fill="#BDD2E7" transform="translate(53,518)"/>
<path d="M0 0 C0.33 0 0.66 0 1 0 C1.33 2.97 1.66 5.94 2 9 C1.01 9.495 1.01 9.495 0 10 C-0.66 10.99 -1.32 11.98 -2 13 C-1.85851011 11.3954444 -1.71164314 9.79136233 -1.5625 8.1875 C-1.48128906 7.29417969 -1.40007812 6.40085937 -1.31640625 5.48046875 C-1 3 -1 3 0 0 Z " fill="#C0D4E8" transform="translate(364,516)"/>
<path d="M0 0 C2 2 2 2 2.1953125 4.1640625 C2.16050781 5.38222656 2.16050781 5.38222656 2.125 6.625 C2.10695313 7.44226563 2.08890625 8.25953125 2.0703125 9.1015625 C2.04710937 9.72804688 2.02390625 10.35453125 2 11 C1.34 11 0.68 11 0 11 C-0.19406478 9.35492782 -0.38007935 7.70890406 -0.5625 6.0625 C-0.66691406 5.14597656 -0.77132813 4.22945312 -0.87890625 3.28515625 C-0.91886719 2.53105469 -0.95882813 1.77695312 -1 1 C-0.67 0.67 -0.34 0.34 0 0 Z " fill="#C3D6E9" transform="translate(449,526)"/>
<path d="M0 0 C0.99 0 1.98 0 3 0 C3 1.32 3 2.64 3 4 C-0.22791555 6.1519437 -1.28400809 6.20086443 -5 6 C-4.360625 5.7525 -3.72125 5.505 -3.0625 5.25 C-0.81258459 4.18437567 -0.81258459 4.18437567 -0.25 1.875 C-0.1675 1.25625 -0.085 0.6375 0 0 Z " fill="#C9D8EA" transform="translate(404,236)"/>
</svg>
